<svg width="175" height="25" fill="none" xmlns="http://www.w3.org/2000/svg"><path d="M59.817 24.33c-1.707 0-3.232-1.037-3.232-2.866a2.89 2.89 0 0 1 2.988-2.866h.122c.427 0 .915.06 1.28.244.062 0 .61.244.671.244a.417.417 0 0 0 .427-.427h.427v2.195h-.305a2.415 2.415 0 0 0-2.317-1.83c-1.402 0-2.134 1.16-2.134 2.44s.67 2.439 2.134 2.439c1.159 0 1.89-.732 2.317-1.769l.427.183c-.305 1.22-1.524 2.073-2.805 2.012ZM68.78 24.207v-.427h.305c.122 0 .854 0 .55-.67-.306-.671-.367-.915-.367-.915h-2.805s-.365.793-.426.853c-.061.061-.366.732.426.732h.427v.427h-2.378v-.427h.122c.366 0 .67-.183.793-.549.305-.61 2.256-4.573 2.256-4.573h.975s1.89 4.207 1.952 4.39c.122.427.549.732.975.732v.427h-2.804Zm-.853-5-1.28 2.561h2.438l-1.158-2.561ZM75.366 21.768v1.402c0 .671.67.61 1.158.61v.427h-3.17v-.427c.67 0 1.158 0 1.158-.793v-3.11c0-.853-.488-.792-1.158-.792v-.427h3.72c1.036 0 2.5.244 2.5 1.586-.062 1.89-3.05 1.524-4.208 1.524Zm1.28-2.622c-.731 0-1.341-.061-1.341.793v1.402h1.463c.732 0 1.647-.183 1.647-1.097 0-.976-.976-1.098-1.769-1.098ZM81.28 24.207v-.427c.61 0 1.16.06 1.16-.793v-3.049c0-.548-.245-.792-.794-.792h-.365v-.427h3.231v.427h-.488c-.487 0-.67.244-.67.731v3.11c0 .854.549.793 1.158.793v.427h-3.231ZM92.378 20.609l-.06-.549c-.062-.793-.61-.975-1.342-.975-.61 0-.854.122-.854.792v3.05c0 .914.61.792 1.341.792v.427h-3.536v-.366c.732 0 1.341.122 1.341-.793v-3.11c0-.67-.305-.792-.914-.792-.732 0-1.22.122-1.28.975l-.062.549h-.549v-1.89h6.403v1.89h-.488ZM98.903 24.207v-.427h.304c.122 0 .854 0 .55-.67-.306-.671-.367-.915-.367-.915h-2.805s-.365.793-.426.853c-.061.122-.366.732.426.732h.427v.427h-2.378v-.427h.122c.366 0 .67-.183.793-.549.305-.61 2.256-4.573 2.256-4.573h.975s1.891 4.207 1.952 4.39c.122.427.549.732.975.732v.427h-2.804Zm-.854-5-1.28 2.561h2.438l-1.158-2.561ZM103.415 24.207v-.427c.67 0 1.158 0 1.158-.793v-3.11c0-.853-.488-.792-1.158-.792v-.427h3.231v.427c-.67 0-1.219-.06-1.219.793v3.11c0 .67.305.792.914.792h1.037c1.463 0 1.281-.305 1.402-1.707h.549v2.073l-5.914.061ZM.061 11.22H.61c.488.061.975-.06 1.463-.304.244-.183.366-.671.366-1.464V2.745c0-.305-.122-.67-.305-.976-.427-.305-1.036-.488-1.585-.427H0V.977h8.293v.365h-.55c-.426-.06-.853 0-1.28.183-.304.183-.426.732-.426 1.586v8.11h1.22c.975 0 1.89-.184 2.743-.671 1.159-.732 2.134-1.708 2.988-2.805h.366v3.841H.06v-.366ZM5 1.586c.061-.06.122-.183.183-.244H2.256c.183.183.305.366.366.55h2.256L5 1.585Zm-2.378 9.147-.122.244-.244.243h2.622v-.548l-2.256.06Zm.122-8.598.06.366v.366h2.074v-.732H2.744Zm.06 7.622v.427l-.06.244h2.134v-.671H2.805Zm0-6.707v.67h2.074v-.67H2.805Zm0 .975v.671h2.074v-.67H2.805Zm0 .976v.67h2.074v-.67H2.805Zm0 .915v.67h2.074v-.67H2.805Zm0 .975v.67h2.074v-.67H2.805Zm0 .915v.67h2.074v-.67H2.805Zm0 .975v.671h2.074v-.67H2.805Zm7.135 2.074-.67.304h2.926v-.731H10.61l-.671.427Zm2.195-.671V9.025c-.366.427-.793.793-1.28 1.159h1.28ZM26.098 2.194c1.341.976 2.073 2.561 2.012 4.207 0 .854-.183 1.708-.549 2.44-.366.792-.976 1.402-1.646 1.89-1.098.792-2.622 1.158-4.634 1.158a12.52 12.52 0 0 1-2.988-.366c-.854-.243-1.586-.67-2.256-1.158-1.342-.976-2.135-2.5-2.074-4.146 0-1.708.854-3.354 2.257-4.269C17.5 1.036 19.145.61 20.732.67c2.256 0 4.024.488 5.366 1.524Zm-11.769 3.78v.671h2.44v-.67h-2.44ZM14.512 5l-.06.366-.062.305h2.44L16.95 5h-2.439Zm-.122 1.89.061.366.122.366h2.378l-.06-.366-.062-.366H14.39Zm.488-2.866-.183.366-.122.305h2.378l.183-.67h-2.256Zm-.244 3.842.122.366.183.305h2.256l-.122-.305-.122-.427-2.317.06Zm.854-4.756-.305.366L15 3.78h2.195l.305-.671h-2.012Zm-.427 5.67.244.366.305.305h1.951l-.305-.67h-2.195Zm1.463-6.646-.792.67h1.95l.184-.304.305-.427-1.647.061Zm-.731 7.622.427.366.426.305h1.464l-.427-.67h-1.89Zm2.927-8.293.365-.365-1.158.244c-.366.121-.67.304-.976.548h1.403l.366-.427Zm-1.647 9.208c.61.366 1.28.549 1.951.67l-.426-.365-.305-.305h-1.22Zm6.098-8.232c-.488-.915-1.159-1.402-2.012-1.402h-.366l-.366.06c-.183.062-.305.123-.427.184-.61.487-1.037 1.158-1.28 1.89-.061.244-.122.427-.183.67-.061.244-.122.488-.122.732-.122.305-.122.549-.183.793s-.061.549-.061.854l.06.914v.244c0 .061.062.244.123.61l.244.914c.06.183.06.305.122.427.06.183.122.305.182.488.183.488.427.915.854 1.22.366.305.854.427 1.342.427.914 0 1.707-.488 2.073-1.342a7.82 7.82 0 0 0 .732-3.72V6.22c0-1.28-.244-2.561-.732-3.78Zm-.671 9.085c.183 0 .305 0 .488-.06.122-.061.305-.122.427-.183.183-.061.305-.183.488-.244l.548-.366h-1.22c-.182.366-.426.61-.731.853Zm1.463-9.939-.365-.183-1.037-.304.366.365.244.366h1.158l-.366-.244Zm-.61.55.184.365.122.305h1.707l-.305-.366-.366-.305h-1.341Zm.427 7.56-.304.67h1.402l.427-.426.244-.305-1.768.061Zm0-6.646.183.67h2.013l-.183-.365-.183-.305h-1.83Zm.244 5.732-.06.365-.122.305h1.829l.244-.366.183-.365h-2.074v.06Zm0-4.757.122.671h2.256l-.244-.67h-2.134Zm.183 3.78-.122.733h2.134l.122-.366.122-.305-2.256-.061Zm0-2.865.061.67h2.378l-.122-.67h-2.317Zm.061 1.951-.06.671h2.316l.122-.67h-2.378Zm0-.975v.67h2.44V5.914h-2.44ZM45.67 4.757c.184-.427.306-.854.306-1.28 0-1.098-.793-2.013-1.89-2.074V.977h5.487v.365c-.244 0-.488 0-.67.061l-.245.122c-.121.061-.243.122-.365.244-.427.305-.793.61-1.098 1.037-.183.244-.366.488-.488.732l-.549.975-3.414 7.44h-.305l-3.902-7.989-3.659 7.988h-.244l-4.33-8.536-.426-.671a2.383 2.383 0 0 0-.854-1.037c-.426-.244-.853-.366-1.341-.305h-.305v-.365h7.683v.365h-.366c-.67 0-.976.183-.976.488l.062.244.06.305 2.561 5.06 1.83-4.023a3.092 3.092 0 0 0-.55-.976 3.35 3.35 0 0 0-.426-.549c-.183-.183-.366-.305-.549-.427-.122-.06-.244-.06-.365-.122l-.488-.06V.976h7.134v.365h-.366c-.244 0-.549 0-.793.122-.122.061-.244.244-.183.366 0 .183.061.427.183.61l2.5 5.06 1.342-2.743ZM32.562 1.342h-3.476l.366.244.244.244h2.683c0-.183.061-.305.183-.488Zm-2.622.793.183.244.183.305.06.122h2.318l-.122-.244a1.13 1.13 0 0 1-.122-.427h-2.5Zm.488.915.366.67h2.317l-.366-.67h-2.317Zm.488.975.366.671h2.317l-.366-.67h-2.317Zm.487.976.366.67h2.256l-.366-.67h-2.256Zm.488.976.366.67h2.317l-.366-.67H31.89Zm.488.914.366.67h2.317l-.366-.67h-2.317Zm.488.976.366.67h2.317l-.366-.67h-2.317Zm.488.975.365.671h1.83l.244-.488-.122-.244-2.317.061Zm.488.915.365.67h.915l.305-.67h-1.585Zm.487.976.366.67.305-.67h-.67Zm6.22-9.39h-3.476c.122.06.305.182.366.243l.244.244h2.683c0-.183.06-.305.183-.488Zm-2.622.792c.122.183.244.366.305.549l.06.122h2.318l-.122-.244a1.13 1.13 0 0 1-.122-.427h-2.44Zm.488.915.366.67h2.317l-.305-.67h-2.378Zm.487.975.366.671h2.317l-.366-.67h-2.317Zm.488.976.366.67h2.317l-.366-.67H39.39Zm.488.915.366.67h2.317l-.366-.67h-2.317Zm.488.975.366.67h2.317l-.366-.67h-2.317Zm.488.915.365.67h2.318l-.366-.67h-2.317Zm.488.975.365.671h1.83l.182-.488-.121-.244-2.256.061Zm.548.976.366.67h.915l.305-.67H41.89Zm.488.915.366.67.305-.67h-.67Zm4.94-8.964.121-.183.122-.183h-2.378l.305.244.305.244h1.463l.061-.122Zm-1.342.427c.122.183.243.305.305.549l.06.244.061.305c.183-.366.366-.732.61-1.098h-1.036ZM63.293 4.818h-.305a12.2 12.2 0 0 0-1.159-1.341c-.427-.427-.853-.854-1.341-1.22a4.986 4.986 0 0 0-1.22-.732 5.197 5.197 0 0 0-1.402-.183h-1.647v4.452h.427c.55 0 1.098-.122 1.586-.427a3.727 3.727 0 0 0 1.28-1.464h.366V7.99h-.366l-.244-.366-.244-.305-.426-.427-.183-.183c-.061-.06-.183-.122-.244-.183-.427-.305-.976-.426-1.525-.426h-.427v5h1.647l.427-.062c.183 0 .426-.06.61-.121a4.21 4.21 0 0 0 .61-.244c.426-.183.853-.488 1.219-.793.914-.67 1.646-1.463 2.317-2.317h.366v4.024H50.244v-.366h.549c.305 0 .549 0 .853-.06.061 0 .122 0 .183-.062l.122-.06.244-.183c.122-.122.244-.305.305-.488.061-.305.061-.67.061-.976v-6.28c0-.305 0-.671-.061-.976-.061-.183-.122-.366-.305-.488a1.507 1.507 0 0 0-.549-.244l-.914-.06h-.55V.976h13.05l.06 3.841ZM55.06 1.342h-2.622a.949.949 0 0 1 .366.488h2.256v-.488Zm-2.256 9.33-.122.305-.244.182h2.622v-.548l-2.256.06Zm.122-8.598v.732H55v-.732h-2.073Zm.06 7.683v.427l-.06.244h2.134v-.671h-2.073Zm0-6.707v.67h2.074v-.67h-2.073Zm0 .975v.671h2.074v-.67h-2.073Zm0 .976v.67h2.074v-.67h-2.073Zm0 .915v.67h2.074v-.67h-2.073Zm0 .975v.67h2.074v-.67h-2.073Zm0 .915v.67h2.074v-.67h-2.073Zm0 .975v.671h2.074v-.67h-2.073Zm5.489-2.378.366.305.243.244V6.16h-1.097l.488.244Zm.61-.548v-.793l-.305.305a1.276 1.276 0 0 1-.366.244l-.427.244h1.097Zm1.097 5-.732.304h2.927v-.61H60.61l-.427.306Zm2.073-9.513h-2.5l.488.244.427.305h1.585v-.549Zm.122 8.964v-1.28l-.488.487-.61.549-.304.244h1.402Zm-1.402-8.11.426.366.488.488.366.427v-1.22l-1.28-.06ZM72.805.977h1.402c.61 0 1.22.122 1.769.304.487.183.914.488 1.158.915.305.427.427.915.427 1.463 0 1.525-.976 2.5-2.866 2.805l1.83 3.415c.182.366.487.732.792.976.183.122.366.182.549.243.244.061.488.061.732.061v.366h-5l-2.744-4.939H70v2.866c0 .305 0 .67.061.976.061.183.122.366.305.488.183.121.305.182.549.243l.914.061h.122v.366h-7.866v-.366h.55c.304 0 .548 0 .853-.06.06 0 .122 0 .183-.062l.122-.06.244-.183c.122-.122.243-.305.304-.488.062-.305.062-.67.062-.976v-6.28c0-.305 0-.671-.062-.976-.06-.183-.121-.366-.304-.488a1.507 1.507 0 0 0-.55-.244H64.086v-.365l8.72-.061Zm-3.903.426h-2.621a.949.949 0 0 1 .365.488h2.257v-.488Zm-2.256 9.33-.183.244-.243.243h2.926c-.06-.122-.122-.183-.122-.243-.06-.061-.06-.183-.121-.305h-2.257v.06Zm.061-8.598.061.366v.366h2.073v-.732h-2.134Zm.061 7.622v.427l-.06.244h2.195v-.732l-2.135.061Zm0-6.646v.67h2.073v-.67h-2.073Zm0 .914v.671h2.073v-.67h-2.073Zm0 .976v.67h2.073v-.67h-2.073Zm0 .976v.67h2.073v-.67h-2.073Zm0 .914v.67h2.073v-.67h-2.073Zm0 .976v.67h2.073v-.67h-2.073Zm0 .914v.671h2.073v-.67h-2.073Zm4.269-2.56c1.646 0 2.5-.793 2.5-2.379a2.374 2.374 0 0 0-.793-1.95c-.549-.367-1.159-.489-1.83-.428h-.853v4.817l.976-.06Zm2.073-.244-.305.243-.366.183-.488.122-.67.122.06.061h2.013l.853-.366.305-.122.305-.182-1.707-.061Zm-1.586.914.366.67h2.013l-.366-.67h-2.013Zm.488.976.366.67h1.951l-.366-.67h-1.95Zm.549.914.366.671h1.951l-.366-.67h-1.951Zm2.317-7.073-.366-.183-.366-.122-.427-.06h-1.097l.305.243.305.244h1.951l-.305-.122Zm-1.768 8.05.366.67h1.95l-.365-.671H73.11ZM73.78 5l-.121.305-.244.366h1.829c.244-.183.427-.427.61-.671H73.78Zm-.304-2.866.243.427.123.305h2.195l-.183-.366-.305-.366h-2.073Zm.122 8.598.243.548h1.952l-.244-.548h-1.951Zm.365-6.647-.06.366-.062.366h2.196l.06-.305.062-.366-2.196-.06Zm-.06-.975.06.305.061.365h2.257v-.426l-.122-.244h-2.257ZM91.098 5.304l-.244.061-.244-.488c-.122-.243-.305-.548-.427-.792-.305-.488-.61-.976-.976-1.403a5.34 5.34 0 0 0-1.463-1.158c-.244-.122-.549-.183-.793-.305-.305-.061-.61-.122-.853-.122-.793 0-1.464.427-1.89 1.341a6.524 6.524 0 0 0-.55 1.647 13.326 13.326 0 0 0-.182 2.195c0 .67.06 1.341.122 1.951.06.305.121.549.183.854.06.305.182.549.243.792.305.915 1.159 1.525 2.074 1.525 1.036 0 2.012-.305 2.805-.915a6.443 6.443 0 0 0 2.073-2.56l.305.182c-.062.122-.122.244-.122.366-.061.183-.183.305-.244.427l-.55.793c-.182.243-.365.426-.548.67-.183.183-.427.366-.61.55a6.596 6.596 0 0 1-3.658 1.097c-1.647.06-3.232-.55-4.451-1.647-2.257-2.073-2.44-5.548-.366-7.805l.244-.243A6.114 6.114 0 0 1 85.366.73c.488 0 .915.061 1.402.183.488.122.915.305 1.342.549l.549.244.426.06c.61 0 1.159-.304 1.586-.731h.305l.122 4.268Zm-11.403.671v.671h2.317v-.671h-2.317ZM79.817 5l-.122.671h2.317l.122-.67h-2.317Zm-.122 1.89.061.488.061.244h2.195l-.06-.67-2.257-.061Zm.427-2.865L80 4.39l-.122.366h2.256l.183-.671-2.195-.061Zm-.183 3.841.122.366.183.305h2.012l-.06-.305-.062-.366H79.94Zm.732-4.756-.244.366-.183.305h2.134l.122-.366.183-.305h-2.012Zm-.305 5.67.244.428.244.244h1.768l-.244-.671h-2.012Zm1.22-6.645-.367.365-.304.366h1.89l.427-.67-1.647-.061Zm-.55 7.622.367.365.426.305h1.28l-.182-.305-.244-.365h-1.646Zm2.745-8.293.426-.427-.61.061-.304.061-.488.183-.366.183-.488.305h1.464l.365-.366Zm-1.586 9.207a5.261 5.261 0 0 0 1.708.67l-.366-.365-.244-.305h-1.098Zm7.744-8.963-.183.122-.244.06-.549.062.244.183H90l-.06-.427Zm-.488.67.366.488.244.305L90 2.377h-.549ZM95.549 8.66c-.061.182-.122.365-.122.609 0 .366.06.732.244 1.037.183.305.427.548.792.731l.305.183c.122.061.305.061.427.061h.427v.305H91.89v-.366c.61 0 1.159-.244 1.586-.67.61-.61 1.097-1.342 1.463-2.074L99.39.732h.366l4.939 8.842.488.793c.061.06.122.182.244.243l.244.244c.427.305.853.427 1.341.366h.244v.366h-8.293v-.366h.793c.244 0 .488-.06.732-.183a.64.64 0 0 0 .305-.549c0-.182-.061-.426-.183-.61l-.671-1.28-4.39.061Zm-2.073 2.316-.305.183h1.768l-.244-.549h-.792l-.427.366Zm1.158-.792.061-.488-.305.366-.122.122-.183.183h.55v-.183Zm3.049-5.61L95.67 8.232h4.024l-2.012-3.658Zm.183-.366.305.549h2.378l-.366-.67h-2.256l-.061.121Zm.244-.427H100l-.366-.67h-1.158l-.366.67Zm.549 1.89h2.378l-.366-.67h-2.378l.366.67Zm0-2.865h.853l-.427-.732-.426.732Zm.548 3.841h2.439l-.426-.67h-2.379l.366.67Zm.488.915h2.439l-.366-.671H99.39l.305.67Zm.549.975h2.439l-.366-.67h-2.439l.366.67Zm.549.915h2.439l-.366-.67h-2.439l.366.67Zm.061 1.768h3.292l-.305-.549h-2.743a.745.745 0 0 1-.244.55Zm.122-1.341c.061.06.061.183.122.305 0 .06.061.183.061.305h2.561l-.366-.671h-2.439l.061.06ZM116.585.977h1.403c.61 0 1.219.122 1.768.304.488.183.915.488 1.159.915.305.427.426.915.426 1.463 0 1.525-.975 2.5-2.865 2.805l1.829 3.415c.183.366.488.732.793.976.182.122.365.182.548.243.244.061.488.061.732.061v.366h-5l-2.744-4.939h-.854v2.866c0 .305 0 .67.061.976.061.183.122.366.305.488.183.121.305.182.549.243l.915.061h.122v.366h-7.805v-.366h.549c.304 0 .609 0 .853-.06.061 0 .122 0 .183-.062l.122-.06.244-.183c.122-.122.244-.305.305-.488.061-.305.061-.67.061-.976v-6.28c0-.305 0-.671-.061-.976-.061-.183-.122-.366-.305-.488a1.508 1.508 0 0 0-.549-.244l-.914-.06h-.488v-.305l8.658-.061Zm-3.902.426h-2.622a.948.948 0 0 1 .366.488h2.256v-.488Zm-2.256 9.33-.183.304-.244.244h2.988c-.061-.122-.122-.183-.122-.244-.061-.06-.061-.182-.122-.304h-2.317Zm.122-8.598.061.366v.366h2.073v-.732h-2.134Zm.061 7.622v.427l-.061.244h2.195v-.732l-2.134.061Zm0-6.646v.67h2.073v-.67h-2.073Zm0 .914v.671h2.073v-.67h-2.073Zm0 .976v.67h2.073v-.67h-2.073Zm0 .976v.67h2.073v-.67h-2.073Zm0 .914v.67h2.073v-.67h-2.073Zm0 .976v.67h2.073v-.67h-2.073Zm0 .914v.671h2.073v-.67h-2.073Zm4.207-2.56c1.646 0 2.5-.793 2.5-2.379a2.374 2.374 0 0 0-.793-1.95c-.548-.367-1.158-.489-1.829-.428h-.854v4.817l.976-.06Zm2.134-.244-.305.243-.366.183-.487.122-.671.122.061.061h2.012l.854-.366.305-.122.305-.182-1.708-.061Zm-1.646.914.366.67h2.012l-.366-.67h-2.012Zm.549.976.366.67h2.012l-.366-.67h-2.012Zm.487.914.366.671h1.952l-.366-.67h-1.952Zm2.379-7.073-.427-.183-.366-.122-.427-.06h-1.037l.305.243.305.244h1.951l-.304-.122Zm-1.83 8.05.366.67h1.951l-.366-.671h-1.951ZM117.561 5l-.122.305-.244.366h1.829c.244-.183.488-.427.671-.671h-2.134Zm-.305-2.866.244.427.122.305h2.195l-.183-.427-.305-.366-2.073.061Zm.183 8.537.244.548h1.951l-.244-.548h-1.951Zm.305-6.647-.061.366-.061.366h2.134l.061-.305.061-.366-2.134-.06Zm-.061-.975.061.305.061.365h2.256v-.365l-.122-.305h-2.256ZM136.646 8.903c0 .793-.426 1.585-1.097 2.012a4.067 4.067 0 0 1-1.281.549c-.731.122-1.402.183-2.134.122h-9.085v-.366h.549c.304 0 .548 0 .853-.06.061 0 .122 0 .183-.062l.122-.06.244-.184c.122-.122.244-.305.305-.488.061-.304.061-.67.061-.975V3.17c0-.305 0-.67-.061-.975-.061-.183-.122-.366-.305-.488a1.507 1.507 0 0 0-.549-.244l-.914-.061h-.549v-.366h8.841l1.281.061.549.061.548.183c.61.183 1.159.488 1.586.976.366.426.548.975.548 1.585 0 .549-.121 1.037-.426 1.463-.427.488-.915.793-1.525 1.037 1.464.366 2.256 1.22 2.256 2.5Zm-8.78-7.561h-2.622a.948.948 0 0 1 .366.488h2.256v-.488Zm-2.256 9.33-.183.304-.244.244h2.622v-.549h-2.195Zm.061-8.537.061.366v.365h2.073v-.731h-2.134Zm.061 7.622v.427l-.061.243h2.134v-.67h-2.073Zm0-6.708v.671h2.073v-.67h-2.073Zm0 .976v.67h2.073v-.67h-2.073Zm0 .976v.67h2.073v-.67h-2.073Zm0 .914v.67h2.073v-.67h-2.073Zm0 .976v.67h2.073v-.67h-2.073Zm0 .914v.671h2.073v-.67h-2.073Zm0 .976v.67h2.073v-.67h-2.073Zm4.146-2.683h.61l.549-.06c.243-.062.487-.184.67-.306.549-.366.793-1.036.793-2.012.061-.732-.244-1.463-.793-1.89-.244-.122-.487-.244-.731-.305-.427-.061-.854-.122-1.281-.122h-.671v4.695h.854Zm.244 5.061h.488c.183 0 .305 0 .488-.06.243-.062.426-.184.609-.306.549-.366.854-1.036.854-2.073.061-.793-.244-1.524-.854-1.951-.183-.122-.366-.244-.609-.244l-.549-.061h-1.525v4.756l1.098-.06Zm1.646-5.06-.427.182.366.183.305.183h1.525l-.732-.244-.732-.122c.244 0 .427-.061.671-.122.244-.06.488-.122.732-.244h-1.464l-.244.183Zm.183-4.513c.122.06.183.122.305.244h1.707a2.129 2.129 0 0 0-.853-.366l-.549-.061-.671-.061h-.244l.305.244Zm.183 9.33-.305.243h.244c.427 0 .854 0 1.281-.122.305-.06.67-.244.914-.366h-1.89l-.244.244Zm.366-5.55-.244.305h1.768l.305-.183c.122-.122.244-.305.366-.487h-2.012l-.183.365Zm.244 2.196h2.134a1.686 1.686 0 0 0-.793-.671h-1.768c.183.183.305.427.427.67Zm.061-4.757h1.951l-.183-.365c-.061-.122-.183-.244-.244-.305H132.5c.061.183.183.427.305.67Zm-.061 7.257-.183.365h2.012c.244-.183.366-.426.549-.67h-2.256l-.122.305Zm.122-5.732-.122.366h2.073c.061-.244.122-.427.183-.671h-2.134v.305Zm0-.915v.366H135v-.366l-.122-.366h-2.073l.061.366Zm0 4.634.061.427h2.256l-.061-.366-.122-.305h-2.195l.061.244Zm.122 1.098-.061.305h2.256l.061-.305V8.72h-2.256v.427ZM149.451 2.195c1.342.976 2.073 2.561 2.012 4.208 0 .853-.183 1.707-.548 2.439-.366.792-.976 1.402-1.647 1.89-1.097.793-2.683 1.158-4.634 1.158-.975 0-2.012-.122-2.988-.366-.853-.243-1.585-.67-2.256-1.158-1.341-.976-2.134-2.5-2.073-4.146 0-1.708.854-3.354 2.256-4.269 1.342-.914 2.988-1.402 4.573-1.28 2.195 0 3.964.488 5.305 1.524Zm-11.768 3.78v.671h2.439v-.67h-2.439Zm.183-.975-.061.366-.061.305h2.439l.122-.67h-2.439Zm-.122 1.89.061.366.122.366h2.378l-.061-.366-.061-.366h-2.439Zm.488-2.866-.183.366-.122.305h2.378l.183-.67h-2.256Zm-.244 3.842.122.366.183.305h2.256l-.122-.244-.122-.427h-2.317Zm.914-4.756-.304.366-.183.305h2.195l.305-.671h-2.013Zm-.487 5.67.244.366.304.305h1.952l-.305-.67h-2.195Zm1.463-6.646-.793.671h1.952l.183-.305.304-.427-1.646.061Zm-.732 7.622.427.366.427.305h1.463l-.426-.67h-1.891Zm2.927-8.292.366-.366-1.159.244a3.1 3.1 0 0 0-.975.548h1.402l.366-.426Zm-1.646 9.207c.61.305 1.28.549 1.951.67l-.427-.365-.305-.305h-1.219Zm6.036-8.232c-.487-.915-1.158-1.402-2.012-1.402h-.366l-.365.06a2.974 2.974 0 0 0-.427.184c-.61.487-1.037 1.158-1.281 1.89-.061.244-.122.427-.183.67-.061.244-.122.488-.122.732-.061.305-.061.549-.122.793s-.061.549-.061.854l.061.914v.244c0 .061.061.244.122.61l.244.915c.061.182.061.304.122.426.061.183.122.305.183.488.183.488.427.915.854 1.22.366.305.853.426 1.341.426.854 0 1.708-.487 2.073-1.341a7.817 7.817 0 0 0 .732-3.72V6.22c0-1.28-.244-2.561-.793-3.78Zm-.609 9.085c.183 0 .305 0 .487-.06.122-.062.305-.122.427-.183.183-.061.366-.183.488-.244l.549-.366h-1.22c-.183.366-.426.61-.731.854Zm1.402-9.939-.366-.182-.975-.305.365.366.244.365h1.159l-.427-.244Zm-.549.55.183.365.122.305h1.708l-.305-.366-.366-.305h-1.342Zm.366 7.56-.305.67h1.403l.427-.426.243-.305-1.768.061Zm.061-6.646.183.67h2.073l-.183-.365-.244-.305h-1.829Zm.244 5.732-.061.365-.122.305h1.829l.244-.366.183-.365h-2.073v.06Zm0-4.757.122.671h2.256l-.244-.67h-2.134Zm.183 3.781-.122.67h2.195l.122-.365.122-.305h-2.317Zm0-2.866.061.67H150L149.878 5l-2.317-.06Zm.061 1.951-.061.671h2.317l.122-.67h-2.378Zm0-.975v.67h2.439V5.915h-2.439ZM164.39 6.83V4.208c0-1.89-.792-2.866-2.317-2.866V.977h5.305v.365l-.671.061c-.061 0-.122 0-.183.061l-.304.122c-.915.427-1.342 1.28-1.342 2.622v7.683h-.366l-9.39-8.902v5.366c0 1.89.793 2.865 2.317 2.865v.366h-5.305v-.366c1.707 0 2.5-.975 2.5-2.865V2.623l-.366-.366-.244-.183-.304-.244-.305-.244-.366-.183-.366-.06-.427-.062h-.061V.977h6.037l6.158 5.853Zm-7.561-5.488h-3.292l.304.183.427.305h3.049l-.488-.488Zm-2.988 9.696-.243.182h1.585l-.244-.365h-.854l-.244.182Zm.976-.488-.061-.305-.061-.305-.122.305-.244.305h.488Zm-.183-8.415.366.305.427.366h2.988l-.732-.67h-3.049Zm1.037.915.731.67h2.988l-.731-.67h-2.988Zm1.036.975.732.671h2.988l-.732-.67h-2.988Zm.976.976.732.67h2.987l-.792-.67h-2.927Zm1.037.915.731.67h2.988l-.793-.67h-2.926Zm1.036.975.732.67h2.988l-.732-.67h-2.988Zm.976.915.731.67h2.988l-.731-.67h-2.988Zm1.036.975.732.671h2.073v-.67h-2.805Zm.976.976.732.67h1.036v-.67h-1.768Zm2.073-8.049c.061-.06.061-.122.122-.183.061-.06.061-.122.122-.122h-1.585l.426.305h.915Zm-1.097 9.025.792.731v-.731h-.792Zm.792-8.171.061-.244.122-.305h-.488l.305.549ZM168.789 13.795v-3.25h-1.214v-.434h2.92v.435h-1.219v3.249h-.487Zm2.194 0V10.11h.734l.872 2.608c.08.243.139.425.175.546.042-.134.108-.331.196-.59l.883-2.564h.655v3.684h-.469V10.71l-1.071 3.084h-.44l-1.065-3.136v3.136h-.47Z" fill="#fff"/></svg>