<svg width="427" height="427" fill="none" xmlns="http://www.w3.org/2000/svg"><path d="M159.006 200.318c37.323.772 67.439 30.888 68.211 68.211l74.903-143.115-143.114 74.904ZM113.701 200.316h29.344c2.574-12.87 8.494-24.453 16.988-33.848l-20.592-20.463c-13.513 14.672-22.908 33.462-25.74 54.311Zm158.044-67.825c-16.474-11.84-36.68-18.79-58.559-18.79-26.383 0-50.321 10.167-68.211 26.77l20.464 20.463c12.612-11.325 29.343-18.275 47.747-18.275a70.6 70.6 0 0 1 28.057 5.791l30.502-15.959Zm-44.659 151.867v29.343c20.849-2.831 39.64-12.226 54.311-25.74l-20.463-20.463a72.049 72.049 0 0 1-33.848 16.86Zm67.825-128.572-15.959 30.373a70.6 70.6 0 0 1 5.792 28.057c0 18.404-6.95 35.135-18.276 47.748l20.464 20.463c16.602-17.889 26.769-41.956 26.769-68.211 0-21.75-6.95-41.956-18.79-58.43Z" fill="#fff"/></svg>