<svg width="427" height="427" fill="none" xmlns="http://www.w3.org/2000/svg"><path fill-rule="evenodd" clip-rule="evenodd" d="M330.652 84.95H96.277v256.466h234.375V84.949Zm-89.106 219.414h-23.072V117.212h23.072v187.152Zm-76.175-.063c5.545-.015 10.04-4.505 10.054-10.095V213.026c0-5.801-4.721-10.528-10.513-10.589l.895.004c5.283 0 9.618-4.27 9.618-9.557v-65.579c-.014-5.59-4.509-10.084-9.998-10.093h-45.522l-.014 187.089h45.48Zm-.573-101.865.114.001-.114-.001Zm-12.363-62.123h-9.47v53.313h9.47v-53.313Zm0 76.222h-9.47v64.614h9.47v-64.614Zm154.603-99.333V304.36l-45.475-.06c-5.545-.014-10.039-4.504-10.053-10.094l.027-134.334c.014-5.59 4.476-10.085 9.971-10.094h22.454v-32.576h23.076ZM274.5 172.64h9.471v108.509H274.5V172.64Zm-66.012-32.328h-23.07V117.21h23.07v23.102Zm0 164.052h-23.07V149.787h23.07v154.577Z" fill="#fff"/></svg>