<svg width="427" height="427" fill="none" xmlns="http://www.w3.org/2000/svg"><path d="M148.426 174.909c0 6.19 3.809 8.73 8.73 10.635l5.397 1.904c3.333 1.27 5.238 2.54 5.238 5.397 0 3.333-3.016 4.921-7.143 4.921-4.286 0-8.413-1.588-11.746-4.286v6.667c2.698 1.904 6.825 3.333 11.746 3.333 7.619 0 13.333-3.81 13.333-10.635 0-5.397-2.698-8.571-8.571-10.952l-6.032-2.222c-3.174-1.111-4.92-2.222-4.92-4.921 0-3.016 2.698-4.444 6.507-4.444 4.286 0 7.778 1.746 10.953 4.127v-6.508c-3.016-1.905-6.826-3.016-10.953-3.016-6.825-.158-12.539 3.492-12.539 10ZM338.107 174.75c0 6.19 3.81 8.73 8.731 10.634l5.396 1.905c3.334 1.27 5.238 2.54 5.238 5.397 0 3.333-3.015 4.92-7.142 4.92-4.286 0-8.413-1.587-11.746-4.285v6.666c2.698 1.905 6.825 3.333 11.746 3.333 7.619 0 13.333-3.809 13.333-10.634 0-5.397-2.699-8.571-8.572-10.952l-6.031-2.222c-3.175-1.112-4.921-2.223-4.921-4.921 0-3.016 2.699-4.444 6.508-4.444 4.286 0 7.778 1.746 10.952 4.127v-6.508c-3.015-1.905-6.825-3.016-10.952-3.016-6.825 0-12.54 3.492-12.54 10ZM300.012 174.751c0 6.19 3.809 8.729 8.73 10.634l5.397 1.905c3.333 1.27 5.238 2.54 5.238 5.397 0 3.333-3.016 4.92-7.143 4.92-4.286 0-8.413-1.587-11.746-4.286v6.667c2.698 1.905 6.825 3.333 11.746 3.333 7.619 0 13.333-3.809 13.333-10.634 0-5.397-2.698-8.572-8.571-10.953l-6.032-2.222c-3.175-1.111-4.921-2.222-4.921-4.92 0-3.016 2.699-4.445 6.508-4.445 4.286 0 7.778 1.746 10.953 4.127v-6.507c-3.016-1.905-6.826-2.858-10.953-2.858-6.825-.158-12.539 3.334-12.539 9.842ZM263.028 165.385v37.301h22.54v-5.714h-16.349v-11.587h14.603v-5.556h-14.603v-9.047h16.349v-5.555h-22.54v.158ZM69.695 186.178h7.936c4.127 0 6.508 2.064 6.508 5.556 0 3.333-2.38 5.555-6.508 5.555h-7.936v-11.111Zm0-15.237h6.825c4.286 0 6.508 1.587 6.508 4.92 0 3.492-2.38 5.079-6.508 5.079h-6.825v-9.999Zm-6.032-5.556v37.301H77.95c7.778 0 12.54-3.651 12.54-10.793 0-3.969-2.54-7.461-6.032-8.572 2.698-.952 4.92-3.968 4.92-7.936 0-6.666-4.92-10.158-12.54-10.158l-13.174.158ZM196.52 165.381h-6.349v37.301h6.349v-37.301ZM127.632 165.381v21.745c0 7.143-3.016 10.476-8.572 10.476-5.555 0-8.571-3.333-8.571-10.476v-21.745h-6.349v22.38c0 10.159 6.031 15.397 14.92 15.397s14.921-5.238 14.921-15.397v-22.38h-6.349ZM240.17 165.385v23.809l-25.714-24.444v37.936h6.191V178.4l25.555 24.92v-37.935h-6.032ZM157.631 233.002c0 6.032 3.809 8.571 8.571 10.476l5.397 1.905c3.333 1.27 5.238 2.381 5.238 5.238 0 3.333-3.016 4.92-7.143 4.92-4.285 0-8.412-1.587-11.746-4.127v6.508c2.699 1.905 6.826 3.333 11.746 3.333 7.461 0 13.175-3.65 13.175-10.317 0-5.396-2.699-8.571-8.413-10.634l-5.873-2.064c-3.016-1.111-4.92-2.063-4.92-4.92 0-3.016 2.698-4.445 6.508-4.445 4.285 0 7.777 1.588 10.793 3.968v-6.349c-3.016-1.904-6.825-3.015-10.952-3.015-6.667-.477-12.381 3.015-12.381 9.523ZM205.569 223.633h-6.349v36.666h6.349v-36.666ZM92.394 223.633h-6.35v36.666h6.35v-36.666ZM230.17 229.195h7.778c7.778 0 11.905 4.92 11.905 12.856 0 7.937-4.127 12.857-11.905 12.857h-7.778v-25.713Zm-6.349-5.556v36.666h14.127c10.953 0 17.937-7.143 17.937-18.412 0-11.111-7.143-18.413-17.937-18.413h-14.127v.159ZM269.218 223.633v36.666h22.381v-5.715h-16.191v-11.269h14.603v-5.397h-14.603v-8.73h16.191v-5.555h-22.381ZM316.679 229.036h7.143c4.127 0 6.508 2.222 6.508 5.714 0 3.333-2.381 5.714-6.508 5.714h-7.143v-11.428Zm-6.349-5.397v36.666h6.349v-14.92h4.445l12.857 14.92h7.143l-13.175-15.238c5.873-.952 8.571-4.444 8.571-10.634 0-7.143-4.92-10.953-12.539-10.953l-13.651.159ZM110.331 260.301h6.032v-23.809l25.397 24.444v-37.301h-6.032v23.491L110.331 223v37.301Z" fill="#fff"/></svg>