<svg width="427" height="427" fill="none" xmlns="http://www.w3.org/2000/svg"><path d="M113.32 314.495c47.482-24.459 117.164-64.127 200-121.883v-19.526c-72.97 47.479-146.968 85.914-200 111.195M113.32 256.376c53.032-21.582 127.03-54.879 200-98.247v-9.66c-68.653 34.119-139.774 55.289-200 68.649M313.112 314.507v-97.63c-45.426 38.435-90.647 71.527-128.468 97.63M159.157 314.498c35.971-21.376 79.548-49.123 123.124-81.803 10.072-7.605 20.555-15.416 31.038-23.432v-12.126c-64.337 48.301-129.907 88.381-181.295 117.361M113.32 202.885c58.582-10.276 130.113-28.775 200-62.072V129.92c-70.503 31.653-141.007 45.012-200 49.74" fill="#fff"/><path d="M113.32 113.494V169.4c4.317-.205 8.839-.616 13.361-.822 48.715-3.7 114.902-12.332 186.639-43.368v-11.716" fill="#fff"/></svg>