<svg width="230" height="130" fill="none" xmlns="http://www.w3.org/2000/svg"><path d="M91.404 85.144h-7.303V53.116h-7.114c-.029-.028-.067-.047-.095-.075v-7.176h29.12v32.131h8.281c.009-.141.047-.32.038-.5-.019-2.04-.067-4.08-.067-6.128 0-3.05.048-6.1.067-9.15 0-.859-.067-1.727-.067-2.587.01-2.927.048-5.844.067-8.771l.028-5.005h38.416v39.28h-7.209c-.01-.218-.038-.435-.038-.662V53.145h-8.319v31.282c0 .207 0 .405-.009.613-.029.028-.048.066-.076.094h-7.114l-.076-.094c0-.208-.009-.406-.009-.614V53.145h-8.319V84.52c0 .207-.019.406-.029.613h-22.86v-31.99h-7.256v31.348c0 .218-.028.435-.047.652h-.01Z" fill="#212121"/></svg>