<svg width="230" height="130" fill="none" xmlns="http://www.w3.org/2000/svg"><path d="M71.567 45.881a14.239 14.239 0 0 1 4.973.525 20.314 20.314 0 0 1 5.126 2.161c1.78 1.05 3.316 2.409 4.666 3.922 1.535 1.698 2.702 3.644 3.53 5.774a19.509 19.509 0 0 1 1.32 5.774 19.414 19.414 0 0 1-1.196 8.368 19.232 19.232 0 0 1-3.347 5.682 19.99 19.99 0 0 1-5.402 4.508 19.413 19.413 0 0 1-6.447 2.285c-1.013.154-2.057.278-3.07.278-2.425 0-4.789-.37-7.06-1.235a19.422 19.422 0 0 1-5.833-3.397c-1.934-1.636-3.53-3.55-4.727-5.805-.89-1.698-1.566-3.49-1.934-5.373-.215-1.204-.307-2.44-.369-3.674 0-.216.092-.34.307-.34h1.812c.276 0 .337.185.337.432.03 1.483.246 2.934.645 4.323.798 2.81 2.21 5.28 4.267 7.411 1.965 2.007 4.267 3.427 6.876 4.354 2.456.864 4.973 1.08 7.552.772 2.486-.278 4.789-1.08 6.938-2.378 1.995-1.235 3.683-2.748 5.065-4.662 1.412-1.946 2.394-4.107 2.885-6.454.645-3.057.492-6.083-.49-9.078-.707-2.161-1.812-4.076-3.255-5.805-.89-1.08-1.964-2.007-3.131-2.84a17.241 17.241 0 0 0-4.88-2.44 14.32 14.32 0 0 0-3.777-.71c-.43 0-.89-.062-1.32-.062-2.947 0-5.771.68-8.35 2.13-.43.248-.46.217-.736-.185-.246-.401-.46-.803-.706-1.204-.215-.34-.185-.494.184-.68 1.258-.679 2.548-1.235 3.93-1.636a14.548 14.548 0 0 1 5.617-.74Z" fill="#212121"/><path d="M71.383 78.363c3.346 0 6.2-1.05 8.626-3.15a11.872 11.872 0 0 0 2.548-2.995c.153-.278.307-.401.614-.185.43.278.92.525 1.381.803.246.123.276.308.123.555-1.566 2.563-3.684 4.54-6.385 5.836a15.342 15.342 0 0 1-5.495 1.513c-4.206.31-7.951-.895-11.144-3.581-2.916-2.44-4.696-5.62-5.249-9.418-.491-3.119 0-6.145 1.35-8.986.645-1.327 1.505-2.532 2.487-3.643a14.727 14.727 0 0 1 5.372-3.798 15.583 15.583 0 0 1 4.728-1.143c2.456-.185 4.82.186 7.091 1.112 2.517 1.019 4.574 2.624 6.232 4.786.368.463.675.926.982 1.42.215.34.154.464-.184.649-.46.247-.921.494-1.381.772-.215.123-.307.092-.43-.124a12.804 12.804 0 0 0-3.684-3.921c-1.596-1.112-3.346-1.853-5.28-2.162-2.18-.37-4.328-.216-6.416.525-1.596.556-3.039 1.42-4.328 2.532-1.689 1.452-2.825 3.242-3.592 5.311-.46 1.205-.675 2.47-.737 3.798-.092 2.1.276 4.107 1.167 6.021a12.498 12.498 0 0 0 1.903 2.965c1.167 1.39 2.579 2.439 4.206 3.242 1.78.864 3.653 1.297 5.495 1.266Z" fill="#212121"/><path d="M67.361 65.58h-3.776c-.337 0-.46.124-.46.464 0 .432.03.833.123 1.235.122.772.798 1.266 1.719 1.327 1.136.093 2.271.124 3.407 0 .553-.061 1.105-.185 1.474-.679.092-.123.215-.154.368-.154h.768c.399 0 .49.123.306.525-.46 1.019-1.32 1.482-2.363 1.636-1.29.185-2.579.093-3.868.062a3.934 3.934 0 0 1-1.566-.309c-1.074-.463-1.596-1.328-1.719-2.47-.153-1.359-.153-2.686.092-4.045.184-1.02 1.197-2.007 2.241-2.13 1.566-.217 3.1-.186 4.666-.062 1.075.061 1.934.494 2.487 1.482.153.278.276.555.307.864.092.556.123 1.143.153 1.73 0 .493-.03.524-.522.524H67.361Zm-.706-1.358h3.162c.154 0 .4.062.338-.185-.062-.433-.154-.896-.522-1.236-.4-.34-.86-.401-1.32-.463-1.105-.154-2.21-.123-3.285 0-1.074.124-1.627.587-1.811 1.513-.061.309 0 .402.307.402h3.131v-.031ZM174.221 69.933c-1.167 0-2.302 0-3.408-.123-1.228-.155-1.872-.803-1.995-2.008-.153-1.698-.184-3.396.092-5.094.154-.896.829-1.42 1.903-1.544 1.566-.186 3.162-.216 4.728-.155.645 0 1.289.062 1.934.216.767.186 1.289.742 1.412 1.544.031.34.092.649.061.989 0 .216-.122.34-.337.34h-.154c-.798 0-.89.092-.859-.804 0-.494-.154-.648-.645-.833-.553-.186-1.105-.186-1.658-.216-.921-.062-1.842-.093-2.763 0-.429.061-.859.061-1.289.092-.706.093-.982.309-1.074.988-.154 1.174-.092 2.347-.062 3.52 0 .186 0 .37.031.556.061.741.399 1.112 1.136 1.143 1.719.123 3.469.092 5.188 0 .921-.062 1.197-.34 1.197-1.297 0-.525.031-.556.553-.556.798 0 .767 0 .798.772 0 .309-.031.587-.092.895-.123.741-.584 1.174-1.29 1.328-1.136.278-2.333.154-3.438.185l.031.062ZM101.866 69.934c-1.228 0-2.395 0-3.561-.123-1.259-.155-1.72-.834-1.873-1.884-.245-1.637-.184-3.273 0-4.879.123-1.142.829-1.76 2.057-1.914a32.458 32.458 0 0 1 4.574-.124c.675 0 1.381.062 2.057.216.798.186 1.32.803 1.412 1.637 0 .309.061.587.061.895 0 .278-.123.402-.399.371h-.031c-.552 0-.859-.257-.92-.772-.062-.525-.246-.741-.737-.865-.553-.154-1.105-.154-1.689-.185-1.228-.093-2.455-.03-3.683.093-1.167.123-1.259.216-1.412 1.575-.123 1.235-.031 2.47.06 3.674.062.618.43.957 1.106.988 1.719.124 3.469.093 5.188 0 .184 0 .399-.062.583-.123.522-.155.553-.618.614-1.05 0-.216-.123-.525.184-.618.307-.123.676-.092 1.013 0 .093 0 .154.124.154.185 0 .865.092 1.73-.645 2.409-.399.37-.921.401-1.412.463-.921.124-1.872.062-2.732.062l.031-.031ZM155.188 65.427v-3.953c0-.432.062-.494.491-.494.553 0 .829.268.829.803v2.501c0 .37.123.463.461.463.614.031 1.135-.123 1.688-.494 1.504-1.05 3.039-2.038 4.543-3.057.246-.185.522-.247.829-.247h1.32c.123 0 .246 0 .276.124.062.154-.092.216-.184.278-1.074.71-2.149 1.39-3.192 2.1-.86.555-1.719 1.142-2.579 1.698-.246.154-.276.247 0 .432.86.525 1.688 1.111 2.517 1.667 1.197.772 2.364 1.544 3.561 2.316.092.062.246.124.215.278-.031.185-.215.124-.338.124h-1.504c-.215 0-.368-.093-.552-.186-1.75-1.173-3.5-2.316-5.25-3.489-.522-.37-1.074-.247-1.627-.216-.215 0-.184.216-.184.37v2.934c0 .587 0 .587-.583.587-.491 0-.737-.247-.737-.741V65.427ZM112.242 66.786V64.16c0-.463.061-.525.491-.525.307 0 .675-.123.706.402 0 .123.153.062.215 0 .43-.37.921-.402 1.443-.463.798-.062 1.596-.031 2.394.092.491.062.921.247 1.259.618.092.123.214.154.337 0 .522-.68 1.32-.68 2.057-.741.829-.062 1.627 0 2.456.123.767.155 1.473.803 1.565 1.699.123 1.39 0 2.779.062 4.168 0 .216-.123.309-.338.34-.798.062-.859 0-.859-.741v-2.841c-.031-1.235-.246-1.544-1.627-1.637-.461 0-.921-.03-1.412 0-1.075.093-1.505.433-1.597 1.513-.092 1.081 0 2.131-.061 3.212 0 .494-.031.494-.614.494-.522 0-.583 0-.583-.525v-3.242c-.031-1.174-.246-1.266-1.228-1.42-.737-.124-1.504-.093-2.241 0-.768.123-1.075.524-1.167 1.296-.123 1.08-.03 2.162-.061 3.242 0 .649 0 .649-.583.649-.614 0-.614 0-.614-.68v-2.47.062ZM133.393 67.465v2.007c0 .216 0 .463-.277.463-.276 0-.706.216-.829-.278-.03-.154-.092-.216-.214-.092-.461.463-1.106.432-1.658.463-1.013.03-2.057.062-3.07-.062-1.136-.123-1.627-.864-1.566-2.007.031-.587.154-1.173.737-1.544.246-.154.522-.185.768-.216 1.412-.123 2.824-.154 4.205.03.215 0 .369.094.553.217.061.03.123.154.215.093.092-.062.061-.155.061-.247 0-1.05-.522-1.544-1.535-1.606-.921-.03-1.842-.062-2.732.062-.491.061-.614.185-.706.68-.031.184-.123.277-.307.277h-.031c-.276-.03-.644.154-.859-.154-.184-.247 0-.927.215-1.205.429-.556 1.074-.648 1.719-.71 1.074-.123 2.149-.093 3.223 0 .86.093 1.627.309 1.995 1.173.093.217.154.464.154.71v1.915l-.061.031Zm-4.053-.278c-.521 0-1.105-.062-1.688.062-.399.062-.645.37-.645.803 0 .401.215.648.614.74.522.124 1.013.032 1.535.093.829.093 1.658 0 2.487-.154.215-.03.368-.154.46-.37.215-.587-.061-.989-.767-1.112-.645-.093-1.259-.062-1.965-.062h-.031ZM145.549 67.126h-2.886c-.429 0-.522.124-.429.525.184.834.399 1.05 1.258 1.174 1.136.154 2.303.185 3.438 0 .369-.062.645-.248.706-.649.062-.216.185-.309.399-.278h.154c.767 0 .89.216.583.927-.307.679-.89.987-1.565 1.08-1.443.216-2.917.185-4.359-.03-.891-.124-1.505-.65-1.72-1.514-.276-1.08-.307-2.161.062-3.242.337-1.019 1.166-1.358 2.149-1.451 1.043-.093 2.118-.062 3.162 0 1.289.093 2.302.864 2.363 2.254 0 .216.062.432.062.648 0 .556 0 .587-.553.587h-2.824v-.03Zm-.614-1.019h2.302c.307 0 .399-.092.338-.37-.092-.463-.46-.865-1.105-.927-1.044-.154-2.118-.123-3.193 0-.522.062-.859.37-1.013.896-.092.309-.03.432.307.432h2.303l.061-.03ZM75.803 65.335v-2.44c0-.37-.194-.555-.583-.555h-.706c-.215 0-.338-.124-.338-.34v-.03c-.04-.639.256-.958.89-.958.768 0 .737.062.737-.71v-1.05c0-.247.092-.37.368-.401.952-.062.952-.062.952.895v.865c0 .278.123.401.4.401h3.376c.553 0 .583 0 .583.587 0 .494-.245.74-.736.74h-3.162c-.338 0-.46.093-.46.433v4.817c0 .648.398 1.019 1.043 1.05h2.824c.43 0 .491.062.491.494 0 .556-.266.834-.798.834h-2.486c-1.259.061-2.518-1.112-2.395-2.409.062-.74 0-1.482 0-2.223ZM138.243 64.685h-1.689c-.276 0-.399.092-.399.401v2.872c0 .463.185.71.614.864.614.186 1.259.155 1.904.062.337-.062.583-.278.583-.71 0-.278.061-.525.061-.803 0-.247.092-.37.338-.37.798-.062.952.061.829.864-.092.618-.092 1.235-.645 1.668-.399.34-.89.4-1.381.463a6.234 6.234 0 0 1-2.272-.124c-.829-.216-1.228-.803-1.259-1.667v-3.026c0-.34-.092-.494-.46-.463h-.614c-.43 0-.399-.278-.399-.556s.031-.525.399-.494h.767c.185 0 .307-.093.307-.309v-.772c0-.278.093-.401.4-.401.767 0 .798 0 .798.74 0 .803-.062.742.736.742h2.978c.43 0 .491.062.491.525 0 .432-.061.494-.46.525h-1.658l.031-.031ZM167.774 65.488v3.953c0 .34-.123.494-.46.494-1.044 0-.952.092-.952-.927v-7.472c0-.556 0-.587.583-.587.553 0 .829.278.829.834v3.705ZM73.808 65.458v3.952c0 .463-.031.525-.491.525-.553 0-.83-.278-.83-.834v-7.534c0-.556 0-.587.584-.587.491 0 .737.248.737.742v3.736ZM107.668 65.427v-3.953c0-.494.03-.525.614-.525.521 0 .583.031.583.525v7.936c0 .432-.062.494-.491.494h-.307c-.307 0-.399-.124-.399-.432v-4.076.03ZM109.878 66.786V64.1c0-.34.123-.494.46-.463h.369c.276 0 .368.123.368.401v5.558c0 .247-.123.34-.368.37-.798.062-.829 0-.829-.771v-2.408ZM152.026 67.402h-2.241c-.307 0-.43-.124-.43-.432 0-.896 0-.896.86-.896h3.991c.491 0 .522.031.522.525 0 .535-.266.803-.799.803h-1.903ZM73.808 59.53c0 .432-.236.648-.706.648-.471 0-.686-.236-.645-.71.041-.473.276-.68.706-.618.43.062.635.289.614.68h.03ZM111.075 61.658v.34c0 .278-.092.401-.399.401-.798.03-.798 0-.798-.772 0-.587.491-.895 1.013-.617.276.154.123.432.184.648Z" fill="#212121"/></svg>