<svg width="230" height="130" fill="none" xmlns="http://www.w3.org/2000/svg"><g clip-path="url('#clip0_1019_46675')"><path d="M94.086 48.179V40.63h3.707l-.057.75h-2.69v2.784h2.479v.75h-2.478v3.245h-.96v.02Zm7.991-3.477c0 .23 0 .423-.019.576-.02.173-.039.308-.039.423h-2.67c.039.614.154 1.075.404 1.364.23.288.576.441 1.018.441.153 0 .288-.019.422-.057.116-.039.231-.077.327-.135.096-.057.173-.096.23-.153.058-.058.116-.096.135-.116l.326.615a1.53 1.53 0 0 1-.173.154c-.076.077-.172.134-.288.211a1.285 1.285 0 0 1-.461.173c-.173.058-.403.077-.653.077-.326 0-.634-.058-.883-.173a1.765 1.765 0 0 1-.673-.5c-.192-.23-.326-.518-.422-.883a4.872 4.872 0 0 1-.154-1.268c0-.46.058-.864.154-1.21.115-.346.25-.615.422-.845.173-.211.385-.384.634-.48.25-.115.5-.154.769-.154.499 0 .902.154 1.171.48.269.365.423.826.423 1.46Zm-1.671-1.172c-.308 0-.557.135-.75.384-.191.27-.307.634-.326 1.134h1.921c0-.039.019-.096.019-.154v-.23c0-.365-.077-.653-.211-.846-.154-.192-.365-.288-.653-.288Zm2.612 2.113c0-.538.077-.98.211-1.325.135-.365.327-.653.538-.864.211-.212.461-.365.749-.461.269-.096.557-.135.826-.135.173 0 .308.02.442.039.115.019.231.057.307.096v-2.517l.884-.096v7.837h-.807v-.557h-.019a1.344 1.344 0 0 1-.115.173.998.998 0 0 1-.25.23 1.518 1.518 0 0 1-.922.269c-.25 0-.48-.057-.711-.153a1.345 1.345 0 0 1-.576-.461c-.173-.212-.307-.5-.403-.826-.116-.365-.154-.769-.154-1.249Zm2.075 1.883c.134 0 .268-.02.364-.058.116-.038.212-.077.289-.134.076-.058.153-.116.211-.173.058-.058.096-.116.134-.154v-3.246a.996.996 0 0 0-.288-.135 1.193 1.193 0 0 0-.403-.057c-.211 0-.404.038-.576.096a1.32 1.32 0 0 0-.461.346c-.135.153-.231.364-.308.614a3.31 3.31 0 0 0-.115.941c0 .365.038.673.096.922.058.25.154.442.25.596.115.153.23.25.365.326.134.096.288.116.442.116Zm6.588-2.824c0 .23 0 .423-.019.576-.02.173-.039.308-.039.423h-2.67c.039.614.154 1.075.404 1.364.23.288.576.441 1.018.441.153 0 .288-.019.422-.057.116-.039.231-.077.327-.135.096-.057.173-.096.23-.153.058-.058.116-.096.135-.116l.326.615a1.53 1.53 0 0 1-.173.154c-.076.077-.172.134-.288.211a1.285 1.285 0 0 1-.461.173c-.173.058-.403.077-.653.077a2.13 2.13 0 0 1-.883-.173 1.768 1.768 0 0 1-.673-.5c-.192-.23-.326-.518-.422-.883a4.87 4.87 0 0 1-.154-1.268c0-.46.058-.864.154-1.21a2.91 2.91 0 0 1 .422-.845c.173-.211.385-.384.634-.48.25-.115.5-.154.769-.154.499 0 .902.154 1.171.48.288.365.423.826.423 1.46Zm-1.652-1.172c-.307 0-.557.135-.749.384-.192.27-.307.634-.327 1.134h1.921c0-.039.019-.096.019-.154v-.23c0-.365-.076-.653-.211-.846a.832.832 0 0 0-.653-.288Zm5.148.192a.456.456 0 0 0-.135-.057 1.165 1.165 0 0 0-.288-.039c-.269 0-.499.077-.653.23-.154.155-.269.308-.326.481v3.842h-.884v-5.244h.807v.71h.019c.038-.095.077-.21.134-.307.058-.096.135-.192.212-.269a.975.975 0 0 1 .307-.172 1.406 1.406 0 0 1 .73-.02c.077.02.134.039.173.058l-.096.787Zm.518 3.131c0-.307.058-.557.173-.768.115-.211.269-.365.461-.5.192-.134.423-.21.692-.268.269-.058.557-.077.845-.077h.269v-.5c0-.441-.077-.749-.231-.922-.153-.172-.384-.25-.653-.25s-.48.058-.653.174a4.848 4.848 0 0 0-.422.307l-.365-.596c.057-.057.134-.115.23-.192.096-.076.211-.134.327-.21.134-.058.288-.116.441-.174.173-.038.365-.057.577-.057.537 0 .941.153 1.229.441.269.308.423.788.423 1.441v2.401c0 .23 0 .442.019.653.019.211.038.365.038.423h-.845l-.038-.577h-.02c-.038.058-.076.135-.134.231-.058.077-.135.154-.211.23a.883.883 0 0 1-.327.173c-.115.058-.269.077-.442.077-.192 0-.384-.038-.557-.115a1.21 1.21 0 0 1-.441-.307 1.168 1.168 0 0 1-.289-.461 1.413 1.413 0 0 1-.096-.577Zm1.575.711c.116 0 .231-.02.327-.058.096-.038.173-.076.25-.134a.762.762 0 0 0 .173-.173c.038-.057.096-.115.134-.154v-1.152l-.288.02c-.423.018-.749.095-.961.21-.211.135-.326.346-.326.634 0 .27.058.48.192.615.115.134.288.192.499.192Zm3.957-.595c0 .21.039.365.096.46.058.097.173.135.327.135.077 0 .154 0 .211-.02.058-.018.096-.038.135-.038l.076.654a1.503 1.503 0 0 1-.71.154c-.308 0-.538-.097-.73-.27-.173-.173-.269-.5-.269-.98v-6.588l.883-.096v6.589h-.019Zm10.411-6.32v7.549h-.922V43.319c0-.192 0-.365.019-.5 0-.153.019-.249.019-.345h-.038c-.038.173-.115.442-.23.807-.116.384-.25.787-.385 1.21l-1.248 3.688h-.749l-1.249-3.688c-.153-.423-.269-.826-.384-1.21a20.593 20.593 0 0 1-.23-.807h-.039c0 .096.019.211.019.346 0 .153.02.307.02.5v4.878h-.922v-7.549h1.056l1.786 5.206c.077.25.154.48.212.71.057.23.096.423.115.596h.019c0-.173.039-.365.096-.596.058-.23.135-.46.211-.691l1.787-5.225h1.037Zm2.439 7.53h-.883v-5.244h.883v5.244Zm-.441-6.512a.608.608 0 0 1-.442-.173.624.624 0 0 1-.173-.46.61.61 0 0 1 .173-.442.579.579 0 0 1 .442-.173c.173 0 .326.057.422.173a.61.61 0 0 1 .173.441.624.624 0 0 1-.173.461.563.563 0 0 1-.422.173Zm4.648 6.512v-3.362c0-.441-.077-.768-.23-.96-.154-.192-.385-.288-.692-.288-.269 0-.48.057-.653.192-.173.134-.307.25-.423.384v4.053h-.883v-5.244h.807v.596h.019c.019-.039.077-.116.134-.192.077-.077.173-.173.288-.25.116-.077.25-.135.423-.211a1.58 1.58 0 0 1 .538-.096c.23 0 .442.038.634.096.192.076.345.172.48.326.134.154.23.346.307.596.077.25.115.537.115.902v3.439h-.864v.019Zm3.112 0h-.884v-5.244h.884v5.244Zm-.442-6.512a.608.608 0 0 1-.442-.173.624.624 0 0 1-.173-.46.61.61 0 0 1 .173-.442.579.579 0 0 1 .442-.173c.173 0 .326.057.423.173a.609.609 0 0 1 .172.441.623.623 0 0 1-.172.461.567.567 0 0 1-.423.173Zm4.053 2.324a3.472 3.472 0 0 0-.327-.269c-.153-.115-.345-.172-.595-.172-.231 0-.404.057-.538.172-.115.116-.192.25-.192.385a.67.67 0 0 0 .173.48c.115.134.288.269.518.403l.327.192c.365.212.634.442.845.692.211.25.307.557.307.941 0 .422-.134.768-.422 1.056-.288.288-.711.423-1.249.423-.211 0-.403-.02-.557-.058a2.167 2.167 0 0 1-.422-.153 1.639 1.639 0 0 1-.308-.192c-.076-.077-.153-.135-.192-.192l.423-.692.154.154c.057.057.134.115.23.173.096.057.192.096.288.134.115.038.231.058.384.058.269 0 .461-.058.596-.173a.538.538 0 0 0 .211-.423.885.885 0 0 0-.058-.326.668.668 0 0 0-.153-.25c-.058-.077-.154-.135-.25-.211a8.814 8.814 0 0 1-.326-.212l-.327-.21a3.365 3.365 0 0 1-.768-.673c-.192-.23-.288-.538-.288-.903a1.225 1.225 0 0 1 .441-.96c.135-.116.308-.212.481-.288a1.55 1.55 0 0 1 .595-.096c.211 0 .384.019.519.057.153.039.269.096.384.154a.97.97 0 0 1 .269.192c.077.057.134.115.173.154l-.346.633Zm3.803-.326h-1.152v2.9c0 .365.038.634.134.769.096.134.25.21.48.21a.93.93 0 0 0 .346-.057c.096-.038.173-.077.211-.096l.115.71c-.038.04-.115.078-.268.135a1.455 1.455 0 0 1-.557.096c-.461 0-.788-.134-1.019-.384-.23-.25-.345-.672-.345-1.248v-3.035h-.634v-.596l.634-.134.096-1.46h.787v1.46h1.249l-.077.73Zm3.323.057c-.019-.019-.077-.038-.134-.057a1.167 1.167 0 0 0-.289-.039c-.268 0-.499.077-.653.23-.153.155-.269.308-.326.481v3.842h-.884v-5.244h.807v.71h.019c.039-.095.077-.21.135-.307.057-.096.134-.192.211-.269a.803.803 0 0 1 .307-.172 1.41 1.41 0 0 1 .73-.02c.077.02.135.039.173.058l-.096.787Zm4.36-.787-1.632 5.551c-.193.634-.423 1.133-.692 1.46-.269.326-.672.5-1.191.5-.115 0-.192-.02-.269-.04a.636.636 0 0 1-.153-.057v-.768c.038.02.076.038.134.057.058.02.134.02.231.02.307 0 .557-.096.71-.288.154-.192.308-.5.423-.903l.077-.27-1.691-5.243h.961l.826 2.9c.077.308.153.577.211.846.058.25.115.5.115.691h.019c.02-.211.058-.442.096-.691.058-.25.116-.538.212-.826l.749-2.92h.864v-.02ZM96.103 54.69h-1.075v4.533h-.884V54.69h-.615v-.595l.634-.115v-1.057c0-.288.039-.538.115-.73.077-.211.192-.365.327-.5.134-.134.288-.23.46-.287.174-.058.366-.096.558-.096.192 0 .346.019.48.076.135.058.212.096.27.116l-.193.73c-.038-.039-.115-.058-.192-.096a.641.641 0 0 0-.288-.058c-.212 0-.365.058-.48.192-.116.134-.173.365-.173.73v.941h1.171l-.115.75Zm.538 1.902c0-.48.058-.903.173-1.249.115-.345.269-.634.46-.864.193-.23.423-.384.673-.5a1.89 1.89 0 0 1 .807-.153c.288 0 .557.057.807.154.25.115.461.269.653.499.173.23.326.5.422.864.116.346.154.769.154 1.249 0 .48-.058.903-.173 1.248a2.635 2.635 0 0 1-.461.865c-.192.23-.422.384-.672.48-.25.096-.519.154-.807.154-.288 0-.557-.058-.807-.154s-.46-.269-.653-.48a2.49 2.49 0 0 1-.422-.845 4.762 4.762 0 0 1-.154-1.268Zm3.227 0c0-.692-.096-1.21-.307-1.518-.212-.326-.48-.48-.846-.48a.922.922 0 0 0-.845.48c-.192.327-.307.826-.307 1.518 0 .691.096 1.21.307 1.517.212.308.48.461.846.461a.942.942 0 0 0 .845-.46c.21-.308.307-.827.307-1.518Zm4.341-1.844c-.019-.02-.077-.038-.134-.058a1.167 1.167 0 0 0-.289-.038c-.269 0-.499.077-.653.23-.153.154-.269.308-.326.48v3.842h-.884V53.96h.807v.711h.019c.039-.096.077-.211.135-.307.057-.096.134-.192.211-.27a.975.975 0 0 1 .307-.172 1.406 1.406 0 0 1 .73-.02c.077.02.135.04.173.058l-.096.788Zm6.78-2.324H108.3v2.612h2.478v.75H108.3v2.65h2.958l-.057.787h-3.861v-7.548h3.707l-.058.749Zm4.188 2.554-.096-.096a1.447 1.447 0 0 0-.173-.134c-.077-.038-.154-.077-.269-.115a.93.93 0 0 0-.346-.058 1.67 1.67 0 0 0-.538.096 1.004 1.004 0 0 0-.422.327 1.898 1.898 0 0 0-.288.595c-.077.25-.096.538-.096.884 0 .384.038.71.096.98.057.268.153.48.249.633.116.154.25.269.404.346.153.077.326.096.518.096.269 0 .481-.039.615-.135s.25-.172.307-.23l.365.615-.153.153c-.077.058-.154.115-.269.173-.116.058-.25.115-.404.154a2.299 2.299 0 0 1-.537.057c-.289 0-.558-.038-.826-.134a1.758 1.758 0 0 1-.673-.461 2.077 2.077 0 0 1-.441-.845c-.116-.346-.173-.788-.173-1.306 0-.5.057-.922.192-1.287.134-.346.307-.634.518-.846a1.9 1.9 0 0 1 .711-.46 2.214 2.214 0 0 1 1.306-.096c.154.038.269.076.384.134.116.058.192.115.269.173.077.057.135.115.173.153l-.403.634Zm.979 1.614c0-.48.058-.903.173-1.249.115-.345.269-.634.461-.864.192-.23.423-.384.673-.5.249-.115.518-.153.806-.153.288 0 .557.057.807.154a1.8 1.8 0 0 1 .653.499c.173.23.327.5.423.864.115.346.153.769.153 1.249 0 .48-.057.903-.173 1.248a2.616 2.616 0 0 1-.461.865c-.192.23-.422.384-.672.48a2.23 2.23 0 0 1-.807.154c-.288 0-.557-.058-.806-.154-.25-.096-.461-.269-.653-.48-.173-.23-.327-.5-.423-.845a4.765 4.765 0 0 1-.154-1.268Zm3.227 0c0-.692-.096-1.21-.307-1.518-.211-.326-.48-.48-.845-.48a.922.922 0 0 0-.845.48c-.192.327-.308.826-.308 1.518 0 .691.096 1.21.308 1.517.211.308.48.461.845.461a.942.942 0 0 0 .845-.46c.211-.308.307-.827.307-1.518Zm4.898 2.631v-3.38c0-.442-.076-.769-.23-.96-.154-.193-.384-.289-.692-.289-.269 0-.48.058-.653.192-.173.135-.307.25-.422.384v4.053h-.884V53.98h.807v.595h.019c.019-.038.077-.115.135-.192.076-.077.172-.173.288-.25.115-.077.249-.134.422-.211a1.58 1.58 0 0 1 .538-.096c.231 0 .442.038.634.096.192.077.346.173.48.327.135.153.231.345.307.595.077.25.116.538.116.903v3.476h-.865Zm1.979-2.631c0-.48.057-.903.173-1.249.115-.345.269-.634.461-.864.192-.23.422-.384.672-.5.25-.115.519-.153.807-.153.288 0 .557.057.806.154a1.8 1.8 0 0 1 .653.499c.173.23.327.5.423.864.115.346.154.769.154 1.249 0 .48-.058.903-.173 1.248a2.635 2.635 0 0 1-.461.865 1.62 1.62 0 0 1-.672.48c-.25.096-.519.154-.807.154-.288 0-.557-.058-.807-.154s-.461-.269-.653-.48c-.173-.23-.327-.5-.423-.845-.115-.346-.153-.769-.153-1.268Zm3.227 0c0-.692-.096-1.21-.308-1.518-.211-.326-.48-.48-.845-.48a.922.922 0 0 0-.845.48c-.192.327-.307.826-.307 1.518 0 .691.096 1.21.307 1.517.211.308.48.461.845.461a.942.942 0 0 0 .845-.46c.192-.308.308-.827.308-1.518Zm4.783 2.631v-3.38c0-.423-.058-.75-.193-.922-.115-.192-.326-.288-.595-.288-.154 0-.269.019-.384.057a1.495 1.495 0 0 0-.307.135 1.184 1.184 0 0 0-.231.173l-.173.172v4.053h-.883V53.98h.806v.595h.02c.038-.058.096-.135.172-.211.077-.077.173-.173.269-.25.116-.077.231-.134.384-.192a1.37 1.37 0 0 1 .5-.077c.595 0 1.018.23 1.268.692.057-.077.115-.154.211-.23.096-.078.192-.155.307-.231.115-.077.25-.135.384-.173.154-.039.308-.058.481-.058 1.056 0 1.594.615 1.594 1.863v3.515h-.884v-3.38c0-.423-.077-.75-.23-.922-.154-.192-.384-.288-.672-.288-.25 0-.461.057-.615.172-.173.116-.288.231-.384.346.019.077.019.173.038.25 0 .096.019.192.019.288v3.534h-.902Zm5.858 0h-.884V53.98h.884v5.243Zm-.442-6.53a.61.61 0 0 1-.442-.173.623.623 0 0 1-.172-.461c0-.173.057-.327.172-.442a.58.58 0 0 1 .442-.173c.173 0 .327.058.423.173a.61.61 0 0 1 .173.442.624.624 0 0 1-.173.46.565.565 0 0 1-.423.174Zm4.706 2.285-.096-.096a1.302 1.302 0 0 0-.173-.134c-.077-.038-.153-.077-.269-.115a.928.928 0 0 0-.345-.058 1.67 1.67 0 0 0-.538.096 1.007 1.007 0 0 0-.423.327 1.92 1.92 0 0 0-.288.595c-.077.25-.096.538-.096.884 0 .384.038.71.096.98.058.268.154.48.25.633.115.154.249.269.403.346.154.077.327.096.519.096.269 0 .48-.039.614-.135.135-.096.25-.172.308-.23l.365.615-.154.153c-.077.058-.154.115-.269.173-.115.058-.25.115-.403.154a2.314 2.314 0 0 1-.538.057c-.288 0-.557-.038-.826-.134-.25-.096-.48-.25-.672-.461a2.078 2.078 0 0 1-.442-.845c-.115-.346-.173-.788-.173-1.306 0-.5.058-.922.192-1.287.135-.346.307-.634.519-.846.211-.21.442-.364.71-.46a2.214 2.214 0 0 1 1.307-.096c.153.038.268.076.384.134.115.058.192.115.269.173.076.057.134.115.173.153l-.404.634Zm8.452 4.245h-1.057l-.672-2.42h-2.286l-.691 2.42h-.961l2.459-7.548h.749l2.459 7.548Zm-1.921-3.15L150.327 54c-.076-.27-.153-.538-.211-.788a3.033 3.033 0 0 1-.096-.634h-.019c0 .173-.039.365-.096.615-.058.25-.135.5-.211.788l-.615 2.093h1.844Zm4.879-1.383h-1.076v4.533h-.883V54.69h-.634v-.595l.634-.115v-1.057c0-.288.038-.538.115-.73.077-.211.192-.365.326-.5a1.17 1.17 0 0 1 .461-.287c.173-.058.365-.096.557-.096.192 0 .346.019.481.076.134.058.211.096.268.116l-.192.73c-.038-.039-.115-.058-.192-.096a.642.642 0 0 0-.288-.058c-.211 0-.365.058-.48.192-.115.134-.173.365-.173.73v.941h1.172l-.096.75Zm3.092 0h-1.075v4.533h-.884V54.69h-.634v-.595l.634-.115v-1.057c0-.288.038-.538.115-.73.077-.211.192-.365.327-.5.134-.134.288-.23.461-.287.173-.058.365-.096.557-.096.192 0 .346.019.48.076.134.058.211.096.269.116l-.192.73c-.039-.039-.115-.058-.192-.096a.642.642 0 0 0-.288-.058c-.212 0-.365.058-.481.192-.115.134-.172.365-.172.73v.941h1.171l-.096.75Zm.5 3.189c0-.307.057-.557.173-.768.115-.212.268-.365.461-.5.192-.134.422-.211.691-.269.269-.057.557-.077.845-.077h.269v-.5c0-.44-.077-.748-.23-.921-.154-.173-.385-.25-.654-.25-.268 0-.48.058-.653.173a5.007 5.007 0 0 0-.422.307l-.365-.595c.058-.058.134-.115.23-.192s.212-.135.327-.211c.134-.058.288-.116.442-.173.173-.039.365-.058.576-.058.538 0 .941.154 1.229.442.269.307.423.787.423 1.44v2.402c0 .23 0 .441.019.653.019.21.038.365.038.422h-.845l-.038-.576c-.039.057-.077.134-.135.23a2.207 2.207 0 0 1-.211.23.888.888 0 0 1-.326.174 1.015 1.015 0 0 1-.442.077c-.192 0-.384-.039-.557-.116a1.215 1.215 0 0 1-.442-.307 1.176 1.176 0 0 1-.288-.461 1.4 1.4 0 0 1-.115-.576Zm1.594.71c.115 0 .23-.019.326-.057.096-.039.173-.077.25-.135a.723.723 0 0 0 .173-.172c.038-.058.096-.116.134-.154v-1.153l-.288.02c-.422.019-.749.096-.96.21-.211.135-.327.347-.327.635 0 .269.058.48.192.614.116.135.269.193.5.193Zm3.976.634h-.884V53.98h.884v5.243Zm-.442-6.53a.61.61 0 0 1-.442-.173.623.623 0 0 1-.172-.461c0-.173.057-.327.172-.442a.58.58 0 0 1 .442-.173c.173 0 .327.058.423.173a.61.61 0 0 1 .173.442.624.624 0 0 1-.173.46.565.565 0 0 1-.423.174Zm4.091 2.055a.45.45 0 0 0-.134-.058 1.165 1.165 0 0 0-.288-.038c-.269 0-.5.077-.653.23-.154.154-.269.308-.327.48v3.842h-.883V53.96h.806v.711h.02c.038-.096.077-.211.134-.307.058-.096.135-.192.211-.27a.98.98 0 0 1 .308-.172 1.404 1.404 0 0 1 .903.038l-.097.788Zm3.093.288a3.488 3.488 0 0 0-.327-.269c-.153-.115-.345-.173-.595-.173-.231 0-.403.058-.538.173-.115.115-.192.25-.192.384a.67.67 0 0 0 .173.48c.115.135.288.27.519.404l.326.192c.365.211.634.442.845.691.212.25.308.557.308.942 0 .422-.135.768-.423 1.056-.288.288-.711.423-1.249.423-.211 0-.403-.02-.557-.058a2.173 2.173 0 0 1-.422-.154 1.658 1.658 0 0 1-.307-.192c-.077-.077-.154-.134-.193-.192l.423-.691.154.153c.057.058.134.116.23.173.096.058.192.096.288.135.116.038.231.057.384.057.269 0 .461-.057.596-.173a.538.538 0 0 0 .211-.422.906.906 0 0 0-.057-.327.683.683 0 0 0-.154-.25c-.058-.076-.154-.134-.25-.21-.096-.058-.211-.135-.326-.212l-.327-.211a3.386 3.386 0 0 1-.768-.673c-.192-.23-.288-.537-.288-.902a1.225 1.225 0 0 1 .442-.96 1.98 1.98 0 0 1 .48-.289 1.55 1.55 0 0 1 .595-.096c.211 0 .384.02.519.058.153.038.269.096.384.153a.969.969 0 0 1 .269.193c.077.057.134.115.173.153l-.346.634Zm-78.1 13.868c0-.307.058-.557.173-.768.115-.211.269-.365.461-.5.192-.134.423-.21.692-.268.268-.058.556-.077.845-.077h.269v-.5c0-.441-.077-.749-.23-.922-.155-.173-.385-.25-.654-.25s-.48.058-.653.174a4.93 4.93 0 0 0-.423.307l-.365-.596c.058-.057.135-.115.23-.192.097-.076.212-.134.327-.211.116-.077.288-.115.442-.173.173-.038.365-.057.576-.057.538 0 .942.153 1.23.441.269.308.422.788.422 1.44v2.402c0 .23 0 .442.02.653.019.211.038.365.038.422h-.845l-.039-.576h-.019c-.038.058-.077.135-.134.23a2.291 2.291 0 0 1-.212.231.885.885 0 0 1-.326.173c-.115.058-.269.077-.442.077-.192 0-.384-.038-.557-.115a1.218 1.218 0 0 1-.442-.308 1.166 1.166 0 0 1-.288-.46c-.077-.173-.096-.365-.096-.577Zm1.575.71c.115 0 .23-.018.327-.057.096-.038.173-.077.25-.134a.73.73 0 0 0 .172-.173c.039-.058.096-.115.135-.154v-1.152l-.288.019c-.423.02-.75.096-.96.211-.212.135-.327.346-.327.634 0 .27.057.48.192.615.115.134.288.192.5.192Zm5.955.635v-3.38c0-.443-.077-.77-.231-.961-.153-.192-.384-.288-.691-.288-.27 0-.48.057-.653.192-.173.134-.308.25-.423.384v4.053h-.884v-5.244h.807v.595h.02c.019-.038.076-.115.134-.192.077-.076.173-.172.288-.25.115-.076.25-.134.423-.21.153-.058.345-.097.537-.097.231 0 .442.039.634.096.192.077.346.173.48.327.135.153.231.346.308.595.077.25.115.538.115.903v3.438h-.864v.039Zm1.959-2.555c0-.538.077-.98.211-1.325.135-.365.327-.653.538-.865.211-.21.461-.365.749-.46.269-.097.557-.135.826-.135.173 0 .307.02.442.038.115.02.23.058.307.096v-2.516l.884-.096v7.837h-.807v-.557h-.019a1.337 1.337 0 0 1-.115.173.996.996 0 0 1-.25.23 1.44 1.44 0 0 1-.384.192 1.518 1.518 0 0 1-.538.077c-.25 0-.48-.057-.711-.153a1.346 1.346 0 0 1-.576-.461c-.173-.212-.307-.5-.403-.826a4.717 4.717 0 0 1-.154-1.249Zm2.074 1.902c.135 0 .269-.02.365-.058a.986.986 0 0 0 .288-.134c.077-.058.154-.116.212-.173.057-.058.096-.115.134-.154v-3.246a1.011 1.011 0 0 0-.288-.135 1.193 1.193 0 0 0-.403-.057 1.81 1.81 0 0 0-.577.096 1.337 1.337 0 0 0-.461.346c-.134.153-.23.365-.307.614-.077.25-.115.577-.115.942 0 .364.038.672.096.921.058.25.154.442.25.596.115.154.23.25.365.326a.944.944 0 0 0 .441.116Zm9.374-6.147h-2.689v2.612h2.478v.75h-2.478v2.65h2.958l-.058.788h-3.861V62.7h3.708l-.058.75Zm4.226 6.8v-3.38c0-.443-.077-.77-.231-.961-.154-.192-.384-.288-.691-.288-.269 0-.481.057-.653.192a2.79 2.79 0 0 0-.423.384v4.053h-.884v-5.244h.807v.595h.019c.02-.038.077-.115.135-.192.077-.076.173-.172.288-.25.115-.076.25-.134.423-.21a1.57 1.57 0 0 1 .537-.097c.231 0 .442.039.634.096.192.077.346.173.48.327.135.153.231.346.308.595.077.25.115.538.115.903v3.438h-.864v.039Zm5.589-3.477c0 .23 0 .423-.019.576-.019.173-.038.308-.038.423h-2.67c.038.615.153 1.076.403 1.364.231.288.576.441 1.018.441a1.499 1.499 0 0 0 .749-.192c.096-.057.173-.096.231-.153.057-.058.115-.096.134-.115l.327.614c-.039.039-.096.096-.173.154-.077.077-.173.134-.288.211a1.294 1.294 0 0 1-.461.173c-.173.058-.404.077-.653.077-.327 0-.634-.058-.884-.173a1.763 1.763 0 0 1-.672-.5c-.192-.23-.327-.518-.423-.883a4.87 4.87 0 0 1-.154-1.268c0-.46.058-.864.154-1.21.115-.346.25-.615.423-.845a1.4 1.4 0 0 1 .634-.48 1.77 1.77 0 0 1 .768-.154c.499 0 .903.154 1.172.48.269.346.422.826.422 1.46Zm-1.671-1.19c-.307 0-.557.134-.749.383-.192.27-.307.634-.327 1.134h1.921c0-.039.019-.096.019-.154v-.23c0-.365-.076-.654-.211-.846a.832.832 0 0 0-.653-.288Zm5.148.191c-.019-.019-.077-.038-.135-.057a1.146 1.146 0 0 0-.288-.039c-.269 0-.499.077-.653.23-.153.154-.269.308-.326.48v3.843h-.884v-5.244h.807v.71h.019c.038-.096.077-.21.134-.307.058-.096.135-.192.212-.269a.977.977 0 0 1 .307-.173 1.406 1.406 0 0 1 .73-.019c.077.02.134.038.173.058l-.096.787Zm4.552-.096h-.653c.173.27.25.596.25.941 0 .27-.039.52-.135.75-.096.23-.211.403-.384.557a1.777 1.777 0 0 1-.576.345 2.205 2.205 0 0 1-.711.116h-.134c-.039 0-.096 0-.135-.02a1.058 1.058 0 0 0-.269.173c-.096.077-.134.192-.134.327 0 .115.038.192.134.269.077.076.212.096.404.096h.672c.25 0 .48.019.692.077.211.057.403.134.557.25.153.114.288.249.365.422.096.173.134.384.134.634a1.66 1.66 0 0 1-.672 1.364 1.983 1.983 0 0 1-.807.384c-.307.096-.672.134-1.056.134-.558 0-.98-.115-1.287-.365-.289-.25-.442-.595-.442-1.056 0-.192.038-.365.096-.5.077-.134.153-.269.25-.365.096-.115.192-.192.288-.25.096-.057.173-.115.23-.153v-.02c-.23-.172-.346-.403-.346-.73 0-.134.02-.249.077-.364.058-.096.115-.192.192-.25.077-.057.135-.115.212-.153.076-.039.115-.077.153-.077v-.02c-.269-.115-.48-.326-.653-.576-.173-.269-.25-.614-.25-1.018 0-.288.039-.557.135-.768.096-.23.23-.404.384-.557a1.48 1.48 0 0 1 .557-.327 2.01 2.01 0 0 1 .692-.115c.249 0 .48.039.691.135h1.594l-.115.71Zm-2.439 4.399a2.41 2.41 0 0 1-.404-.038c-.057.038-.134.076-.192.134-.057.058-.115.115-.173.192a1.041 1.041 0 0 0-.134.25.939.939 0 0 0-.058.346c0 .556.308.845.922.845.538 0 .922-.096 1.172-.308.25-.211.384-.442.384-.71 0-.25-.077-.442-.25-.538-.153-.115-.384-.154-.653-.154h-.614v-.02Zm1.171-3.458c0-.384-.096-.653-.269-.806a.933.933 0 0 0-.633-.25.896.896 0 0 0-.653.25c-.173.153-.269.422-.269.806 0 .385.096.654.269.807.172.154.384.25.633.25.25 0 .481-.077.653-.25.173-.153.269-.422.269-.807Zm5.782-1.632-1.633 5.55c-.192.635-.422 1.134-.691 1.46-.269.327-.672.5-1.191.5-.115 0-.192-.02-.269-.038-.077-.02-.115-.039-.154-.058v-.768c.039.019.077.038.135.057.057.02.134.02.23.02.308 0 .557-.097.711-.289.173-.192.307-.499.423-.902l.076-.27-1.69-5.243h.961l.825 2.9c.077.308.154.577.212.846.057.25.115.499.115.691h.019c.019-.211.058-.442.096-.691.058-.25.116-.538.212-.826l.749-2.92h.864v-.02ZM69.942 47.583c.019-.211.038-.423.038-.634 0-.115 0-.25-.02-.403 1.826-.02 3.439-1.345 3.439-2.862 0-.769-.5-1.364-.788-1.71.058-.019.135-.019.192-.038.27.23 1.038 1.056 1.038 2.113 0 1.805-1.806 3.495-3.9 3.534Zm-1.844-6.339a1.24 1.24 0 0 0-.23-.538c0-.192.076-.364.383-.21-.153.172-.038.46-.038.46s.326-.154.269-.365c.5.096.134.75-.384.653Zm-.423.922a1.932 1.932 0 0 0-.384-.768c-.154-.192-.423-.423-.788-.423-.173 0-.442.077-.614.154-.058-.115-.192-.403-.192-.538 0-.134.23-.269.653-.269.94 0 1.517.423 1.517 1.153 0 .269-.096.5-.192.691Zm2.44 12.236c.115 0 .172.019.23.038.269.75 1.325 2.152 1.364 2.21v.018h.019c.25-.038.922-.134 1.46-.134h.019c.058 0 .134 0 .173.038.038.039.057.096.057.192 0 .135-.057.365-.134.48-.192-.21-.5-.307-.999-.307-.154 0-.326.039-.422.077h-.039l-.038.02.288.287c.442.442.826.826.826 1.095 0 .154-.154.365-.288.442-.039-.46-.5-1.095-.96-1.44l-.04-.039v.173c0 .115-.018.288-.018.46 0 .904-.096 1.038-.404 1.038a.712.712 0 0 1-.173-.038c.173-.212.25-.5.25-1V57.59c0-.211.02-.365.038-.48v-.077h-.057c-.154-.019-.423-.057-.615-.057-.442 0-.749.038-.96.25-.135-.116-.288-.308-.288-.442 0-.192.115-.192.269-.192.076 0 .153.019.25.019.191.019.48.077 1.056.077h.038l-.019-.039c-.154-.422-.557-1.056-1.21-1.844.058-.269.115-.403.326-.403Zm-5.667 2.19-.02.038h.04c.595 0 .883-.038 1.056-.077.096-.02.173-.02.25-.02.153 0 .268.02.268.193 0 .134-.153.327-.288.442-.211-.212-.518-.25-.96-.25-.212 0-.48.038-.615.058h-.038v.077c.019.115.038.268.038.48V57.955c0 .5.077.788.25 1a.459.459 0 0 1-.173.038c-.307 0-.403-.135-.403-1.038 0-.173 0-.346-.02-.46v-.174l-.038.039c-.461.346-.941.98-.96 1.44-.135-.096-.289-.288-.289-.441 0-.25.385-.634.826-1.095l.25-.25.038-.038-.076-.02c-.096-.019-.27-.076-.423-.076-.5 0-.807.096-.999.307-.077-.096-.134-.327-.134-.48 0-.096.019-.154.057-.192.039-.039.116-.039.173-.039h.02c.557 0 1.21.096 1.46.135h.019v-.02c.038-.057 1.094-1.46 1.363-2.208a.627.627 0 0 1 .23-.039c.212 0 .27.135.327.346-.672.864-1.095 1.479-1.229 1.902Zm-2.843-12.563c0-1.037.769-1.882 1.038-2.112.057.019.134.038.192.038-.308.365-.807.941-.807 1.71 0 1.536 1.633 2.861 3.496 2.861-.02.135-.02.27-.02.404 0 .23.02.442.039.634-2.094 0-3.938-1.69-3.938-3.535Zm14.06 3.227c.942 1.48 1.672 1.46 2.786 1.46-.922-.71-1.537-1.613-1.825-2.074l-1.71-2.747a4.083 4.083 0 0 0-1.267-2.228c.23-.077.403-.173.518-.25-1.114 0-2.228-.576-2.843-.576-.384 0-.653.23-.653.538.02.346.385.691 1.038.691.153 0 .345-.019.557-.057.365.499.653.94.653 1.594 0 1.21-1.44 2.151-2.9 2.151h-.25c-.135-.307-.577-.807-.577-1.364 0-.96.615-1.728.615-2.689 0-.595-.288-.96-.403-1.114.173-.173.365-.365.422-.5-.096.04-.23.058-.403.058-.692 0-1.268-.172-1.825-.172-.307 0-.403.096-.403.192 0 .038 0 .077.019.077-.115-.039-.23-.077-.365-.097-.173-.038-.346-.038-.519-.038-.672 0-.902.288-.902.519 0 .21.153.576.345.864.27-.135.577-.23.73-.23.365 0 .673.345.845.749-.23.038-.288.038-.537.038-.654 0-1.095-.23-1.191-.23 0 0-.02 0-.02.019 0 .096.193.326.558.46.48.174 1.21.25 1.325.27 0 .019-.115.25-.25.288-.019 0-.057.019-.077 0-.499-.096-.653-.135-1.287-.384-.019 0-.038 0-.038.019 0 .25.653.807 1.248 1.018-.499.634-1.094 1.268-1.382 2.247h-.25c-1.46 0-2.9-.941-2.9-2.151 0-.634.288-1.095.653-1.594.21.038.403.057.556.057.654 0 1.019-.346 1.038-.691 0-.308-.25-.538-.653-.538-.615 0-1.729.576-2.843.576.115.077.288.173.518.25a4.152 4.152 0 0 0-1.267 2.228l-1.71 2.747c-.288.46-.902 1.363-1.825 2.074 1.115 0 1.844.02 2.786-1.46l.883-1.402c.058.192.154.365.23.538l-1.766 2.804c-.288.461-.903 1.364-1.825 2.075 1.114 0 1.844.02 2.785-1.46l1.517-2.42c.116.115.23.23.365.346l-2.132 3.4c-.288.46-.902 1.363-1.824 2.074 1.114 0 1.843.02 2.785-1.46l2.074-3.323c.135.077.27.173.423.25l-2.536 4.053c-.288.46-.903 1.363-1.825 2.074 1.115 0 1.844.02 2.786-1.46l2.612-4.168.461.173-2.92 4.687c-.288.46-.902 1.364-1.824 2.074 1.114 0 1.844.02 2.785-1.46l3.15-5.032c.038 0 .057.02.096.02.077.268.154.518.154.787 0 1.575-1.038 2.977-2.286 4.053.077.038.211.038.346.038.25 0 .422-.02.537-.038-.288.653-.902 1.498-1.229 1.94a8.641 8.641 0 0 0-1.383-.135c-.403 0-.46.23-.46.442 0 .365.172.653.364.826.077-.192.23-.442.98-.442h.077c-.212.25-.903.807-.903 1.249 0 .288.326.749.749.749-.02-.096-.02-.192-.02-.25 0-.365.327-.787.596-1.076v.173c0 .865.077 1.249.615 1.249.269 0 .442-.154.518-.192-.345-.327-.365-.577-.365-1.057v-.422c0-.116 0-.25-.019-.365.192-.02.27-.02.423-.02 0 0 .768-.057.96.346.212-.192.519-.46.519-.768 0-.192-.096-.423-.5-.423-.153 0-.614.096-1.018.096.116-.23.577-.922 1-1.44.057.192.153.403.364.576.038-.326.211-1.344.73-1.94.058.403.135.826.135 1.69 0 2.133-.52 3.688-1.595 3.996.135.25.442.46.75.46.403 0 .614-.441.825-.864.115.308.423 1.076.75 1.076.326 0 .633-.768.749-1.076.21.423.441.865.826.865.307 0 .614-.23.749-.461-1.095-.308-1.595-1.864-1.595-3.996 0-.883.077-1.287.135-1.69.5.596.691 1.614.73 1.94.211-.173.307-.384.384-.576.403.5.883 1.19.999 1.44-.404 0-.865-.096-1.018-.096-.404 0-.5.23-.5.423 0 .307.308.576.519.768.192-.403.96-.346.96-.346.154 0 .23 0 .423.02-.02.096-.02.25-.02.365v.422c0 .48-.019.73-.364 1.057.057.038.25.192.518.192.538 0 .615-.384.615-1.249v-.173c.269.289.595.711.595 1.076 0 .058 0 .154-.019.25.423 0 .75-.442.75-.75 0-.441-.692-.998-.904-1.248h.077c.75 0 .903.25.98.442.192-.173.365-.461.365-.826 0-.211-.039-.442-.461-.442-.384 0-.98.058-1.383.135-.307-.442-.922-1.287-1.23-1.94.116.019.289.038.538.038.135 0 .27-.02.346-.038-1.248-1.076-2.286-2.478-2.286-4.053 0-.25.058-.5.154-.788.038 0 .058-.019.096-.019l3.15 5.032c.941 1.48 1.671 1.46 2.785 1.46-.922-.71-1.536-1.613-1.824-2.074l-2.94-4.725c.154-.058.327-.116.481-.173l2.612 4.168c.941 1.479 1.671 1.46 2.785 1.46-.921-.711-1.517-1.595-1.824-2.075L72.13 48.64c.135-.076.288-.153.423-.25l2.074 3.324c.942 1.479 1.671 1.46 2.785 1.46-.921-.711-1.517-1.595-1.824-2.075l-2.132-3.4c.134-.115.25-.23.365-.346l1.517 2.42c.941 1.48 1.671 1.46 2.785 1.46-.922-.71-1.536-1.613-1.825-2.074l-1.748-2.804c.096-.173.173-.346.231-.538l.883 1.44ZM87.248 59.222H84.04V40.84h3.208v18.382Z" fill="#212121"/><path d="M87.248 77.605H84.04V59.223h3.208v18.382Z" fill="#A9A9A9"/><path d="M87.248 95.968H84.04V77.586h3.208v18.382Z" fill="#D9D9D9"/></g><defs><clipPath id="clip0_1019_46675"><path fill="#fff" transform="translate(53 40)" d="M0 0h125.236v56H0z"/></clipPath></defs></svg>