<svg width="230" height="130" fill="none" xmlns="http://www.w3.org/2000/svg"><path d="M174.671 81.446h-3.745v-6.407h1.298v5.331h2.546v.978h-.049l-.05.098ZM160.195 81.492v.05h-1.597v-.05h1.597ZM174.723 61.44h-.05v-2.397h.05v2.396ZM57.953 54.446c-.449 0-.898.097-1.348.146-.449 0-.898.098-1.347.098-.25 0-.5.05-.8.098v-5.282h.05c.2-.049.4-.049.55-.049h18.92v1.076c-4.093 1.712-8.337 2.886-12.78 3.57h-.05c-.25 0-.499.05-.748.098h-.1c-.35 0-.7.098-1.049.098h-.1c-.349 0-.748.049-1.098.098h-.1v.049ZM132.137 60.364c.3-.244.55-.538.849-.782.35-.294.799-.44 1.248-.538.3-.05.649-.098.949-.098.399 0 .798.049 1.198.195.998.343 1.497 1.028 1.797 1.908.1.342.15.685.2 1.076.149 2.103 0 4.206.05 6.309l-.05.049h-2.446v-5.821c0-.44-.1-.83-.3-1.173-.2-.391-.549-.636-1.048-.636-.1 0-.2-.049-.3-.049-.399 0-.799.05-1.098.294-.549.44-.849 1.027-.999 1.712-.099.537-.099 1.124-.099 1.662V68.434l-.05.049h-2.447V54.935c.2-.049 1.698-.097 2.447 0l.05.05V60.461h.099l-.05-.098ZM73.977 59.385v9.146h-12.43c.05-.05.1-.098.15-.098 1.347-.93 2.695-1.859 4.043-2.837.699-.489 1.398-.978 2.047-1.516 1.098-.831 2.246-1.663 3.344-2.543.949-.734 1.847-1.467 2.796-2.201h.1l-.05.049ZM144.869 68.728h-.649c-.449 0-.849-.147-1.298-.343-.3-.098-.599-.293-.899-.44-.549-.342-.998-.782-1.298-1.37-.349-.586-.599-1.173-.699-1.858a2.897 2.897 0 0 1 0-.93c0-.39.05-.733.1-1.124.05-.293.15-.538.25-.831.249-.685.649-1.272 1.198-1.712a4.597 4.597 0 0 1 1.647-.93c.649-.195 1.298-.293 1.947-.244.949 0 1.847.294 2.646.783.649.39 1.148.88 1.498 1.516.299.538.499 1.076.549 1.663.1.587.15 1.173.05 1.76-.2.978-.549 1.908-1.298 2.641-.3.294-.649.538-1.048.783-.5.244-.999.44-1.548.538-.399.098-.849.098-1.298.098h.15Zm-.25-1.859c1.348 0 2.097-.391 2.496-1.32.25-.587.35-1.174.35-1.81 0-.538-.1-1.076-.3-1.614-.249-.587-.649-.978-1.248-1.174-.399-.146-.799-.146-1.198-.146-.499 0-.998.244-1.348.635-.399.44-.699.979-.749 1.614v1.174c0 .49.15.93.35 1.37.399.782 1.048 1.222 1.597 1.173l.05.098ZM124.45 68.579v-5.478c0-.489-.05-.978-.25-1.418-.149-.391-.449-.636-.898-.734a2.283 2.283 0 0 0-1.148 0c-.599.147-.899.587-1.149 1.076a6.922 6.922 0 0 0-.349 1.076c-.1.392 0 .832 0 1.223v4.255h-2.496v-9.39h2.346v1.271c.1-.098.15-.098.2-.146.649-.783 1.448-1.223 2.446-1.32a4.8 4.8 0 0 1 1.448.048c.948.244 1.647.734 1.997 1.614.299.733.399 1.467.399 2.25v5.624H124.5l-.05.049ZM106.677 59.19h2.496v5.379c0 .343 0 .685.05 1.027.1.587.449 1.028.998 1.223h.4c.299 0 .549 0 .848-.098.55-.244.899-.587 1.149-1.125.299-.635.349-1.32.349-1.956v-4.45h2.496v9.39h-2.346v-1.272c-.1.098-.2.147-.25.196-.249.244-.549.489-.848.685-.5.293-.999.489-1.548.538-.599.048-1.248.097-1.847-.147-.599-.245-1.048-.587-1.398-1.125-.299-.44-.449-.978-.499-1.467-.05-.343-.05-.685-.05-1.027V59.14v.049ZM166.584 66.086v1.76c0 .147-.1.196-.2.294a6.246 6.246 0 0 1-1.847.587c-.849.097-1.697.097-2.546 0-.699-.098-1.348-.392-1.897-.783-.699-.489-1.098-1.125-1.448-1.907a4.331 4.331 0 0 1-.299-1.076c-.05-.44 0-.93 0-1.419 0-.39.05-.733.149-1.124.1-.44.3-.88.5-1.272.449-.831 1.098-1.418 1.947-1.81.349-.146.649-.244 1.048-.244.25 0 .499-.049.749-.049.749 0 1.448.098 2.146.391.749.294 1.298.783 1.648 1.468.299.489.449 1.075.599 1.613.15.685.25 1.419.2 2.152h-6.64c-.1.343 0 .685.15.93.199.44.499.782.898 1.027.4.244.849.39 1.348.39.649 0 1.248 0 1.847-.244.45-.146.899-.39 1.398-.587.05 0 .15-.048.25-.097Zm-1.698-3.13c0-.147-.049-.294-.049-.44a2.3 2.3 0 0 0-.599-1.321c-.3-.294-.699-.391-1.049-.44-.549-.05-1.098 0-1.597.342-.35.245-.599.587-.749 1.027-.1.245-.2.538-.2.832h4.243ZM97.141 61.682c0-.685-.05-1.32-.1-2.005l.75-.294c.449-.147.898-.293 1.347-.342.6-.049 1.199-.196 1.798-.098.449.098.948.098 1.348.245 1.048.293 1.697.978 1.996 2.005.15.587.25 1.223.25 1.858 0 1.32 0 2.641.05 3.962 0 .489.05 1.027.1 1.516h-2.247c0-.44-.05-.88-.1-1.37l-.199.196c-.35.538-.899.93-1.498 1.125-.1 0-.25.098-.349.098-.4.147-.8.098-1.248.098-.7 0-1.348-.245-1.898-.587-.549-.391-.948-.93-1.098-1.614-.2-.93 0-1.76.6-2.494.249-.343.648-.587 1.048-.734.599-.245 1.248-.342 1.897-.44.699-.098 1.398 0 2.096-.05h.5c0-.048.05-.048.05-.097 0-.391 0-.782-.25-1.174-.15-.244-.349-.489-.699-.587-.998-.342-1.947-.244-2.945.147-.4.147-.8.342-1.149.636h-.05Zm5.143 2.592h-.3c-.649 0-1.248 0-1.897.098-.25 0-.45.098-.65.195-.648.245-.998.734-.998 1.419 0 .44.2.733.55.88.599.294 1.248.294 1.897 0 .649-.293 1.098-.782 1.248-1.516.1-.342.15-.685.15-1.076ZM80.618 55.816h7.14v2.006h-4.644v3.13h4.393v2.005h-4.343V68.532l-.05.05h-2.496V55.864l.05-.049h-.05ZM73.928 56.987c-1.797 1.174-3.594 2.397-5.391 3.57a87.618 87.618 0 0 1-2.846 1.712 180.07 180.07 0 0 1-3.195 1.908c-2.446 1.418-4.892 2.788-7.438 4.06-.2.097-.35.195-.6.293v-2.837c.1 0 .15-.098.25-.147 2.896-1.37 5.791-2.788 8.637-4.304 1.248-.635 2.496-1.369 3.744-2.054 1.398-.782 2.796-1.614 4.194-2.445.848-.49 1.647-1.027 2.496-1.565 0 0 .1 0 .15-.05h.05v1.81l-.05.05ZM155.101 60.949v7.58h-2.496v-7.58h-1.847v-1.81h1.797v-1.516c0-.342 0-.685.15-1.027.349-.93.998-1.614 2.047-1.859.499-.098 1.048-.098 1.547-.049.35 0 .699.098 1.049.147v.685c-.05.195 0 .44-.05.636-.1.195.1.44-.15.635-.3-.097-.549-.195-.849-.244-.599-.098-1.048.244-1.198.782 0 .196-.05.392-.05.587v1.223h2.147v1.81h-2.197.1ZM73.978 52.832v.881c-.649.342-1.298.733-1.997 1.075-1.347.734-2.745 1.468-4.143 2.201-1.148.587-2.346 1.174-3.495 1.76-1.048.49-2.047.93-3.095 1.42-1.497.684-3.045 1.32-4.543 2.004a94.29 94.29 0 0 1-2.146.88c-.1-.293-.1-2.885-.1-3.716.1 0 .25-.098.35-.098 1.647-.391 3.294-.783 4.892-1.223 2.096-.538 4.193-1.222 6.24-1.956a62.89 62.89 0 0 0 4.243-1.614 107.19 107.19 0 0 0 3.445-1.565c.05 0 .15-.049.2-.049H73.979ZM91.9 61.244c.15-.782.649-1.37 1.248-1.858.4-.294.849-.44 1.348-.44.25 0 .5 0 .749.048v2.446l-1.049-.147c-.549-.049-1.048.098-1.397.538-.3.342-.45.733-.55 1.174-.1.39-.15.782-.15 1.173v4.353h-2.495v-9.39H91.8v2.103h.1ZM174.671 59.045v2.397h-.149c-.35-.147-.699-.147-1.099-.147-.699 0-1.148.391-1.447.978-.25.49-.4 1.076-.4 1.663v4.646h-2.496v-9.39h2.197v2.103-.049c.1-.685.499-1.174.998-1.663.499-.489 1.148-.685 1.847-.685.15 0 .35.05.499.098l.05.05ZM168.032 76.354c-.25.734-.499 1.418-.699 2.152-.3.831-.549 1.663-.849 2.494-.2.49 0 .44-.649.44h-.749c-.599-1.711-1.148-3.472-1.747-5.184v5.135h-1.248v-6.358h2.047c.499 1.614 1.048 3.18 1.547 4.793h.1v-.195c.1-.343.2-.636.3-.978.15-.538.349-1.027.499-1.565.2-.587.399-1.174.549-1.761 0-.098 0-.245.1-.293.1-.05.25 0 .349 0h1.748v6.357h-1.248V76.158s0 .098-.05.147v.049Z" fill="#212121"/><path d="M73.978 51.07V52c-6.19 2.836-12.73 4.792-19.52 5.966v-2.152c.15 0 .3 0 .5-.048.3 0 .599 0 .899-.098.499-.05 1.048-.098 1.547-.147.5-.049.999-.147 1.548-.196.25 0 .499-.049.749-.098.25 0 .499-.097.748-.146.7-.147 1.398-.294 2.047-.44 1.248-.245 2.496-.587 3.744-.93 1.248-.342 2.447-.733 3.695-1.124 1.347-.44 2.645-.979 3.944-1.517h.1ZM73.98 57.527v.783c0 .147 0 .244-.15.342-.4.294-.8.636-1.249.93-.898.635-1.747 1.271-2.646 1.907-1.947 1.418-3.944 2.788-6.04 4.01-1.598.979-3.245 1.957-4.843 2.935-.1.049-.2.098-.3.098h-2.396c.1-.05.2-.098.25-.147 2.247-1.272 4.543-2.543 6.74-3.913a256.26 256.26 0 0 0 6.09-3.912c1.398-.93 2.746-1.908 4.144-2.886.1-.049.15-.098.25-.147H73.98ZM160.193 81.493h-1.598c-.249-.098-.499-.049-.749-.147-.848-.342-1.547-.88-1.847-1.81-.1-.293-.1-.586-.15-.88-.049-.586 0-1.173.2-1.76.35-.93.999-1.565 1.997-1.81.399-.098.799-.147 1.148-.195.45 0 1.248.097 1.648.293 0 .342-.1.636-.15 1.027-.1 0-.25-.098-.35-.098a2.647 2.647 0 0 0-2.196.098c-.499.245-.799.685-.949 1.223a3.149 3.149 0 0 0 0 1.663c.1.391.35.684.649.978.549.44 1.149.538 1.847.44.35-.049.649-.098.999-.147h.05c0 .294 0 .636.05.978-.25 0-.499.098-.699.147h.1ZM168.031 76.354s0-.098.05-.147v.147h-.1.05ZM132.137 60.363h-.1v-.097s.05 0 .1.049v.048Z" fill="#212121"/><path d="M160.843 80.365h-.05v-.049.098l.05-.049ZM73.977 57.525h-.1c0-.049.1-.098.1 0ZM73.977 59.388h-.1c.05-.049.05-.049.1 0ZM171.376 61.242v.05h.05l-.05-.05ZM83.114 68.58l.05-.049-.05.05ZM138.328 68.58l.05-.049-.05.05ZM80.619 55.816l-.05.05.05-.05ZM132.038 54.936l-.05-.05.05.05ZM131.988 68.58l.05-.049-.05.05Z" fill="#212121"/></svg>