<svg width="230" height="130" fill="none" xmlns="http://www.w3.org/2000/svg"><g clip-path="url('#clip0_1019_46775')"><path d="M147.762 64.437 156.233 45h-11.294l-4.477 12.042L136.812 45h-10.054l5.647 19.577-6.06-.07 4.27 13.099-12.671-20.212 5.577-.07L119.39 45h-11.57l-7.576 28.451s-.068-8.55-.068-28.451H88.95v14.367h-6.06L82.823 45H71.597v40h11.156V70.14h6.267V85h19.075l1.515-6.972 9.022.07L120.147 85h15.013l4.82-11.972v-.07L144.87 85h12.533l-9.641-20.563Zm-30.359 5.08h-5.806l2.824-11.614 2.982 11.544v.07Z" fill="#212121"/></g><defs><clipPath id="clip0_1019_46775"><path fill="#fff" transform="translate(71.597 45)" d="M0 0h85.806v40H0z"/></clipPath></defs></svg>