<svg width="230" height="130" fill="none" xmlns="http://www.w3.org/2000/svg"><path d="M112.012 79.402c-.07.079-.148.154-.214.238l-3.655 4.544-.06.078c-.208.253-.246.254-.445.005a118136.926 118136.926 0 0 1-3.807-4.76c-.027-.034-.06-.064-.089-.093-.098.036-.059.113-.059.167-.003.656-.002 1.312 0 1.968v6.524c0 .098.002.197 0 .295-.01.276-.047.31-.344.32h-3.033c-.079 0-.158 0-.236-.008-.141-.017-.19-.066-.202-.214-.007-.086-.005-.175-.005-.262V74.206c0-.11.003-.218.012-.326.007-.089.067-.138.153-.15.078-.01.157-.014.234-.014.989 0 1.977.005 2.966-.005a.608.608 0 0 1 .538.262c.65.85 1.311 1.692 1.969 2.537l1.916 2.453c.041.052.08.107.125.156.078.087.145.088.221-.007.3-.367.598-.738.895-1.108l3.233-4.032c.042-.051.083-.104.127-.153a.282.282 0 0 1 .205-.098 4.99 4.99 0 0 1 .27-.007h2.662c.489 0 .491.002.491.47v13.999c0 .11 0 .218-.012.328-.01.105-.064.152-.174.167-.077.01-.156.011-.236.011-.989 0-1.976.002-2.965 0-.412 0-.427-.016-.427-.434v-8.688c0-.05.02-.109-.054-.16v-.005ZM118.153 63.134c-.041.015-.044.05-.044.08-.002.11-.004.218-.004.328v8.227c0 .12.004.24-.005.36-.011.182-.054.22-.251.233-.055.003-.113.003-.168.003h-2.964c-.421 0-.432-.011-.432-.424V57.879c0-.108.005-.218.014-.327.005-.073.055-.12.126-.136.076-.014.155-.024.233-.024.999 0 1.998.003 2.998-.005.241-.002.396.096.534.277a661.63 661.63 0 0 0 2.113 2.718c.603.774 1.21 1.548 1.815 2.322.04.053.084.104.129.151.036.036.081.044.12.008.04-.037.074-.082.11-.124.746-.93 1.493-1.86 2.237-2.791.609-.758 1.22-1.512 1.82-2.276a.686.686 0 0 1 .6-.285c.91.01 1.82.003 2.728.003h.101c.305.012.337.044.344.353v14.062c0 .12.002.24-.008.36-.01.13-.059.177-.186.19a2.45 2.45 0 0 1-.269.01h-2.897c-.089 0-.18 0-.27-.011-.106-.012-.158-.063-.17-.17a3.591 3.591 0 0 1-.013-.36V63.5c0-.098 0-.196-.005-.295 0-.03-.007-.075-.049-.073-.029 0-.064.02-.083.044-.273.333-.547.666-.817 1-.974 1.213-1.946 2.43-2.92 3.644-.069.085-.14.17-.216.25-.089.095-.158.092-.254-.006-.039-.04-.073-.084-.108-.127-.908-1.139-1.817-2.279-2.727-3.417-.343-.43-.692-.86-1.038-1.29-.033-.041-.059-.093-.123-.097l-.001.002ZM82.193 66.17c.005-.155.01-.271.01-.39v-7.865c0-.12.005-.24.012-.359.005-.074.052-.123.124-.136.076-.015.156-.025.233-.025a610.09 610.09 0 0 1 2.964 0c.349 0 .386.043.396.376v14.06c0 .11.002.22-.01.328-.015.145-.07.192-.212.205-.078.007-.157.005-.236.005H82.51c-.068 0-.135-.003-.203-.003a.295.295 0 0 1-.256-.133c-.05-.072-.103-.143-.151-.216l-4.235-6.274c-.517-.767-1.035-1.535-1.554-2.3a2.463 2.463 0 0 0-.096-.135c-.02-.028-.05-.054-.08-.032-.022.016-.036.052-.04.081-.006.043-.004.087-.004.132v8.292c0 .12.003.24-.009.36-.015.166-.065.212-.229.223-.101.007-.202.005-.303.005h-2.695c-.515-.003-.544.038-.544-.52.002-2.502 0-5.004 0-7.505v-6.391c0-.12 0-.241.012-.36.012-.117.072-.173.195-.19a2.11 2.11 0 0 1 .268-.012h3.2c.068 0 .135.003.202.005.134.003.238.059.31.167.075.11.145.221.22.33l3.49 5.14c.655.966 1.309 1.933 1.966 2.899.049.072.084.156.214.234l.005.004ZM96.6 49.842c.053-.127.034-.235.034-.34v-7.866c0-.12.004-.24.014-.359.007-.085.062-.14.15-.15.09-.01.178-.014.268-.014h2.863c.424 0 .44.015.44.42v13.96c0 .132-.002.263-.012.394-.007.098-.071.16-.172.174-.088.013-.179.02-.268.02h-2.964c-.034 0-.068-.002-.101 0-.187.01-.315-.068-.416-.222-.26-.397-.533-.784-.797-1.177-.727-1.077-1.451-2.156-2.178-3.234l-2.827-4.19c-.074-.109-.152-.215-.22-.312-.083-.002-.085.046-.087.087-.003.12-.003.24-.003.36v8.063c0 .131.002.262-.009.393-.011.156-.065.205-.232.227a1.444 1.444 0 0 1-.169.008h-2.93c-.045 0-.09 0-.135-.004-.21-.017-.254-.06-.266-.259-.005-.087-.003-.175-.003-.262V41.63c0-.11 0-.218.01-.328.011-.125.062-.169.195-.18.078-.008.157-.007.236-.007h3.234c.045 0 .09.003.135 0 .175-.015.296.06.39.203.201.304.41.602.614.902l1.78 2.627c1.056 1.56 2.11 3.12 3.169 4.68.07.105.128.223.254.316l.004-.002ZM144.3 64.868v-6.914c0-.132.006-.263.02-.392.008-.084.066-.14.153-.151.089-.012.179-.018.268-.018 2.201 0 4.401-.007 6.602.003.951.005 1.877.152 2.76.515.919.377 1.701.926 2.295 1.713.42.556.69 1.178.826 1.848a5.365 5.365 0 0 1-.018 2.278c-.299 1.299-1.04 2.305-2.167 3.046-.284.186-.285.182-.132.456.526.941 1.05 1.88 1.574 2.822l1.09 1.96c.027.047.056.095.078.145.045.104.003.171-.112.18-.077.007-.156.007-.235.007h-3.47c-.393 0-.396 0-.566-.336-.29-.567-.571-1.138-.86-1.707-.367-.724-.738-1.447-1.107-2.172-.02-.04-.042-.077-.064-.115a.242.242 0 0 0-.219-.13c-.146-.001-.291-.003-.438-.003h-1.852c-.079 0-.156-.002-.236 0-.234.008-.266.038-.271.274-.005.338-.002.677-.002 1.017v2.687c0 .482-.001.482-.512.484h-2.863c-.507 0-.546.05-.546-.518.002-2.327 0-4.654 0-6.98l.004.001Zm3.919-2.197v1.472c0 .087-.002.176.005.263.01.128.059.172.189.187.034.003.067.004.101.004.93-.001 1.862-.001 2.792-.006.26 0 .514-.054.757-.141.308-.11.584-.267.802-.518.477-.55.551-1.182.401-1.85-.14-.616-.561-1-1.17-1.202a3.014 3.014 0 0 0-.96-.14h-2.523c-.067 0-.134 0-.202.006-.126.015-.175.062-.187.19-.008.087-.005.174-.005.263v1.472ZM127.155 48.585V41.67c0-.12-.001-.24.007-.36.01-.13.057-.178.185-.19.078-.009.157-.009.236-.009 2.302 0 4.602-.006 6.904.007a6.41 6.41 0 0 1 3.267.888c1.172.689 1.948 1.68 2.265 2.971.396 1.62.106 3.122-.95 4.459-.339.428-.752.78-1.22 1.069-.26.16-.251.164-.116.403.556.999 1.108 1.999 1.664 2.998.331.595.666 1.188.995 1.785.185.336.155.385-.243.387-1.156.003-2.312 0-3.47 0h-.067c-.228.011-.372-.08-.474-.289-.293-.601-.604-1.195-.909-1.792l-1.064-2.084c-.02-.04-.044-.077-.06-.118-.058-.138-.154-.19-.314-.188-.684.01-1.37.008-2.054.008-.168 0-.337-.012-.504-.015-.131-.003-.182.048-.177.179.005.152.022.305.022.457.002 1.092 0 2.184 0 3.276 0 .12-.003.241-.02.36-.017.124-.071.173-.194.19a1.61 1.61 0 0 1-.234.013h-3.133c-.306-.013-.342-.043-.343-.351-.004-.579 0-1.158 0-1.736V48.58l.001.004Zm5.627-.3h1.043c.178 0 .359-.002.537-.022.408-.044.791-.165 1.113-.423.783-.623.906-1.772.419-2.56-.28-.45-.721-.672-1.235-.775a3.968 3.968 0 0 0-.802-.082c-.819.003-1.638 0-2.457-.002-.056 0-.113 0-.168.005-.132.014-.181.063-.177.19.005.207.022.414.023.622.004.546 0 1.092 0 1.636 0 .251.004.502-.027.753-.013.118-.01.24-.007.36.007.257.043.29.321.3h1.413l.004-.002ZM99.86 64.877v-6.95c0-.12.004-.242.01-.362.006-.087.061-.142.147-.157.088-.015.179-.02.268-.02h3.067c.408 0 .44.032.442.432v4.688c0 .12.003.24.015.358.008.086.065.14.153.151.078.012.157.015.234.015 1.46 0 2.921.002 4.38 0 .372 0 .389-.02.389-.4v-4.688c0-.11-.002-.218.005-.328.01-.157.062-.206.231-.223.067-.006.135-.006.202-.006h3.067c.411 0 .433.023.433.431v13.965c0 .099.003.197-.003.295-.014.23-.053.27-.278.28-.056.004-.113.002-.169.002h-3.033c-.089 0-.18 0-.27-.01-.111-.011-.163-.06-.173-.165-.012-.108-.012-.218-.012-.328v-4.688c0-.098.002-.197-.003-.295-.01-.184-.051-.221-.248-.233-.067-.003-.135-.002-.202-.002h-4.247c-.47 0-.473.002-.473.453v4.754c0 .12-.005.24-.02.358-.01.083-.068.138-.157.147-.089.006-.179.01-.27.01h-3.033c-.101 0-.202-.006-.301-.017a.144.144 0 0 1-.133-.13 3.022 3.022 0 0 1-.017-.326v-7.014.003ZM87.283 64.884v-6.918c0-.131.005-.262.016-.392.009-.1.076-.157.177-.169.09-.01.179-.014.268-.014h10.278c.089 0 .18.005.267.016.102.013.162.074.174.172.01.087.014.174.014.26v2.493c0 .443-.024.468-.472.468h-5.863c-.236 0-.471-.004-.707.006-.167.007-.218.058-.223.225-.007.283-.003.569-.005.852 0 .34-.003.677.004 1.017.003.207.043.241.262.25.101.004.203 0 .304 0h6.132c.112 0 .225 0 .337.007.158.012.21.068.225.228.005.054.005.11.005.164v2.591c0 .054 0 .11-.006.164-.019.162-.068.21-.233.221-.111.007-.224.005-.337.005h-6.2c-.112 0-.223 0-.336.01-.093.008-.138.057-.15.148a1.933 1.933 0 0 0-.009.196v1.804c.009.27.03.294.316.3.156.003.315 0 .471 0h5.896c.113 0 .224-.003.337.005.18.011.23.062.245.246.005.066.003.131.003.197v2.525c-.007.383-.025.407-.423.407H87.638c-.317-.002-.349-.037-.36-.335-.004-.087 0-.175 0-.262v-6.885l.005-.002ZM131.686 64.868v-6.95c0-.11 0-.217.008-.327.01-.12.068-.176.192-.19.09-.01.179-.01.27-.01h10.107c.123 0 .248-.002.371.006.168.013.22.063.241.218.008.064.008.132.008.197 0 .853.002 1.704 0 2.556 0 .4-.032.432-.44.432h-6.265c-.113 0-.224-.002-.337.006-.163.013-.207.063-.222.228l-.002.033v1.835c0 .032.005.065.01.098.015.087.071.135.16.141.101.007.202.008.304.008h6.163c.124 0 .248-.003.371.005.181.012.233.064.251.243.009.075.007.152.007.23 0 .82.002 1.637 0 2.457 0 .43-.015.441-.453.441h-6.333c-.113 0-.224.002-.337.012-.074.006-.119.057-.133.128a1.11 1.11 0 0 0-.013.162v1.835c0 .054.003.11.011.164.012.087.066.14.155.146.112.008.225.01.337.01h6.198c.123 0 .248 0 .371.011.106.01.16.06.178.166.016.085.021.174.021.26 0 .842.003 1.683 0 2.524 0 .402-.021.418-.445.418h-10.274c-.47 0-.475-.003-.475-.453v-7.047l-.005.007ZM114.62 48.602v-6.95c0-.119 0-.24.01-.36.01-.108.061-.157.168-.169.09-.01.179-.01.27-.01h10.242c.46 0 .468.01.47.46v2.49c0 .41-.019.428-.433.428h-6.301c-.123 0-.247 0-.37.008-.113.008-.155.056-.167.17-.007.065-.007.13-.007.196V46.569c.01.22.047.255.287.265.101.003.202.002.303.002h6.132c.123 0 .248.001.369.014.111.012.162.066.175.168.01.087.01.174.01.262v2.524c0 .43-.015.446-.45.446h-6.3c-.113 0-.224 0-.337.008-.128.01-.174.06-.185.19-.006.054-.006.11-.006.164v1.704c0 .054 0 .11.006.164.013.126.06.175.19.185.111.01.224.008.337.008h6.098c.113 0 .224-.003.337.003.246.015.295.063.309.294.003.044.001.087.001.131v2.556c0 .379-.037.412-.419.42h-10.175c-.123 0-.247 0-.369-.013-.13-.015-.178-.066-.188-.19-.009-.108-.007-.218-.007-.328v-6.95.006ZM81.72 49.757c.092.1.203.128.301.172.532.246 1.018.56 1.439.958.726.687 1.2 1.521 1.476 2.463.231.783.288 1.588.266 2.402a.864.864 0 0 1-.01.13c-.013.098-.07.162-.172.176-.089.012-.178.018-.267.018-1.034 0-2.066.004-3.101 0-.41 0-.438-.034-.443-.43-.004-.217.008-.437-.01-.655-.068-.787-.405-1.425-1.117-1.841a2.66 2.66 0 0 0-.983-.323.961.961 0 0 0-.168-.009c-.129.004-.186.051-.2.176-.01.096-.008.197-.008.295v2.622c-.01.326-.06.38-.404.364-1.087-.054-2.14-.246-3.12-.728a5.216 5.216 0 0 1-2.52-2.588c-.303-.665-.458-1.366-.52-2.09a16.554 16.554 0 0 1-.048-1.473V41.66c0-.13.004-.262.019-.392a.16.16 0 0 1 .156-.147c.078-.007.157-.012.236-.012h3.168c.068 0 .135 0 .202.005.145.013.196.061.208.209.01.12.008.239.008.36v8.458c0 .352.035.698.148 1.033.277.811.877 1.27 1.706 1.474.141.034.286.052.431.065.175.015.228-.032.24-.195.004-.087.003-.175.003-.262V49.7c0-.099.005-.197.015-.294a.148.148 0 0 1 .13-.133c.087-.013.178-.018.267-.016a8.5 8.5 0 0 1 1.665.223c.098.023.196.05.295.069.128.024.187-.021.197-.156.009-.108.007-.218.007-.328v-7.408c0-.131.005-.262.02-.392.01-.082.068-.138.157-.146.078-.006.157-.01.236-.01H84.86c.309.009.337.036.346.348v7.703c0 .12-.002.241-.012.361-.008.098-.067.164-.169.175-.11.014-.224.02-.335.02-.876 0-1.752 0-2.629.002-.106 0-.217-.023-.34.04h-.002ZM98.478 78.636v4.227c0 .648-.082 1.286-.26 1.91-.285.99-.793 1.853-1.568 2.557-.696.633-1.528 1.026-2.44 1.27-1.075.29-2.165.345-3.27.232a7.545 7.545 0 0 1-2.115-.515c-1.193-.49-2.097-1.289-2.698-2.409-.406-.757-.613-1.566-.688-2.413a15.488 15.488 0 0 1-.042-1.342v-7.8c0-.12-.003-.24.005-.36.016-.222.064-.27.284-.282.067-.005.134-.004.202-.004h3.031c.453 0 .463.01.463.468v8.39c0 .384.017.762.12 1.136.169.604.541 1.046 1.094 1.353.207.115.433.18.667.218.458.075.917.087 1.372-.013 1.065-.235 1.75-.995 1.845-2.106.015-.185.012-.37.012-.557v-8.325c0-.12-.002-.24.008-.36.012-.138.07-.187.218-.199.077-.006.156-.005.235-.005h3.066c.089 0 .18 0 .27.01.107.013.164.062.176.167.012.109.013.219.013.327V78.636ZM76.282 82.842v-5.31c0-.302-.154-.453-.462-.453h-3.233c-.462 0-.474-.012-.474-.46v-2.457c0-.435.015-.451.447-.451h11.017c.09 0 .18.002.27.01.1.008.166.065.181.164.014.085.02.174.02.26v2.557c-.011.33-.05.374-.397.375-1.033.004-2.066 0-3.099.002-.101 0-.202-.002-.303 0-.268.008-.3.04-.309.313-.003.098 0 .197 0 .295v10.39c0 .132 0 .263-.011.394-.016.14-.075.19-.216.207-.067.007-.135.007-.202.007h-2.796c-.41 0-.428-.02-.428-.433v-5.41h-.005ZM107.496 41.11h5.391c.113 0 .224-.002.337.006.145.01.194.06.209.207.008.075.007.152.007.23v2.457c0 .445-.024.47-.471.47h-3.132c-.337 0-.506.16-.507.481v10.49c0 .13.001.261-.007.393-.012.155-.067.206-.233.226-.077.01-.156.01-.235.01h-2.695c-.101 0-.202-.007-.302-.018-.102-.012-.161-.079-.168-.176a5.169 5.169 0 0 1-.012-.393V45.037c0-.12.002-.242-.008-.361-.01-.125-.064-.176-.191-.187-.101-.01-.202-.008-.303-.008h-3.166a2.9 2.9 0 0 1-.336-.018.14.14 0 0 1-.124-.135 2.245 2.245 0 0 1-.005-.164v-2.622c0-.424.005-.43.46-.43h5.491v-.003Z" fill="#212121"/></svg>