<svg width="230" height="130" fill="none" xmlns="http://www.w3.org/2000/svg"><g clip-path="url('#clip0_1380_46527')"><path d="M112.392 59.708h8v16h5.333v-16h6.667l2.667-5.333h-22.667v5.333Zm48 0h-8v16h-5.333v-16h-9.334l2.667-5.333h20v5.333ZM91.737 54.375h-6.012v21.334h5.334v-5.333h10.666v-5.334H91.059V59.71h16v-5.333H91.731h.006v-.001Zm80 0h-6.012v21.334h5.334v-5.333h10.666v-5.334h-10.666V59.71h16v-5.333h-15.328.006v-.001Z" fill="#212121"/><mask id="mask0_1380_46527" style="mask-type:luminance" maskUnits="userSpaceOnUse" x="43" y="49" width="33" height="33"><path d="M43.044 65.043c0-8.836 7.164-16 16-16s16 7.164 16 16-7.164 16-16 16c-8.837 0-16-7.163-16-16Z" fill="#fff"/></mask><g mask="url('#mask0_1380_46527')" fill="#212121"><path opacity=".8" fill-rule="evenodd" clip-rule="evenodd" d="M64.941 41.07H53.147v11.795h.067L42.598 70.557h-7.143v11.795H47.25V78.42h23.588v3.932h11.796V70.557H75.49L64.875 52.865h.067L64.94 41.07ZM47.25 74.488h23.588v-3.931h.067L60.29 52.865h-2.492L47.183 70.557h.067v3.931Zm9.828-25.554v-3.932h3.932v3.932h-3.932ZM74.77 74.488v3.932h3.932v-3.932H74.77ZM39.386 78.42v-3.932h3.932v3.932h-3.932Z"/><path opacity=".6" fill-rule="evenodd" clip-rule="evenodd" d="m64.257 82.537 10.214-5.897-5.897-10.215-.058.033.347-20.629 6.187-3.571-5.898-10.215-10.214 5.897 1.966 3.405-20.43 11.795-1.966-3.404-10.214 5.897 5.898 10.214 6.186-3.572 18.039 10.014-.057.033 5.897 10.215ZM62.87 44.75 42.44 56.544l1.966 3.405-.058.033 18.039 10.014 2.158-1.246.347-20.629-.058.033-1.965-3.404Zm4.265 27.046 1.966 3.404-3.405 1.966-1.966-3.405 3.405-1.965ZM39.036 58.51l-1.966-3.404-3.404 1.966 1.965 3.404 3.405-1.966Zm28.678-21.096 1.965 3.404-3.405 1.966-1.966-3.404 3.406-1.966Z"/><path opacity=".4" fill-rule="evenodd" clip-rule="evenodd" d="m38.23 66.92 5.897 10.213 10.215-5.897-.033-.057 20.629.347 3.571 6.186 10.215-5.898L82.826 61.6l-3.404 1.966-11.796-20.429 3.404-1.965-5.896-10.215-10.215 5.897 3.572 6.187L48.477 61.08l-.033-.058-10.215 5.898Zm37.786-1.388L64.222 45.103l-3.405 1.966-.034-.058L50.77 65.05l1.245 2.158 20.63.347-.034-.057 3.405-1.966ZM48.97 69.797l-3.404 1.966-1.966-3.405 3.404-1.966 1.967 3.405Zm13.286-28.099 3.404-1.966-1.965-3.404-3.405 1.966 1.966 3.404Zm21.097 28.678-3.405 1.965-1.966-3.405 3.404-1.965 1.967 3.405Z"/><path opacity=".2" fill-rule="evenodd" clip-rule="evenodd" d="M44.117 46.285 38.22 56.499l10.214 5.897.033-.057 10.014 18.039-3.57 6.186 10.213 5.897 5.897-10.214-3.404-1.966L79.41 59.853l3.405 1.966 5.897-10.215L78.5 45.707l-3.572 6.187-20.629.346.033-.057-10.214-5.898Zm20.095 32.03 11.795-20.429-3.406-1.965.034-.058-20.629.347-1.247 2.158 10.016 18.038.033-.057 3.405 1.966Zm-17.217-21.29L43.59 55.06l1.966-3.404 3.405 1.965-1.966 3.405Zm30.977-2.543 3.405 1.966 1.966-3.405-3.405-1.966-1.966 3.405ZM63.685 87.09l-3.404-1.965 1.965-3.405 3.405 1.966-1.966 3.404Z"/><path d="M43.044 56.363v1.733c9.438-.806 20.724-3.075 32-8.424v-.79c-11.46 5.238-22.08 6.69-29.86 7.323-.728.06-1.44.113-2.14.158Zm0 8.043c9.621-2.245 21.024-5.846 32-11.6v-1.291c-11.19 5.618-22.64 8.748-32 10.487v2.404Zm0 11.349c8.504-4.279 20.35-10.745 32-18.8v-2.527c-11.678 7.34-23.524 12.978-32 16.627v4.7Zm7.347 5.128h4.092c6.06-4.415 13.275-10.036 20.56-16.527v-1.28a413.96 413.96 0 0 1-4.955 3.978c-6.956 5.507-13.942 10.218-19.697 13.829Zm-7.347 0h2.982c8.211-4.897 18.721-11.697 29.017-19.855v-.786c-13.236 9.788-24.387 16.483-32 20.624v.017Z"/><path fill-rule="evenodd" clip-rule="evenodd" d="M44.964 65.043c0 7.777 6.304 14.08 14.08 14.08s14.08-6.303 14.08-14.08-6.304-14.08-14.08-14.08c-7.777 0-14.08 6.304-14.08 14.08Zm14.08-16c-8.836 0-16 7.164-16 16s7.164 16 16 16 16-7.163 16-16-7.164-16-16-16Z"/></g></g><defs><clipPath id="clip0_1380_46527"><path fill="#fff" transform="translate(43 49)" d="M0 0h144v32H0z"/></clipPath></defs></svg>