<svg width="230" height="130" fill="none" xmlns="http://www.w3.org/2000/svg"><g clip-path="url('#clip0_1380_46517')" fill="#212121"><path d="M136.472 56.65h-5.667v-1.276c0-1.296-.299-2.402-.919-3.337-.62-.935-1.647-1.402-3.079-1.402-.77 0-1.412.148-1.925.446-.492.297-.898.68-1.176 1.126a4.727 4.727 0 0 0-.578 1.594 11.067 11.067 0 0 0-.171 1.913c0 .765.022 1.424.086 1.956.064.53.192.998.406 1.381.214.383.556.723.962 1.02.428.298 1.006.595 1.754.893l4.341 1.721c1.262.49 2.288 1.042 3.058 1.68.77.637 1.39 1.402 1.796 2.274.428.871.706 1.849.856 2.975.149 1.127.213 2.402.213 3.847 0 1.658-.171 3.188-.491 4.612-.343 1.424-.877 2.636-1.647 3.635-.77 1.02-1.775 1.806-3.037 2.401-1.261.596-2.801.893-4.619.893-1.368 0-2.651-.234-3.827-.722a9.288 9.288 0 0 1-3.058-1.956c-.856-.829-1.519-1.806-2.032-2.954a9.293 9.293 0 0 1-.748-3.698v-2.105h5.667v1.765c0 1.041.299 1.955.919 2.784.62.829 1.647 1.233 3.079 1.233.963 0 1.711-.128 2.246-.404a2.813 2.813 0 0 0 1.219-1.17c.278-.488.449-1.104.534-1.848.064-.744.107-1.552.107-2.423 0-1.02-.043-1.87-.107-2.53-.064-.658-.235-1.19-.47-1.594a2.823 2.823 0 0 0-1.005-.998 13.858 13.858 0 0 0-1.69-.83l-4.063-1.657c-2.437-1-4.084-2.317-4.918-3.953-.834-1.637-1.24-3.699-1.24-6.164 0-1.467.192-2.87.62-4.187.406-1.318 1.005-2.465 1.796-3.422.791-.956 1.796-1.721 3.037-2.295 1.219-.574 2.651-.85 4.277-.85 1.411 0 2.694.255 3.87.765a9.324 9.324 0 0 1 2.994 2.04c.834.85 1.475 1.785 1.925 2.848a8.093 8.093 0 0 1 .662 3.23v2.742h.043ZM152.895 84.66h-5.004l-8.04-39.32h5.987l4.491 27.439h.107l4.576-27.44h6.009l-8.126 39.32ZM111.025 50.418a9.205 9.205 0 0 0-1.069-1.785l-3.764 8.246v18.513c0 1.36-.385 2.359-1.133 3.018-.77.637-1.668.956-2.695.956-1.047 0-1.946-.319-2.694-.956-.77-.638-1.133-1.658-1.133-3.018v-1.764L94.9 81.576c.3.383.642.723 1.005 1.042a9.394 9.394 0 0 0 3.058 1.785c1.134.404 2.267.617 3.422.617 1.154 0 2.288-.213 3.421-.617a9.61 9.61 0 0 0 3.058-1.785c.898-.786 1.647-1.785 2.203-2.976.556-1.19.834-2.614.834-4.23V54.627c-.043-1.594-.321-2.996-.877-4.208ZM87.438 56.67h-5.667v-1.275c0-1.296-.299-2.401-.92-3.337-.62-.935-1.646-1.402-3.079-1.402-.77 0-1.41.148-1.924.446-.492.298-.898.68-1.176 1.127-.278.467-.47.998-.578 1.594a10.978 10.978 0 0 0-.17 1.912c0 .766.02 1.425.085 1.956.064.531.192.999.406 1.381.214.383.556.723.962 1.02.428.298 1.005.596 1.754.893l4.341 1.722c1.262.467 2.288 1.041 3.058 1.679a6.993 6.993 0 0 1 1.796 2.253c.428.871.706 1.87.856 2.975.15 1.127.213 2.402.213 3.847 0 1.658-.17 3.188-.491 4.612-.343 1.424-.877 2.636-1.647 3.635-.77 1.02-1.775 1.806-3.037 2.401-1.261.596-2.8.893-4.619.893-1.368 0-2.651-.234-3.827-.722a9.29 9.29 0 0 1-3.058-1.956c-.856-.829-1.519-1.806-2.032-2.954A10.553 10.553 0 0 1 68 75.65v-2.104h5.667v1.764c0 1.02.3 1.956.92 2.785.62.829 1.646 1.232 3.079 1.232.962 0 1.71-.148 2.245-.403a2.81 2.81 0 0 0 1.219-1.17c.278-.488.449-1.105.534-1.849a28.08 28.08 0 0 0 .107-2.422c0-1.02-.042-1.87-.107-2.551-.085-.659-.235-1.19-.47-1.594a2.82 2.82 0 0 0-1.005-.999 13.844 13.844 0 0 0-1.69-.829l-4.063-1.658c-2.437-.956-4.084-2.274-4.918-3.91-.834-1.637-1.24-3.699-1.24-6.164 0-1.467.214-2.87.62-4.187.406-1.318 1.005-2.465 1.796-3.422.791-.956 1.797-1.721 3.037-2.295 1.219-.574 2.651-.85 4.277-.85 1.411 0 2.694.255 3.87.765a9.32 9.32 0 0 1 2.994 2.04c.834.85 1.476 1.785 1.925 2.848a8.092 8.092 0 0 1 .663 3.23v2.764h-.022ZM98.515 54.628c0-1.36.385-2.36 1.133-3.018.77-.638 1.669-.956 2.695-.956.15 0 .299 0 .449.02l2.416-5.249a10.014 10.014 0 0 0-2.844-.425c-1.154 0-2.288.212-3.421.616a9.393 9.393 0 0 0-3.058 1.786c-.898.786-1.647 1.785-2.203 3.018-.556 1.211-.834 2.614-.834 4.208v20.765c0 1.615.278 3.04.834 4.23.343.722.727 1.36 1.198 1.955l3.635-7.949v-19Z"/></g><defs><clipPath id="clip0_1380_46517"><path fill="#fff" transform="translate(68 45)" d="M0 0h93v40H0z"/></clipPath></defs></svg>