<svg width="230" height="130" fill="none" xmlns="http://www.w3.org/2000/svg"><g clip-path="url('#clip0_765_9050')" fill="#212121"><path d="M64.556 45c2.099 2.07 3.823 4.405 5.05 7.093 1.39 3.041 1.937 6.207 1.461 9.533-.074.518-.114 1.042-.159 1.564-.01.13.023.262.036.393l.163.024.593-1.946c.13.146.218.232.293.33 1.05 1.407 2.107 2.809 3.138 4.23.15.207.235.502.244.76.03.83.011 1.664.011 2.55h-1.9c-.847 0-1.693.012-2.54-.006-.353-.008-.55.05-.554.473-.003.476-.09.95-.151 1.502h-2.238c-1.216 0-1.196 0-1.253 1.227-.183 3.918-.38 7.837-.578 11.754-.009.173-.076.345-.117.516h-.197c-.035-.258-.091-.516-.1-.775-.053-1.477-.087-2.954-.142-4.43-.21-5.645-.425-11.288-.641-16.932-.004-.113-.04-.225-.062-.339l-.129-.003c-.024.132-.061.263-.068.395a8454.72 8454.72 0 0 0-.427 8.708c-.119 2.443-.232 4.887-.366 7.33-.012.226-.148.446-.227.669-.07-.235-.19-.467-.202-.705-.106-2.312-.192-4.625-.29-6.938-.006-.136-.06-.377-.116-.385-.322-.042-.662-.073-.975-.007-.096.02-.168.354-.177.547-.085 1.82-.151 3.641-.235 5.462-.006.14-.108.275-.164.412-.08-.139-.213-.272-.23-.419-.177-1.484-.334-2.97-.5-4.454-.059-.515-.13-1.03-.2-1.58h-.888c-.74.002-1.15-.368-1.232-1.11-.096-.881-.096-.876-.996-.882-1.498-.01-2.996-.027-4.494-.04.003-.858.003-1.727.003-2.588 0-.261.09-.52.276-.704a.603.603 0 0 0 .047-.053c.686-.817 1.364-1.642 2.047-2.463.53-.638 1.065-1.273 1.645-1.965l.632 1.855.194-.04c-.046-.631-.083-1.263-.137-1.893-.132-1.57-.255-3.137.005-4.71.787-4.746 3.153-8.633 6.55-11.96h.297Zm-2.427 9.303c.003 1.13.83 2.11 1.944 2.318 1.475.274 2.81-.914 2.804-2.353-.007-1.28-1.079-2.335-2.373-2.336a2.361 2.361 0 0 0-2.375 2.371ZM176.842 77.74l.06 1.145c-1.194 1.9-3.381 2.544-5.441 1.596-.133-.062-.279-.24-.296-.378-.042-.35-.014-.71-.014-1.04.64.218 1.224.498 1.838.604.519.088 1.079.021 1.608-.063.472-.076.782-.41.864-.899.077-.462-.076-.876-.459-1.121-.437-.28-.931-.477-1.4-.708-.5-.247-1.038-.437-1.493-.748-1.253-.857-1.263-2.697-.011-3.553 1.279-.875 2.683-.878 4.109-.405.105.035.226.194.237.306.03.336.011.676.011 1.095-.815-.444-1.62-.635-2.472-.548a2.46 2.46 0 0 0-.709.176c-.435.185-.706.522-.707 1.045-.001.45.266.86.666 1.069.37.192.763.339 1.139.522.543.266 1.127.485 1.606.84.356.264.584.7.865 1.065h-.001ZM93.727 51.88v9.87h-1.285V49.775c.553 0 1.12-.014 1.687.014.093.005.21.183.263.304 1.35 3.076 2.695 6.156 4.04 9.234.032.072.08.137.138.237.45-1.02.88-2.008 1.322-2.99.96-2.139 1.934-4.27 2.886-6.412.134-.302.299-.424.63-.401.408.027.82.006 1.292.006V61.85h-1.285v-9.961c-.057-.005-.081-.01-.106-.015-.643 1.443-1.284 2.887-1.928 4.329-.781 1.752-1.565 3.5-2.341 5.254-.093.208-.177.349-.452.349-.282 0-.406-.114-.511-.35-1.295-2.904-2.6-5.805-3.897-8.708-.132-.294-.237-.598-.354-.898-.03.011-.06.02-.1.032l.001-.001ZM163.023 79.496v5.177c-.417 0-.793.023-1.163-.016-.086-.01-.207-.23-.211-.356-.022-.616-.01-1.233-.01-1.85 0-3.3 0-9.752.099-9.752v-.606h1.285v1.314a.701.701 0 0 1 .142.049c.09-.095.188-.183.267-.285 1.568-2.009 4.728-1.709 5.737.618.807 1.86.689 3.742-.386 5.51-1.164 1.911-4.374 2.102-5.449.38-.032-.051-.312-.182-.312-.182l.001-.001Zm-.001-2.984.044.005c0 .23-.005.459 0 .688.03 1.27.85 2.28 2.03 2.504 1.223.231 2.355-.402 2.833-1.616a5.207 5.207 0 0 0 .24-3.045c-.28-1.304-1.136-2.042-2.342-2.062-1.296-.022-2.365.792-2.642 2.065-.104.475-.112.972-.163 1.46ZM124.174 70.318c-.941-.54-1.949-.727-2.999-.632a4.106 4.106 0 0 0-1.235.293c-1.165.496-1.42 1.946-.486 2.795.371.337.827.59 1.266.843.783.45 1.613.823 2.37 1.312 1.415.913 1.92 2.174 1.53 3.617-.308 1.136-1.141 1.745-2.203 2.046-1.48.42-2.958.305-4.42-.156-.422-.133-.63-.348-.572-.81.038-.303.007-.614.007-1l.474.254c1.2.635 2.463.918 3.812.648.715-.143 1.301-.49 1.51-1.248.216-.79.014-1.498-.641-1.976-.62-.451-1.32-.793-1.981-1.189-.689-.412-1.432-.76-2.051-1.26-1.628-1.315-1.437-3.656.353-4.74 1.117-.678 2.356-.772 3.625-.67.098.008.195.027.293.043 1.674.285 1.423.084 1.35 1.828l-.002.002ZM136.785 75.178c.153-1.683-.911-2.556-2.613-2.134-.656.163-1.269.497-1.954.775 0-.299-.025-.65.014-.995.015-.128.156-.283.282-.35 1.176-.62 2.421-.823 3.722-.505 1.087.266 1.779 1.08 1.858 2.265.076 1.143.069 2.293.083 3.44.012.948.002 1.897.002 2.891h-1.352V79.47l-.115-.043c-.113.126-.227.25-.339.378-.921 1.052-2.666 1.344-3.871.627-.922-.547-1.193-1.42-1.103-2.45.078-.894.854-1.846 1.716-2.105.788-.237 1.622-.345 2.435-.508.413-.082.833-.129 1.236-.19h-.001Zm.066 1.2a13.51 13.51 0 0 0-.176-.139c-1.027.203-2.068.355-3.076.629-.697.189-.934.712-.888 1.515.034.62.422 1.084 1.058 1.268 1.151.334 2.413-.26 2.795-1.412.195-.588.197-1.24.286-1.86l.001-.002ZM101.062 80.846c-2.865.022-4.385-2.151-4.18-4.859.101-1.34.544-2.519 1.69-3.35 1.47-1.063 4.488-1.164 5.885.624 1.174 1.503 1.401 5.236-.755 6.787-.795.573-1.677.803-2.64.798Zm2.945-4.526c-.067-.41-.109-.901-.234-1.371-.307-1.157-1.116-1.841-2.206-1.93-1.445-.115-2.436.397-2.958 1.546-.406.895-.438 1.836-.28 2.79.237 1.42 1.34 2.362 2.771 2.382 1.489.02 2.472-.78 2.761-2.265.069-.352.091-.711.145-1.153l.001.001ZM150.238 57.424c.015 1.407-.337 2.685-1.472 3.604-1.412 1.144-3.019 1.248-4.646.573-1.522-.632-2.206-1.918-2.291-3.505-.038-.696-.006-1.424.161-2.096.488-1.956 2.081-3.038 4.257-2.99 2.558.055 3.982 1.63 3.991 4.414Zm-1.341.165c-.054-.459-.075-.886-.157-1.3-.25-1.268-1.116-2.057-2.342-2.168-1.347-.123-2.417.469-2.908 1.649-.438 1.055-.451 2.149-.096 3.223.411 1.243 1.417 1.888 2.766 1.855 1.312-.033 2.176-.673 2.529-1.931.123-.437.144-.902.208-1.327v-.001ZM133.109 57.447c-.009 1.73-.53 3.229-2.17 4.05-1.487.745-3.034.733-4.464-.17-1.422-.897-1.847-2.321-1.813-3.911.025-1.174.296-2.276 1.142-3.159 1.183-1.234 3.244-1.641 4.986-.934 1.638.665 2.203 2.044 2.318 3.683.01.147.001.294.001.442Zm-1.302.055c-.092-.523-.132-1.068-.288-1.578-.322-1.057-1.069-1.677-2.175-1.791-1.119-.115-2.132.162-2.727 1.184-.816 1.403-.854 2.881-.039 4.298.648 1.128 1.752 1.368 2.952 1.196 1.068-.154 1.731-.824 2.018-1.842.132-.467.173-.96.26-1.467h-.001ZM157.783 79.332c-.17.162-.249.214-.298.287-.876 1.285-2.436 1.396-3.661.968-1.075-.375-1.598-1.286-1.643-2.338-.088-2.034-.026-4.075-.026-6.155h1.18v1.389a58.181 58.181 0 0 0-.058 3.544c.003.31.031.622.087.927.198 1.084.741 1.641 1.694 1.774.992.138 1.977-.372 2.366-1.314.183-.442.284-.947.296-1.426.038-1.475.013-2.952.015-4.43 0-.143.016-.287.027-.366h1.307v8.375h-1.286v-1.235ZM94.029 72.095h2.02c0 .287-.012.527.003.766.017.275-.1.375-.373.368-.533-.013-1.067-.004-1.654-.004v7.343h-1.187v-7.39h-1.482v-1.181h1.422c0-.548-.027-1.135.005-1.717.09-1.657 1.522-2.768 3.172-2.513.386.059.552.197.496.593-.03.206-.005.42-.005.629-.343-.037-.635-.092-.927-.095-.746-.007-1.238.365-1.345 1.099-.097.658-.144 2.102-.144 2.102h-.001ZM134.696 60.078c.97.637 1.942.855 2.993.751.961-.094 1.549-.745 1.234-1.523-.152-.377-.56-.718-.936-.927-.685-.382-1.462-.6-2.145-.983-1.527-.857-1.559-2.878-.063-3.788.424-.258.931-.482 1.415-.52.743-.059 1.501.045 2.25.107.4.033.615.247.544.691-.038.233-.007.477-.007.64-.781-.143-1.509-.309-2.247-.394-.291-.034-.617.08-.904.185-.43.159-.704.483-.749.953-.046.486.152.883.573 1.117.413.23.867.39 1.295.596.516.248 1.066.453 1.527.781 1.232.876 1.231 2.662-.021 3.509-1.427.965-2.974.892-4.526.306-.108-.04-.21-.235-.222-.366-.03-.34-.011-.686-.011-1.135ZM156.202 53.249v1.01h-1.048c-.619 0-.928.324-.928.973V61.747h-1.384v-.598c0-2.117-.009-4.234.008-6.35.003-.388-.106-.54-.51-.5-.313.03-.63.006-.981.006v-1.057c.321 0 .619-.024.911.006.426.042.615-.087.574-.547-.038-.412-.016-.832.001-1.246.072-1.778 1.684-2.995 3.409-2.56.125.031.271.225.294.362.046.273.014.56.014.872-.253-.057-.459-.115-.669-.147-.79-.123-1.481.286-1.618 1.058-.112.632-.101 1.288-.103 1.934 0 .088.232.249.363.256.544.03 1.09.012 1.669.012h-.002ZM148.195 72.094h2.175v1.083h-2.026s-.095.119-.096.143c-.005 1.722-.038 3.445.002 5.165.023.978.706 1.42 1.662 1.178.141-.035.281-.078.492-.137 0 .282.033.541-.013.785-.026.142-.156.34-.279.376-.708.203-1.433.246-2.119-.077-.927-.438-1.097-1.302-1.115-2.192-.03-1.525-.009-3.05.031-4.576v-.665h-1.483v-1.182h1.443c0-.528.015-1.082-.006-1.633-.011-.293.069-.456.373-.52.314-.069.62-.182.958-.295v2.546h.001ZM130.322 79.52c.104 1.15.013 1.252-1.1 1.267-1.675.022-2.461-.747-2.477-2.458-.015-1.51-.002-3.02 0-4.529v-.578c-.377 0-.726-.02-1.071.006-.36.026-.491-.105-.451-.449.024-.207.004-.42.004-.682h1.518c0-.58.029-1.109-.012-1.633a.618.618 0 0 1 .509-.652c.28-.051.548-.154.887-.253v2.44h2.076v1.182h-2.076v4.678c.003 1.663.538 2.077 2.194 1.663l-.001-.003ZM159.403 54.26v1.33c.001 1.141-.011 2.284.007 3.426.016 1.117.913 1.797 1.973 1.433.043-.015.09-.02.195-.04 0 .287.031.557-.013.815-.021.12-.169.264-.293.312-1.687.648-3.189-.315-3.213-2.07-.021-1.58-.018-3.161.002-4.743a.458.458 0 0 0-.503-.471c-.307.028-.62.005-.962.005v-1.065c.213 0 .404.002.595 0 1.06-.01.807.12.852-1.07a5.006 5.006 0 0 0-.008-.67c-.025-.286.059-.44.342-.509.311-.074.613-.188.987-.306v2.539h2.175v1.083h-2.137l.001.001ZM117.477 54.603c-.704-.172-1.344-.43-1.995-.464-1.299-.07-2.235.575-2.765 1.753-.45 1-.469 2.046-.121 3.074.584 1.725 2.543 2.408 4.281 1.522.169-.087.335-.18.492-.264.04.044.06.055.061.068.092 1.153-.008 1.292-1.136 1.567-3.106.76-5.649-1.53-5.273-4.71.175-1.482.71-2.733 2.033-3.523 1.263-.756 2.618-.762 4.004-.383.324.089.459.263.425.601-.026.272-.006.549-.006.759ZM124.058 54.488c-.249-.062-.442-.13-.64-.157-1.004-.132-1.797.242-2.182 1.15a5.147 5.147 0 0 0-.408 1.748c-.06 1.338-.02 2.68-.022 4.021v.498h-1.377v-8.473h1.384v1.505c.377-.442.691-.885 1.083-1.25.468-.434 1.082-.51 1.717-.449.329.031.483.17.45.505-.028.287-.006.578-.006.9l.001.002ZM111.794 73.303c-1.812-.42-2.954.503-3.013 2.422-.042 1.404-.014 2.81-.016 4.214v.628h-1.297v-8.473h1.285v1.469l.097.026c.101-.17.202-.342.305-.511.524-.865 1.276-1.25 2.281-1.137.258.028.376.117.362.392-.016.308-.004.618-.004.97ZM141.943 80.565h-1.261v-8.472h1.285v1.436l.131.036c.076-.127.157-.252.229-.38.516-.927 1.294-1.355 2.371-1.252.3.028.456.113.429.442-.023.29-.005.585-.005.888-.068.012-.118.037-.154.023-1.388-.537-2.432.272-2.805 1.587-.124.434-.176.9-.184 1.352-.024 1.338-.008 2.678-.01 4.017 0 .095-.015.19-.026.324ZM108.852 61.75h-1.187v-8.473h1.187v8.473ZM81.865 48.762v32.386c-.316-.383-.316-31.993 0-32.386ZM108.294 49.21c.461.008.876.43.871.889-.005.486-.429.877-.937.862-.492-.015-.828-.384-.816-.9a.86.86 0 0 1 .882-.85Z"/></g><defs><clipPath id="clip0_765_9050"><path fill="#fff" transform="translate(53 45)" d="M0 0h123.902v40H0z"/></clipPath></defs></svg>