<svg width="230" height="130" fill="none" xmlns="http://www.w3.org/2000/svg"><path d="M81.626 84.27c-.236-.044-.471-.066-.707-.11-.9-.177-1.822-.31-2.723-.531-1.371-.332-2.658-.906-3.88-1.592-.857-.486-1.693-.995-2.443-1.658-.58-.508-1.2-.973-1.737-1.525a18.762 18.762 0 0 1-3.108-4.245 20.563 20.563 0 0 1-1.865-4.952c-.15-.686-.257-1.371-.321-2.056-.065-1.084-.13-2.167-.108-3.25 0-.752.193-1.526.3-2.277.15-1.084.472-2.1.837-3.118a18.863 18.863 0 0 1 2.358-4.532 18.943 18.943 0 0 1 2.186-2.564c.943-.951 1.994-1.747 3.13-2.454 1.286-.796 2.636-1.438 4.094-1.858a22.86 22.86 0 0 1 2.765-.619c.88-.132 1.78-.199 2.659-.199.793 0 1.586.089 2.379.2 2.68.331 5.145 1.26 7.374 2.785 4.394 2.963 7.074 7.119 8.082 12.425.278 1.481.343 2.984.235 4.466-.3 3.67-2.572 6.411-6.109 6.964-1.822.287-3.601.11-5.252-.752-1.822-.928-2.958-2.454-3.43-4.51-.193-.84-.321-1.724-.257-2.587.129-1.746.515-3.404 1.608-4.82.75-.972 1.758-1.392 2.958-1.436 1.2-.067 2.25.31 3.13 1.105.707.641 1.2 1.437 1.372 2.41.042.265.021.553.042.84h-7.374v3.736h12.712c0-.376.022-.773 0-1.15a29.127 29.127 0 0 0-.193-1.923c-.3-1.99-.964-3.869-2.143-5.505-1.544-2.122-3.602-3.426-6.153-3.758-3.837-.508-7.91 1.526-9.732 5.195-.428.84-.707 1.747-.879 2.675-.128.642-.236 1.283-.257 1.924-.214 4.797 1.65 8.512 5.616 11.076 1.415.907 2.959 1.504 4.588 1.857a9.61 9.61 0 0 0 3.28.11c.664-.088 1.329-.242 1.993-.353h.215c-.43.464-.815.907-1.222 1.304-2.53 2.477-5.488 4.113-8.896 4.842-.772.177-1.587.243-2.38.354a.299.299 0 0 0-.129.044h-2.615v.022ZM73.502 63.6c-.965-.11-2.08.862-2.08 2.1 0 1.172.922 2.079 1.93 2.123 1.393.066 2.186-1.128 2.186-1.968 0-1.37-.814-2.277-2.058-2.277l.022.022ZM153.138 62.272h-4.587c-.043-.663.086-1.282.214-1.901.622-2.697 2.38-4.2 4.909-4.864 1.372-.354 2.765-.376 4.159-.31 1.136.045 2.251.111 3.322.531 1.544.597 2.766 1.57 3.495 3.117.343.73.45 1.526.536 2.322.085.796.15 1.57.15 2.365.042 2.764.042 5.527.064 8.29 0 .554-.043 1.106 0 1.637.086.928.193 1.88.6 2.741v.11h-4.609c-.214 0-.321-.065-.386-.264-.15-.465-.3-.929-.45-1.415-.043.022-.085.066-.15.088-1.479 1.238-3.151 1.946-5.059 2.123-.471.044-.964.088-1.436.044-2.058-.155-3.901-.818-5.295-2.476-.793-.951-1.179-2.056-1.307-3.294-.279-2.52 1.264-4.688 3.172-5.704 1.265-.664 2.594-1.017 3.987-1.194 1.222-.155 2.466-.221 3.645-.597a5.15 5.15 0 0 0 1.35-.663c.45-.288.643-.774.665-1.327.064-1.127-.515-1.835-1.437-2.233-1.329-.597-2.701-.663-4.03.044-.771.398-1.243 1.084-1.436 1.968-.064.265-.086.553-.129.84l.043.022Zm7.289 3.736c-.386.2-.729.465-1.115.597-.622.221-1.243.354-1.886.509-.944.243-1.887.42-2.809.707-.964.31-1.629.973-1.95 1.99-.236.796-.086 1.481.407 2.1.429.53 1.029.818 1.715.951 1.458.265 2.829 0 4.094-.774.75-.464 1.286-1.15 1.372-2.078.086-.73.129-1.46.15-2.189.022-.597 0-1.216 0-1.79l.022-.023ZM125.635 67.603h-12.584v-3.758h7.246c.086-1.548-.579-2.675-1.715-3.56-1.929-1.48-5.638-1.15-6.774 2.322a8.37 8.37 0 0 0-.407 2.034c-.043.575-.086 1.15-.043 1.702.086 1.349.257 2.697.943 3.891.75 1.305 1.908 2.012 3.323 2.322 2.251.486 4.223-.774 4.823-2.897 0-.066.043-.11.064-.177h5.145c-.064.752-.322 1.46-.643 2.123-.536 1.15-1.222 2.188-2.144 3.029-1.222 1.127-2.679 1.79-4.266 2.144-.643.133-1.307.243-1.95.265-1.544.045-3.023-.31-4.416-.994-3.044-1.482-4.909-3.936-5.681-7.296-.236-1.061-.364-2.145-.3-3.25.172-2.962 1.136-5.571 3.173-7.694 1.393-1.437 3.108-2.255 5.059-2.476.621-.066 1.243-.132 1.865-.088 3.279.243 5.83 1.702 7.481 4.709a14.396 14.396 0 0 1 1.565 4.178c.214 1.04.321 2.1.278 3.184 0 .11-.042.22-.042.354v-.067ZM144.562 62.338h-4.159c-.129 0-.193-.044-.214-.199-.065-1.768-1.201-2.83-2.466-3.117-1.2-.265-2.379-.243-3.494.332-.686.354-1.179.906-1.265 1.68-.085.641.172 1.216.708 1.592.471.354 1.029.508 1.586.64.965.2 1.908.355 2.873.532 1.2.22 2.401.442 3.558.906 2.551.995 3.559 3.05 3.473 5.527-.129 3.184-1.972 5.638-5.445 6.456-.6.132-1.243.22-1.865.265-.643.044-1.286.088-1.908.044-1.929-.133-3.751-.641-5.316-1.88-1.436-1.149-2.229-2.718-2.594-4.51-.064-.287-.064-.596-.107-.883v-.133h4.266c.193 0 .257.044.3.243.129.508.279 1.04.493 1.526.321.751.9 1.282 1.651 1.57 1.436.552 2.872.508 4.287-.111.943-.42 1.5-1.15 1.457-2.255 0-.774-.342-1.393-1.05-1.636a14.744 14.744 0 0 0-2.208-.575c-1.522-.288-3.065-.553-4.523-1.084a13.243 13.243 0 0 1-1.715-.773c-1.179-.642-1.929-1.658-2.315-2.963-.15-.508-.257-1.039-.257-1.57.021-2.365 1.007-4.222 3.022-5.438.879-.53 1.801-.907 2.809-1.04a12.569 12.569 0 0 1 2.572-.154 9.69 9.69 0 0 1 4.952 1.481c1.5.95 2.336 2.366 2.701 4.112.107.487.107.973.15 1.504l.043-.089Z" fill="#212121"/></svg>