<svg width="230" height="130" fill="none" xmlns="http://www.w3.org/2000/svg"><path d="m157.932 87.615.151-.071c-.378 0-.68-.141-.982-.353-.226-.14-.226-.14 0-.352.076-.141.227-.282.302-.353.151 0 .227.141.378.212.528.352.981.352 1.434 0 .302-.212.377-.494.377-.847 0-.14-.075 0-.151 0-.302.141-.604.212-.905.282-.68 0-1.51-.493-1.661-1.34-.151-.705.076-1.27.755-1.693.604-.352 1.207-.352 1.887 0 .075 0 .151.071.151 0 0-.07.075-.14.151-.14.679 0 .604-.071.604.493v2.398c0 .776-.378 1.481-1.359 1.693 0 0-.151 0-.151.07h-.981Zm-.302-3.104c0 .564.377.917.981.917.528 0 .906-.353.906-.917 0-.635-.378-.987-.906-.987-.604 0-.981.352-.981.987ZM74.528 87.613l.151-.07c-.377 0-.68-.142-.906-.283-.301-.211-.301-.211-.075-.493.302-.353.302-.353.604-.07.453.281.83.422 1.358.14a.8.8 0 0 0 .529-.917c0-.14-.076-.07-.151 0-.302.141-.604.282-.906.212-.68 0-1.208-.282-1.51-.846-.301-.565-.301-1.2.151-1.764.529-.635 1.434-.846 2.19-.423.075 0 .226.141.226 0 0 0 0-.07.15-.07.755 0 .605-.141.605.564v2.327c0 .212 0 .494-.151.706-.227.493-.604.846-1.133.987 0 0-.15 0-.15.07h-1.057l.075-.07Zm1.66-3.103c0-.635-.377-.988-.98-.988-.604 0-.982.353-.982.988 0 .493.378.917.981.846.529 0 .982-.353.906-.917l.076.07ZM112.266 87.61c.076-.14 0-.07-.075-.14-.302 0-.604-.212-.83-.353-.151-.07-.151-.141 0-.282s.226-.353.377-.423c.151 0 .302.14.453.282.453.282.906.282 1.359 0 .377-.212.377-.564.452-.917 0 0 0-.07-.075 0h-.076c-.603.423-1.509.282-2.037-.07-.529-.424-.755-1.13-.529-1.834.302-.988 1.585-1.411 2.491-.847.151.07.226.07.226 0s.076-.14.151-.14c.529-.071.604 0 .604.422v2.61c0 .776-.453 1.34-1.207 1.552-.076 0-.151 0-.227.07h-.981l-.076.07Zm.68-4.09c-.604 0-.982.353-.982.846 0 .635.453.988.906.988.604 0 .981-.353 1.057-.847 0-.493-.302-.987-.906-.987h-.075ZM144.724 62.29c.151.141.302 0 .453.07 2.264.494 4.529.988 6.718 1.693 1.434.423 2.868.917 4.226 1.552.227.07.453.212.453.494 0 .211 0 .493-.151.635-.226.211-.452.282-.679.14-.528-.14-.981-.352-1.434-.564a47.957 47.957 0 0 0-6.189-1.904c-1.812-.423-3.623-.776-5.435-1.129-.905-.14-1.736-.352-2.641-.493-.378-.07-.831-.141-1.284-.212 0 .07.151.07.151.07 2.038.353 4.001.847 5.963 1.27 2.114.494 4.227 1.058 6.34 1.834 2.038.705 4.001 1.552 5.812 2.68.227.141.529.282.68.494.226.212.301.423.15.705-.075.282-.301.424-.603.494-.227 0-.453-.07-.68-.212-.453-.282-.905-.564-1.358-.775a30.886 30.886 0 0 0-5.51-2.258c-1.963-.634-3.925-1.128-5.963-1.622-2.34-.564-4.604-.987-6.944-1.48-2.642-.565-5.359-1.059-8.001-1.553-3.019-.634-6.113-1.34-9.057-2.257-1.963-.634-3.85-1.27-5.586-2.257-.151-.07-.377-.14-.452-.352 0-.212.226-.212.377-.353.755-.353 1.283-.917 1.811-1.481.227-.282.227-.282.604-.141a69.043 69.043 0 0 0 8.982 2.75c2.038.494 4.076.917 6.114 1.27 1.585.282 3.095.494 4.68.705 1.66.212 3.396.353 5.057.565 2.264.211 4.453.564 6.717.917 1.887.282 3.85.634 5.737 1.058.377.07.754.211 1.132.282.453.14.604.423.453.846-.076.353-.453.494-.831.423-1.132-.282-2.188-.564-3.321-.776-1.509-.282-2.943-.564-4.453-.775-.679-.07-1.283-.212-1.962-.282h-.302l.226-.071Z" fill="#212121"/><path d="M149.855 56.155c.377 0 .754 0 1.132-.14 1.736-.283 3.547-.565 5.283-.988.378-.07.755.14.831.493.075.353 0 .706-.453.776-.529.212-1.057.282-1.661.353a64.8 64.8 0 0 1-5.132.846 57.545 57.545 0 0 1-4.907.424c-.754 0-1.585.14-2.339.14h-.151c.075.071.226 0 .302 0h1.887c1.887 0 3.849-.07 5.736-.211 1.585-.07 3.17-.212 4.755-.423.302 0 .528 0 .679.282.151.212.151.423 0 .705-.151.212-.302.353-.603.353-1.057.07-2.114.212-3.171.282-.981.07-1.887.141-2.868.212-1.207 0-2.491.07-3.698.14-2.189.071-4.302 0-6.491-.14a58.439 58.439 0 0 1-5.057-.424c-1.51-.211-3.02-.493-4.529-.776-3.019-.634-6.038-1.34-8.982-2.256-1.208-.353-2.34-.776-3.548-1.2-.15 0-.15-.14-.075-.211.075-.141.151-.353.226-.494 0-.07 0-.14.151-.14.68-.213 1.359-.424 1.887-.918.076-.07.227 0 .378 0l3.849.847c2.265.423 4.529.846 6.793 1.128a87.25 87.25 0 0 0 6.189.635c1.736.14 3.472.14 5.208.14 2.869 0 5.661-.21 8.454-.775 2.415-.494 4.68-1.199 6.869-2.328.226-.14.528-.282.754-.423.378-.211.755-.14.982.212.226.353.151.705-.227.917-1.057.635-2.113 1.199-3.321 1.622-1.208.423-2.415.846-3.623 1.129-.528.14-.981.211-1.509.352v-.14ZM113.703 64.406c0 .705-.076 1.692-.076 2.75 0 .847.151 1.693.302 2.47 0 0 .075.14 0 .14h-.151c-.981-.423-1.887-.917-2.642-1.693-.528-.564-.755-1.128-.83-1.833-.075-1.2-.226-2.398-.302-3.597 0-.706-.075-1.411-.302-2.117-.075-.282-.226-.564-.302-.846v-.14h.151c1.359.422 2.566 1.057 3.472 2.115.604.705.755 1.622.755 2.821l-.075-.07ZM125.553 74.492c-1.887.282-3.472 0-4.982-1.058-.226-.211-.453-.423-.603-.705-.68-1.34-1.133-2.68-1.208-4.161 0-.847 0-1.693-.227-2.54 0-.14-.151-.282 0-.352.076 0 .227 0 .378.07.83.282 1.585.706 2.264 1.27.453.352.755.846.981 1.41.302.706.453 1.482.68 2.187.453 1.41 1.283 2.68 2.49 3.738 0 0 .151.141.302.212l-.075-.07ZM82.756 45.646c.151-.141.302-.282.529-.423 1.056-.776 2.34-1.2 3.698-1.27.981 0 1.811.282 2.566.846.755.565 1.283 1.27 1.887 1.975.755.847 1.434 1.834 2.114 2.68.075.071.075.142 0 .142-1.057.211-2.19.282-3.246-.07a1.796 1.796 0 0 1-.68-.424c-1.358-1.058-2.716-2.045-4.301-2.821-.755-.353-1.51-.635-2.34-.635H82.756ZM117.93 45.646c1.208-.988 2.491-1.622 4.076-1.693.755 0 1.434.141 2.114.564 1.207.706 2.188 1.693 2.943 2.822.529.705.906 1.48 1.434 2.186.076.07.076.141 0 .212-.453.07-.981.14-1.434.07h-.679c-.906 0-1.585-.493-2.264-.987-.604-.423-1.133-.988-1.736-1.41-1.284-.918-2.642-1.411-4.227-1.694h-.151l-.076-.07ZM114.383 66.308c0-.917.151-1.904.151-2.821 0-.212 0-.423-.076-.635v-.141h.151c1.057.494 1.962 1.128 2.642 1.975.453.494.604 1.128.679 1.763.076.847.076 1.763.151 2.61.151 1.27.453 2.398.981 3.597 0 0 .151.141 0 .212h-.226c-.83-.212-1.585-.424-2.265-.847-.528-.353-1.056-.776-1.434-1.199-.151-.212-.302-.423-.377-.705a11.64 11.64 0 0 1-.453-3.245v-.493l.076-.07ZM84.04 69.696c0-1.34.15-2.68.377-4.02 0-.212.076-.212.227-.142a7.17 7.17 0 0 1 1.887 1.411c.302.353.453.846.528 1.27.377 1.622.906 3.173 1.736 4.655.302.564.755 1.058 1.283 1.48 0 0 .151.071.151.142 0 .07-.15 0-.15 0-1.284.141-2.492-.141-3.624-.635-1.358-.564-2.038-1.552-2.34-2.892-.075-.493-.075-.917-.075-1.41v.14ZM82.454 46.492c.83 0 1.585.212 2.189.494 1.434.635 2.792 1.41 4 2.328h.075c.302.211.302.282 0 .423-.755.423-1.434.705-2.34.776-.377 0-.679 0-.98-.141a17.903 17.903 0 0 0-5.435-.635c-.68 0-1.359.212-1.963.423 0 0-.075.07-.15 0v-.141a4.042 4.042 0 0 1 1.132-1.763c.528-.565 1.056-1.058 1.736-1.41.603-.283 1.207-.424 1.736-.424v.07ZM116.194 53.331c-1.057 0-1.963-.14-2.793-.282a12.495 12.495 0 0 0-3.246 0c-.453 0-.83.141-1.283.212h-.151v-.141l.679-1.27c.529-.705 1.208-1.27 1.963-1.763.453-.212.906-.353 1.434-.353 1.585 0 3.019.141 4.529.635.83.282 1.66.564 2.491.706.075 0 .226 0 .075.211-.755.776-1.585 1.41-2.566 1.763-.453.141-.906.212-1.208.212l.076.07ZM132.421 73.431c-.227.212-.528.353-.83.494a7.003 7.003 0 0 1-4.152.635c-.453-.07-.83-.353-1.207-.635-1.359-1.058-2.265-2.398-2.718-3.95-.226-.705-.377-1.34-.679-1.975 0-.14 0-.14.151-.14.528 0 1.057.14 1.585.281.83.212 1.51.565 2.114 1.2l1.358 1.48c1.208 1.34 2.717 2.117 4.529 2.54l-.151.07ZM75.961 62.573c-.302-.493-.453-.917-.604-1.41-.15-.776-.226-1.623-.075-2.47.226-1.128.906-1.903 1.962-2.538.755-.423 1.585-.706 2.34-1.058.981-.423 2.038-.706 3.095-.988.15 0 .15 0 .15.141 0 .988-.301 1.905-.905 2.751-.227.282-.529.494-.83.706a30.719 30.719 0 0 0-3.02 2.327c-.905.705-1.66 1.552-2.037 2.61l-.076-.07Z" fill="#212121"/><path d="M130.908 44.024c1.887 0 3.547.564 4.83 1.904.378.423.529.988.604 1.481.378 1.552.076 3.033-.528 4.444-.227.564-.529 1.058-.679 1.622 0 .141-.151.212-.227 0-.906-.846-1.736-1.763-1.811-3.033 0-.846 0-1.763-.227-2.61-.226-1.41-.906-2.61-1.887-3.738v-.14l-.075.07ZM97.098 73.647a2.3 2.3 0 0 1-.528.352c-1.208.565-2.491.847-3.925.706-.982-.07-1.736-.565-2.34-1.27-.604-.635-.981-1.41-1.434-2.257-.453-.987-.906-1.975-1.208-3.033 0-.14 0-.211.151-.211.906 0 1.812.211 2.566.634.302.141.529.353.755.635A20.491 20.491 0 0 0 95.06 72.8c.604.353 1.208.635 1.887.776h.075l.076.07ZM102.608 69.836c-.755 0-1.509-.212-2.34-.423-1.434-.494-2.943-.917-4.377-1.552-.151 0-.227-.07 0-.212.528-.423.98-.846 1.585-1.128a5.037 5.037 0 0 1 1.358-.423c.378 0 .83 0 1.208.07 1.132.141 2.264.212 3.397.353.679.07 1.434.14 2.113.14.453 0 .906 0 1.359-.21h.226v.14c-.377.776-.981 1.482-1.661 2.046-.603.493-1.207.917-1.962 1.058-.302 0-.528.07-.906.07v.07ZM66.301 54.883c.68 0 1.359 0 1.963.212.755.282 1.358.846 1.887 1.41.68.706 1.207 1.481 1.887 2.187.68.705 1.283 1.34 2.038 1.975.15.07.15.14 0 .211-1.283.353-2.491.423-3.774.07-.378-.14-.68-.281-.982-.563a19.823 19.823 0 0 1-3.396-3.598 9.947 9.947 0 0 0-1.51-1.551s-.15 0-.075-.141c0-.07.075-.07.15-.07a8.596 8.596 0 0 1 1.888-.212l-.076.07ZM91.436 43.316c1.434 0 2.49.282 3.472 1.058.528.424.83.917 1.132 1.482l2.265 4.655c.075.211.075.211-.151.211-.83 0-1.66-.14-2.416-.423a2.643 2.643 0 0 1-1.51-1.128c-.905-1.34-1.886-2.751-3.018-3.95a8.85 8.85 0 0 0-1.208-1.129c-.151-.14-.302-.211-.528-.282 0 0-.076 0-.076-.07h.076c.754-.142 1.434-.353 1.962-.282v-.142ZM88.192 54.531c.604 0 1.132 0 1.585.141.83.141 1.51.565 2.114 1.2.603.564.98 1.269 1.434 1.974a31.813 31.813 0 0 0 2.264 3.245c.226.282.226.282-.151.282-.755.07-1.585.07-2.34-.07-.83-.212-1.51-.565-2.038-1.13a52.843 52.843 0 0 1-3.17-3.949c-.377-.494-.755-.917-1.283-1.27 0 0-.15 0-.075-.14 0 0 .075 0 .15-.071.529-.141 1.133-.141 1.586-.212h-.076ZM92.19 55.025c.226-.07.453-.141.604-.141 1.056-.07 2.038 0 3.019.353.981.282 1.66.987 2.113 1.833.453.706.755 1.552 1.132 2.258.529.987.982 1.974 1.51 2.962 0 .07 0 .14-.075.14-1.208 0-2.34-.21-3.397-.775-.302-.141-.453-.353-.68-.635a33.132 33.132 0 0 1-2.641-3.95c-.302-.564-.755-1.128-1.208-1.622l-.452-.423h.075ZM129.401 68.074c.604 0 1.208.212 1.736.494.83.353 1.661.776 2.566.987a9.893 9.893 0 0 0 4.076.212h.151v.141c-.906 1.41-2.113 2.398-3.849 2.821-.378.07-.755 0-1.208 0-1.887-.352-3.472-1.27-4.68-2.68-.377-.423-.754-.776-1.132-1.199-.151-.141-.151-.212 0-.282.453-.141.906-.282 1.359-.353.302 0 .679-.07.981-.14ZM79.661 68.215c0-.917.377-1.764.755-2.61.528-1.2 1.208-2.328 1.887-3.456 0-.141.075-.141.226 0 .604.776 1.132 1.551 1.283 2.539 0 .423-.075.776-.15 1.199-.303 1.622-.529 3.244-.454 4.867 0 .564.151 1.128.453 1.692 0 0 .076.071 0 .142h-.15c-1.057-.283-1.887-.917-2.642-1.693-.604-.564-.982-1.2-1.132-1.975v-.635l-.076-.07ZM103.966 57.14c.982.071 1.887.424 2.793.847 1.283.635 1.963 1.693 2.189 3.033.151.987.151 1.904.302 2.892.075.846.226 1.693.302 2.539 0 .07 0 .211-.151.14-.981-.352-1.887-.775-2.566-1.48a2.63 2.63 0 0 1-.68-1.058c-.528-1.693-.981-3.386-1.509-5.15-.151-.563-.453-1.128-.755-1.621v-.141h.151-.076ZM98.302 72.939c-.982 0-1.887-.353-2.642-.847-1.283-.846-2.491-1.763-3.548-2.82-.15-.142-.226-.283-.377-.424 0-.07-.076-.141 0-.212.981-.352 1.887-.635 2.944-.493.377 0 .754.211 1.056.352 1.51.635 3.095 1.27 4.68 1.763.679.212 1.359.283 2.038.283h.151v.14c-.981 1.059-2.189 1.764-3.623 2.117h-.755l.076.14ZM113.776 49.099h-.754c-.151 0-.151 0-.076-.141.83-1.129 1.812-1.975 3.246-2.469.679-.212 1.358-.141 2.113 0 1.736.353 3.246 1.129 4.529 2.187.377.282.83.634 1.207.916.151.07.151.142 0 .212-.905.423-1.811.776-2.792.846-.755 0-1.51-.211-2.189-.493-.981-.353-1.963-.706-2.944-.917a12.294 12.294 0 0 0-2.264-.212l-.076.07ZM105.324 64.192a13.933 13.933 0 0 1-1.66-.352 6.045 6.045 0 0 1-1.736-.988c-.302-.211-.453-.493-.604-.775-.83-1.482-1.51-3.033-2.189-4.514-.302-.565-.604-1.129-1.056-1.623 0 0-.076-.07 0-.14h.15c.83-.071 1.661.14 2.416.281 1.509.353 2.415 1.27 2.943 2.61.378.987.604 1.975.906 2.962.227.847.453 1.693.755 2.469v.07h.075ZM75.66 56.364c-.151-.917 0-1.693.302-2.47.075-.281.226-.563.377-.916.604-1.27 1.66-1.975 3.095-2.257.905-.141 1.887-.07 2.868-.07.981 0 1.962.211 2.944.423h.226c-.377.634-.83 1.199-1.434 1.692-.377.282-.83.494-1.359.635-1.283.282-2.566.705-3.774 1.129-.905.282-1.736.634-2.49 1.199a2.801 2.801 0 0 0-.68.635h-.075ZM124.27 43.741c.377-.141.755-.212 1.132-.282 1.132-.212 2.189-.141 3.321.211.679.212 1.132.635 1.585 1.129 1.132 1.27 1.661 2.75 1.812 4.373 0 .564.151 1.129.151 1.693 0 .14 0 .14-.151.14-.831-.14-1.51-.493-2.265-.916-.528-.282-.83-.776-1.132-1.27-.453-.776-.83-1.551-1.358-2.257-.755-1.058-1.812-1.975-2.944-2.68 0 0-.076 0-.151-.07v-.071ZM135.967 65.744c1.509.141 2.868-.211 4.227-.775.377-.141.679 0 .981.14.075 0 0 .142 0 .142-.378 1.27-.981 2.327-2.114 3.174-.452.352-.981.423-1.509.493-1.887.353-3.623 0-5.359-.705-.453-.212-.906-.353-1.359-.494-.075 0-.226-.07-.075-.211.679-.706 1.434-1.27 2.415-1.623.604-.211 1.208-.14 1.812-.211h.905l.076.07ZM82.229 59.962c0 .635-.151 1.129-.529 1.693-.98 1.41-1.811 2.963-2.566 4.514a4.995 4.995 0 0 0-.377 1.834v.141s-.076 0-.151-.07c-1.132-1.058-1.887-2.328-2.038-3.81 0-.634.15-1.198.377-1.692.453-.846 1.132-1.481 1.887-2.186.906-.847 1.812-1.552 2.793-2.328.15-.07.226-.141.226 0 .151.635.302 1.199.302 1.834l.076.07ZM107.815 57.422c-.075 0-.15 0-.226-.071-.453-.212-.83-.494-1.359-.564-.075 0-.151-.07-.075-.212.679-1.27 1.51-2.327 3.095-2.539a23.215 23.215 0 0 1 2.188-.282c.755 0 1.585 0 2.34.141.755.07 1.585.212 2.34.141.227 0 .227 0 .151.212-.226.352-.528.705-.83 1.058l-.906.846c-.679.564-1.434.776-2.264.846-1.057.141-2.114.07-3.246.212-.377 0-.755.141-1.208.212h-.15.15Z" fill="#212121"/><path d="M137.625 54.955c-.604 0-1.283-.07-1.887-.141-.302 0-.302 0-.226-.282a6.222 6.222 0 0 1 .679-1.623c.378-.776.755-1.48.981-2.327.151-.706.227-1.34.227-2.046 0-.493 0-.987-.227-1.48v-.142h.076c1.66.846 2.793 2.045 3.245 3.809.076.494 0 .917-.15 1.34a8.368 8.368 0 0 1-1.359 2.539c-.151.212-.377.353-.679.282h-.68v.07ZM90.605 60.809c-1.359.352-2.717.352-4-.142-.227-.07-.453-.282-.604-.423-1.057-.917-1.963-1.834-2.793-2.892-.151-.14-.151-.282 0-.423.377-.564.604-1.27.68-1.975v-.211c0-.212.15-.212.301-.212.68.07 1.208.353 1.736.706.529.423.906.846 1.283 1.34.906 1.199 1.812 2.398 2.868 3.456.152.211.378.352.529.564v.212ZM95.437 44.092c1.36-.564 3.17-.423 4.152 1.129.377.635.604 1.41.755 2.116.377 1.27.679 2.61 1.056 3.879 0 .212 0 .212-.151.141-.453 0-.905-.141-1.358-.353-.604-.282-1.133-.705-1.359-1.27-.377-.916-.755-1.833-1.132-2.68-.302-.705-.68-1.34-1.057-2.045-.226-.352-.453-.705-.906-.987v.07ZM100.871 44.938c1.057 0 1.812.634 2.189 1.622.227.634.302 1.34.377 2.045.151 1.34.302 2.61.453 3.95 0 .212 0 .212-.226.141-.528-.141-1.057-.353-1.434-.776-.302-.352-.453-.776-.529-1.199-.301-1.41-.603-2.821-1.056-4.232-.151-.423-.302-.917-.68-1.27v-.14c.302-.071.604-.142.906-.142ZM74.226 59.678c-.378-.282-.755-.634-1.057-.916-.604-.565-1.057-1.2-1.585-1.834-.529-.635-1.057-1.27-1.736-1.764-.151-.14-.076-.14 0-.211.906-.212 1.736-.282 2.642-.212.603 0 1.132.141 1.66.423.226.142.302.212.302.494 0 .423 0 .847.151 1.27v.494c-.377.705-.453 1.41-.528 2.186v.141l.15-.07ZM105.627 50.934v2.61c0 .212 0 .212-.227.141-.679-.282-1.132-.776-1.132-1.481-.076-.987-.151-1.904-.227-2.892 0-.776-.151-1.622-.377-2.398 0-.141-.075-.353-.151-.494-.075-.14 0-.211.076-.282.679-.282 1.358-.07 1.66.565.302.564.378 1.128.378 1.763v2.468ZM66.982 83.734v-2.187c0-.14 0-.14.15-.14.831 0 1.586 0 2.416.14 1.132.212 1.812 1.058 1.812 2.187 0 .987-.604 1.904-1.661 2.257-.453.14-.83.14-1.283.14h-1.208c-.15 0-.226 0-.226-.21v-2.187Zm.906 0v1.41c0 .141 0 .212.15.212h1.057c.83-.141 1.434-.776 1.434-1.552 0-.846-.603-1.48-1.434-1.551h-1.132c-.15 0-.15.07-.15.14v1.411l.075-.07ZM107.588 49.029c0 .846-.151 1.763-.226 2.61-.076.846-.151 1.621-.227 2.468 0 .14 0 .282-.075.282-.151 0-.226 0-.302-.141-.453-.282-.679-.705-.679-1.2v-2.961c0-.847 0-1.693-.151-2.54v-.211c-.076-.282-.076-.282.226-.353.831-.14 1.359.212 1.51 1.129v.917h-.076ZM132.496 83.734v-2.116c0-.212 0-.212.226-.212.604 0 .528 0 .528.564v1.2c0 .14 0 .14.151.14h2.038c.151 0 .151-.07.151-.14v-1.552c0-.141 0-.212.227-.212.679 0 .679 0 .679.564v3.88c0 .14 0 .211-.226.211h-.604c-.151-.07 0-.352 0-.564v-1.27c0-.14 0-.14-.151-.14h-1.963c-.151 0-.151 0-.151.14v1.623c0 .211 0 .282-.226.282-.528 0-.528 0-.528-.494v-1.834l-.151-.07ZM93.022 83.734v2.116c0 .141 0 .212-.227.212-.528 0-.528 0-.528-.494v-1.34c0-.141 0-.141-.151-.141h-2.038c-.151 0-.151 0-.151.14v1.694c0 .14 0 .14-.226.14-.68 0-.68 0-.68-.564V81.69c0-.282 0-.282.302-.282.352 0 .529.164.529.493v1.2c0 .14 0 .14.15.14h1.963c.15 0 .226 0 .226-.211v-1.481c0-.142 0-.212.227-.212.604 0 .528 0 .528.564v1.834h.076ZM140.875 84.507v-1.411c0-.141 0-.212.226-.212h.302c.151 0 .226 0 .226.141s.076.07.151 0c.227-.14.453-.211.68-.211.452 0 .754 0 1.056.353.076.07.151.07.227 0 .755-.706 1.887-.353 2.113.564.076.282 0 .564 0 .846v1.27c0 .14 0 .211-.151.14h-.377c-.151 0-.227 0-.227-.21V83.8c0-.211-.151-.352-.377-.423-.302 0-.604 0-.755.282-.151.212-.151.353-.151.635v1.481c0 .141 0 .212-.226.212-.529 0-.529 0-.529-.494v-1.552c0-.282-.226-.423-.528-.423-.302 0-.528.141-.679.423a2.375 2.375 0 0 0-.151.776v1.2c0 .14 0 .21-.227.21-.603 0-.603 0-.603-.564v-1.057ZM98.53 83.17c.831-.564 1.888-.282 2.341.141.528.565.604 1.552.151 2.187-.302.353-.68.564-1.133.635-.377 0-.528 0-1.283-.282 0 .282-.15.282-.302.282-.452 0-.452 0-.452-.423v-4.303c0-.212 0-.282.301-.282.529 0 .529 0 .529.494v1.551h-.151Zm.982.353c-.604 0-.981.353-.981.917 0 .564.377.987.981.987.528 0 .906-.352.981-.917 0-.564-.377-.987-.98-.987ZM146.684 83.594v-2.257c0-.142 0-.212.227-.212.603 0 .603 0 .603.564V83.17h.151c.755-.423 1.661-.282 2.189.283.68.775.529 1.974-.377 2.539a1.556 1.556 0 0 1-1.736 0c-.151 0-.227-.141-.227.07 0 0 0 .141-.151.07-.402 0-.603-.187-.603-.564v-1.904l-.076-.07Zm2.717.916c0-.564-.377-.987-.905-.987-.604 0-.982.353-.982.987 0 .565.378.917.982.917.528 0 .905-.352.905-.917ZM154.158 61.372c-1.585-.07-3.095-.14-4.68-.211-.604 0-.981-.424-.83-.917.075-.353.453-.494.906-.494.83 0 1.66.07 2.491.141.754 0 1.509 0 2.264.07.151 0 .377 0 .528.142.302.14.453.423.378.705 0 .282-.227.494-.529.494h-.528v.07ZM107.512 53.541c.076-.776.227-1.622.302-2.398.075-.917.226-1.834.151-2.75v-.212c0-.188.075-.306.226-.353.529 0 .982.212 1.208.705.226.494.151.988.076 1.552 0 .282-.076.635-.151.917 0 .141 0 .282-.151.353a8.241 8.241 0 0 0-1.208 2.257c0 .14-.302.423-.377.352-.151-.07 0-.282 0-.423h-.076ZM105.022 65.816c-1.661-.142-3.321-.212-4.982-.353-.453 0-.453 0-.226-.423.377-.565.755-1.058 1.283-1.411.076 0 .151-.07.226 0 1.057.846 2.34 1.34 3.774 1.481.453 0 .68.353.906.635.076.07 0 .141-.075.141h-.831l-.075-.07ZM108.87 86.131c-.981 0-1.811-.705-1.811-1.622 0-.917.754-1.622 1.811-1.622.981 0 1.812.705 1.812 1.622 0 .917-.755 1.622-1.812 1.693v-.07Zm.981-1.622c0-.564-.377-.917-.905-.917-.604 0-.982.353-.982.917 0 .564.378.917.982.987.603 0 .905-.352.905-.987ZM140.195 84.86v1.058c0 .141 0 .212-.151.141h-.302c-.151 0-.226 0-.226-.14 0-.142 0-.142-.151 0-.378.281-.83.281-1.283.21-.378 0-.68-.282-.755-.634-.151-.353-.076-.706.226-.988.302-.282.755-.423 1.132-.423h.604c.151 0 .151 0 .151-.14 0-.212-.151-.353-.377-.353-.378-.071-.679 0-.981.14-.151.142-.227.071-.378 0-.377-.352-.377-.352.076-.564.528-.282 1.056-.282 1.585-.14.528.14.755.493.83.987v.917-.07Zm-.755-.141c0-.141 0-.212-.151-.141h-.528c-.226 0-.377 0-.604.212-.226.211-.226.493 0 .634.528.212 1.208-.14 1.208-.705h.075ZM84.642 84.79v1.128c0 .141 0 .141-.151.141h-.378s-.15 0-.15-.07c0-.212-.152-.141-.227 0-.528.282-1.057.282-1.585 0-.453-.212-.604-1.129-.151-1.481.377-.282.755-.423 1.208-.423h.528c.226 0 .302-.071.15-.283-.15-.211-.301-.352-.527-.352-.302 0-.604 0-.83.211-.152.141-.227.07-.378 0-.377-.352-.377-.282.075-.564.529-.282 1.057-.282 1.585-.141.529.141.755.494.83.987v.847Zm-.755 0c0-.141 0-.141-.227-.141-.301 0-.603 0-.83.14-.15 0-.302.212-.302.353 0 .142 0 .283.227.353.302.141.604.07.83 0 .226-.141.377-.353.377-.635l-.075-.07ZM96.192 85.779c-.301.282-.679.352-1.056.352-.68 0-1.132-.423-1.208-1.128v-1.975c0-.141 0-.212.151-.141.755 0 .604-.141.68.564v1.2c0 .14 0 .281.075.422.15.283.377.353.68.283a.652.652 0 0 0 .603-.424c.15-.282.15-.634.15-.917v-.987c0-.141 0-.212.227-.212.529 0 .529 0 .529.494v2.54c0 .14 0 .21-.227.21h-.226c-.227 0-.453 0-.302-.281h-.076ZM153.854 84.507v1.411c0 .141 0 .212-.15.212h-.604c0-.141-.151-.141-.302 0a1.534 1.534 0 0 1-1.359 0c-.377-.212-.604-.564-.604-.988v-1.834c0-.14 0-.211.227-.211h.302c.226 0 .302.07.226.282v1.27c0 .14 0 .352.076.493.151.353.302.494.679.494.302 0 .604-.212.679-.494V83.31c0-.142 0-.283.227-.212.679 0 .603-.141.603.564v1.058-.212ZM103.814 83.734v-2.187c0-.14 0-.14.151-.14.453 0 .68.187.68.564v3.103c0 .282 0 .282.302.282h1.66c.226 0 .302 0 .226.212v.14c0 .283-.125.424-.377.424h-2.34c-.226 0-.302 0-.302-.282v-2.116ZM118.079 86.13c-.453 0-.906-.07-1.208-.493-.075-.14-.075-.211 0-.282.076-.07.227-.212.302-.212.151 0 .227.141.302.212.227.141.529.212.831.07.151 0 .226-.14.226-.281 0-.142-.151-.142-.226-.212-.227-.141-.529-.141-.755-.212-.302-.07-.604-.211-.755-.564-.151-.423 0-.846.453-1.058.528-.282 1.358-.282 1.736.07.226.212.226.283 0 .494 0 0-.151 0-.151.141-.151.141-.227.07-.302 0-.226-.211-.755-.211-.906 0v.282c.076.071.227.142.302.142.151 0 .378.07.529.14.528.142.83.494.83.988 0 .353-.453.776-.981.846h-.529l.302-.07ZM128.344 86.131c-.377 0-.754-.14-1.132-.493-.075-.071-.075-.142 0-.212.151-.07.227-.212.378-.282.075-.07.151 0 .226 0 .226.211.528.282.906.211.151 0 .226-.07.302-.211 0-.141-.076-.212-.227-.282-.302-.07-.604-.141-.83-.282-.302-.071-.528-.283-.604-.635-.075-.353 0-.705.378-.917.528-.423 1.509-.353 2.037.14.151.142.151.212 0 .283l-.075.07c-.302.212-.302.212-.604 0-.226-.14-.453-.07-.604 0-.075 0-.151.142-.151.212s0 .141.151.212c.151.07.302.14.453.14.227 0 .378.142.604.212.604.212.679 1.129.226 1.482-.301.211-.603.352-1.207.352h-.227ZM124.042 84.366c0-.494.227-1.058.981-1.34.68-.282 1.284-.212 1.887.14.227.142.227.212 0 .424l-.302.282c-.15 0-.226-.141-.301-.212-.453-.211-1.133-.14-1.284.424-.075.352-.075.705.151 1.058.302.352.982.352 1.284 0 .15-.141.226-.141.301 0 0 .07.151.14.227.211.151.141.151.212 0 .353-.604.423-1.283.423-1.963.212-.679-.283-.905-.776-.905-1.623l-.076.07ZM79.585 84.437v-.706c0-.14 0-.14-.151-.14h-.529v-.565c0-.07.151 0 .227 0 .302 0 .453-.141.453-.423 0-.282.15-.423.453-.423h.15c.151 0 .227 0 .227.211v.494c0 .141 0 .141.15.141h.53c.15 0 .15 0 .15.141 0 .33-.15.494-.453.494h-.075c-.302 0-.302 0-.302.282v1.058c0 .564.15.635.755.494.15 0 .15 0 .15.14 0 .565 0 .565-.603.635-.68 0-.981-.211-1.057-.846v-.846l-.075-.141ZM120.267 84.367v-.706c0-.07 0-.14-.151-.14h-.528c-.075-.142 0-.353 0-.565 0-.07.076-.07.151-.07.528 0 .528 0 .528-.494 0-.235.126-.353.378-.353.251 0 .402.141.453.423.05.282.201.423.452.423.453 0 .453 0 .453.424 0 .211 0 .282-.302.282h-.377c-.151 0-.226 0-.226.211v1.27c0 .353.151.423.528.423.075 0 .226-.14.302 0 .075.07 0 .212 0 .353 0 .352 0 .352-.378.352-.981.071-1.358-.211-1.358-1.128v-.564l.075-.141ZM113.173 57.563c.151 0 .151 0 .076.14 0 .212-.151.424-.227.635-.226.423-.453.847-.754 1.27 0 .07-.076.07-.227 0-.83-.564-1.736-.987-2.868-1.058-.226 0-.453-.141-.528-.353 0-.07 0-.14.075-.14.906 0 1.736-.142 2.642-.142.604 0 1.132-.14 1.736-.211l.075-.142ZM139.741 55.024c.453-.634.83-1.27 1.132-1.974.076-.283.227-.565.302-.776v-.07h.076c.528.775.981 1.621 1.132 2.538 0 .141 0 .212-.227.212h-2.491l.076.07ZM85.398 83.594v-2.328c0-.141 0-.141.151-.141.68 0 .68 0 .68.564v4.162c0 .14 0 .282-.227.211h-.151c-.453 0-.453 0-.453-.423v-2.116.07ZM134.005 65.11c-.151 0-.151 0-.151-.141.151-.423.377-.776.528-1.2 0-.14.151 0 .227 0 1.132.212 2.339.424 3.472.706.151 0 .377 0 .528.07h.151l-.151.071c-.604.141-1.132.212-1.736.282-.981.07-1.962 0-2.944.141l.076.07ZM154.61 84.51v-1.412c0-.14 0-.282.226-.211h.378s.15 0 .15.07c0 .212.076.142.227.071.302-.141.528-.212.906-.212.151 0 .226 0 .151.212v.494c0 .14 0 .14-.151.14-.68-.14-1.057.142-1.057.777v1.41c0 .212 0 .212-.226.212-.529 0-.529 0-.529-.494V84.44l-.075.07ZM115.438 84.508v-1.34c0-.141 0-.282.226-.282.604 0 .604-.07.604.493v2.469c0 .141 0 .141-.227.141-.603 0-.603 0-.603-.564v-1.058.14ZM77.775 84.509v-1.41c0-.142 0-.212.226-.212.604 0 .604 0 .604.493v2.47c0 .14 0 .21-.226.21h-.453c-.151 0-.151 0-.151-.14v-1.411ZM71.963 84.509v-1.41c0-.142 0-.212.227-.212h.226c.377 0 .377 0 .377.423v2.54c0 .21 0 .281-.226.281-.528 0-.528 0-.528-.493v-1.059l-.076-.07ZM83.133 58.551c.151.141.302.282.453.494a32.51 32.51 0 0 0 1.585 1.551s.15.071.075.142h-.15c-.529.07-1.057.211-1.661.211-.302 0-.302 0-.227-.212a9.264 9.264 0 0 0 0-2.045v-.212l-.075.071ZM122.607 84.508v-1.41c0-.142 0-.212.151-.212.755 0 .604-.07.604.493v2.398c0 .283 0 .283-.302.283s-.453-.142-.453-.424v-1.128ZM161.477 65.956c0-.424.302-.776.755-.776s.755.352.755.775c0 .424-.302.776-.755.706-.377 0-.679-.353-.679-.776l-.076.07ZM164.422 64.617c.377 0 .754.353.754.776 0 .423-.377.706-.754.706-.378 0-.68-.353-.68-.776 0-.423.302-.776.68-.776v.07ZM162.837 64.264c-.378 0-.755-.353-.755-.776 0-.423.377-.776.755-.706.377 0 .679.353.679.776 0 .423-.378.776-.755.776l.076-.07ZM158.384 59.963c0-.423.302-.776.755-.776.377 0 .755.353.755.776 0 .423-.302.776-.68.776-.377 0-.754-.352-.754-.776h-.076ZM158.384 62.643c0-.423.302-.776.679-.776.378 0 .755.353.755.776 0 .423-.302.776-.679.776-.378 0-.755-.353-.755-.776ZM160.875 60.668c.377 0 .755.353.679.776 0 .423-.377.776-.755.776-.377 0-.755-.353-.755-.776 0-.423.302-.706.755-.706l.076-.07ZM160.723 65.112c0 .423-.302.705-.755.705-.377 0-.679-.353-.679-.776 0-.352.377-.705.755-.705.452 0 .679.353.679.776ZM165.176 58.198c0 .423-.302.776-.679.776-.377 0-.755-.353-.755-.776 0-.423.378-.776.755-.776s.679.353.679.776ZM160.648 51.428c0 .424-.302.706-.754.706-.378 0-.68-.353-.68-.776 0-.423.378-.776.755-.776s.679.353.679.776v.07ZM165.026 61.512c.378 0 .755.352.755.776 0 .423-.302.775-.755.705-.453 0-.679-.353-.679-.776 0-.353.302-.705.679-.705ZM160.723 57.846c0 .423-.302.706-.755.706-.377 0-.679-.353-.679-.776 0-.353.377-.706.755-.706.452 0 .679.353.679.776ZM164.198 60.807c0 .423-.377.776-.755.776-.377 0-.755-.353-.755-.776 0-.423.302-.705.68-.705.453 0 .754.352.754.775l.076-.07ZM159.14 67.018c0 .423-.302.776-.755.776-.377 0-.755-.353-.755-.776 0-.423.378-.706.755-.706.378 0 .679.353.679.776l.076-.07ZM164.571 55.588c0 .423-.302.706-.755.706-.377 0-.755-.282-.755-.706 0-.423.302-.776.679-.776.378 0 .755.353.755.776h.076ZM159.289 71.177c-.453 0-.679-.353-.679-.776 0-.424.302-.706.754-.706.378 0 .68.353.68.706 0 .423-.302.776-.755.776ZM156.647 64.194c0-.423.302-.776.755-.776.377 0 .679.353.679.705 0 .423-.302.776-.679.776-.378 0-.755-.353-.755-.776v.07ZM165.026 59.963c0-.423.302-.776.755-.776.377 0 .679.353.679.776 0 .423-.302.776-.755.776-.377 0-.679-.352-.679-.776ZM158.08 55.307c0-.423.377-.776.755-.776.377 0 .754.353.754.776 0 .423-.302.776-.754.776-.378 0-.755-.282-.755-.705v-.07ZM156.572 58.127c0-.423.302-.775.755-.775.378 0 .755.352.755.775 0 .424-.302.706-.755.706-.377 0-.679-.353-.679-.706h-.076ZM157.854 60.807c0 .353-.377.705-.755.705-.377 0-.754-.352-.754-.775 0-.424.377-.706.754-.706.453 0 .755.353.755.776ZM161.329 58.338c0-.423.302-.776.679-.776.378 0 .755.353.755.776 0 .353-.302.776-.755.776-.377 0-.754-.352-.754-.705l.075-.07ZM160.873 55.873c0-.423.302-.705.679-.705.377 0 .755.353.755.705 0 .424-.378.776-.755.776s-.679-.352-.679-.776ZM161.329 68.073c0 .423-.301.705-.679.705-.377 0-.755-.353-.755-.705 0-.423.378-.776.755-.776.453 0 .755.282.755.776h-.076ZM162.007 68.076c0-.423.302-.705.68-.705.377 0 .754.353.754.705 0 .424-.302.776-.754.776-.378 0-.68-.352-.68-.776ZM161.855 52.696c.378 0 .755.352.755.775 0 .353-.377.706-.755.706-.377 0-.755-.353-.755-.776 0-.423.302-.776.68-.776l.075.07ZM109.701 50.722c.075-.423.15-.776.226-1.128v-.635c0-.141 0-.141.151-.141.528-.07.981.141 1.132.635 0 .14 0 .211-.075.282-.529.211-.906.564-1.359.917h-.075v.07ZM78.153 82.394c-.226 0-.453-.212-.453-.494 0-.212.302-.494.529-.494.302 0 .528.212.528.494 0 .282-.226.423-.528.423l-.076.07ZM122.985 82.394c-.226 0-.528-.212-.452-.494 0-.212.302-.494.528-.494.226 0 .528.282.528.494 0 .282-.226.494-.528.494h-.076ZM72.943 81.9c0 .282-.227.493-.528.493-.302 0-.529-.211-.453-.423 0-.282.226-.493.528-.493.302 0 .528.211.453.493v-.07ZM115.816 82.394c-.302 0-.453-.212-.453-.494 0-.212.226-.423.453-.423.302 0 .528.211.528.493 0 .282-.226.424-.528.424Z" fill="#212121"/></svg>