<svg width="427" height="427" fill="none" xmlns="http://www.w3.org/2000/svg"><path d="M130.638 283.796H104.65v-113.96H79.337c-.1-.101-.236-.168-.337-.269v-25.533h103.613v114.329h29.463c.034-.504.169-1.142.135-1.78-.067-7.257-.236-14.514-.236-21.805 0-10.851.169-21.703.236-32.555 0-3.057-.236-6.148-.236-9.205.034-10.415.169-20.797.236-31.212l.101-17.806H349v139.763h-25.65c-.034-.773-.135-1.546-.135-2.352V169.937h-29.599V281.243c0 .739 0 1.444-.033 2.184-.102.1-.169.235-.271.336H268l-.27-.336c0-.74-.034-1.445-.034-2.184V169.937h-29.598v111.642c0 .739-.068 1.444-.102 2.184h-81.337V169.937H130.84V281.478c0 .773-.101 1.545-.169 2.318h-.033Z" fill="#fff"/></svg>